<svg xmlns="http://www.w3.org/2000/svg" width="418.2" height="365.8"><g data-name="Сгруппировать 517"><path data-name="Контур 119" d="M382.7 98.5l-6.5 7a54.7 54.7 0 00-13.4 48.7 156 156 0 01-60.7 159.3 155.4 155.4 0 01-54.2 25 145.4 145.4 0 01-18.1 3.4l-5.7.6a156.6 156.6 0 01-60-6.7l-1.5 1.6-21.3 23.1a16.3 16.3 0 01-23 1 16.3 16.3 0 01-1-23l9.8-11.3a12.1 12.1 0 00-.8-17 12.3 12.3 0 00-1.2-1 1.7 1.7 0 00-.2-.2 12 12 0 00-15.7 1.8l-34 37.4a16.3 16.3 0 01-23.1 1 16.3 16.3 0 01-1-23l23.7-26.4a14.1 14.1 0 001.3-17.6 13.9 13.9 0 00-19.3-3.6 13.7 13.7 0 00-2.4 2l2.2-1.8a16.3 16.3 0 01-23 1 16.3 16.3 0 01-1-23l19.4-21a23.4 23.4 0 006-20A155.6 155.6 0 01182.7 34.4a155.4 155.4 0 0128-2.6 159 159 0 0126.7 2.3l20-21.7a16.3 16.3 0 0123-1 16.3 16.3 0 011 23.1L268 49.2a13.7 13.7 0 00.8 19.3 13.6 13.6 0 002.5 1.8l.4.3a13.9 13.9 0 0017-2.7l49-53a16.3 16.3 0 0123-1 16.3 16.3 0 011 23l-25.2 27.4a11.9 11.9 0 00-.3 15.7l.1.2a12.2 12.2 0 0017.2 1.5 12.5 12.5 0 001-1l4-4.4a16.3 16.3 0 0123.1-.9 16.3 16.3 0 011 23z" fill="#cbecf5"/><path data-name="Rectangle 1610" d="M2.6 138A14.2 14.2 0 016 118.1a14.2 14.2 0 0119.8 3.4 14.2 14.2 0 01-3.5 19.8 14.2 14.2 0 01-19.7-3.5z" fill="#cbecf5"/><path data-name="Rectangle 1611-2" d="M392.7 175.5a10.9 10.9 0 012.7-15.2 10.9 10.9 0 0115.1 2.7 10.9 10.9 0 01-2.6 15.1 10.9 10.9 0 01-15.2-2.6z" fill="#cbecf5"/><g data-name="Сгруппировать 349"><path data-name="Rectangle 1611" d="M17.1 101.4a12 12 0 013-16.6 12 12 0 0116.6 2.9 12 12 0 01-3 16.6 12 12 0 01-16.6-2.9z" fill="#cbecf5"/><g data-name="Сгруппировать 37"><rect data-name="Прямоугольник 78" width="125.3" height="9.2" rx="4.6" fill="#343f46" transform="translate(70 179.9)"/></g><g data-name="Сгруппировать 38"><path data-name="Прямоугольник 79" fill="#343f46" d="M118 101.4h29.2v86.8H118z"/></g><path data-name="Контур 39" d="M147.2 160.5l-29.2 7.8v-16.2h29.2z" fill="#293135"/><g data-name="Сгруппировать 43"><rect data-name="Прямоугольник 83" width="252.2" height="155.4" rx="7.2" fill="#343f46" transform="translate(6.1)"/></g><g data-name="Сгруппировать 293"><g data-name="Сгруппировать 182"><g data-name="Сгруппировать 181"><path data-name="Прямоугольник 379" fill="#b4f9f5" d="M12 7.4h224v133.7H12z"/></g></g><g data-name="Сгруппировать 209"><g data-name="Сгруппировать 205" transform="translate(153.6 15.4)"><g data-name="Сгруппировать 204"><g data-name="Сгруппировать 184"><g data-name="Сгруппировать 183"><path data-name="Прямоугольник 380" fill="#5385a0" d="M0 0h68v56.8H0z"/></g></g><g data-name="Сгруппировать 186"><g data-name="Сгруппировать 185"><path data-name="Прямоугольник 381" fill="#a1e9ff" d="M2.3 1.9h63.5v53H2.3z"/></g></g><g data-name="Сгруппировать 203"><g data-name="Сгруппировать 188"><g data-name="Сгруппировать 187"><path data-name="Контур 436" d="M10 55l8.8-24.2 5 .7 7-19.7 3 6.2 2.3-2.5 8.4 16 3-1.7L59.8 55z" fill="#5385a0"/></g></g><g data-name="Сгруппировать 190"><g data-name="Сгруппировать 189"><path data-name="Контур 437" d="M30.7 27.7v-16l-6.9 20.4z" fill="#5385a0"/></g></g><g data-name="Сгруппировать 192"><g data-name="Сгруппировать 191"><path data-name="Контур 438" d="M20.6 44.2l-1.8-13.4L11.3 51z" fill="#5385a0"/></g></g><g data-name="Сгруппировать 194"><g data-name="Сгруппировать 193"><path data-name="Контур 439" d="M35.7 38l-.4-4.5-1.3 1.2z" fill="#195c8f"/></g></g><g data-name="Сгруппировать 196"><g data-name="Сгруппировать 195"><path data-name="Контур 440" d="M26.2 41.4l-2.4-9.9-5-.7z" fill="#40749b"/></g></g><g data-name="Сгруппировать 198"><g data-name="Сгруппировать 197"><path data-name="Контур 441" d="M31.6 31.5V39l3.7 12.7 5-11-5.5-13.2-1 10.3z" fill="#40749b"/></g></g><g data-name="Сгруппировать 200"><g data-name="Сгруппировать 199"><path data-name="Контур 442" d="M51.1 45.6l-3.6-15.8-3 1.7z" fill="#40749b"/></g></g><g data-name="Сгруппировать 202"><g data-name="Сгруппировать 201"><path data-name="Контур 443" d="M61 12.5h-.2a3.4 3.4 0 00-3.3-3.1 3.2 3.2 0 00-2 .6A4 4 0 0052 7.4a4 4 0 00-3.8 2.9 2.8 2.8 0 00-1.5-.5 3 3 0 00-2.8 2 2.8 2.8 0 00-1.1-.3 3 3 0 00-3 3.2c0 1.7 1.3 3.6 3 3.6H61c1.6 0 3-.9 3-2.6a3 3 0 00-3-3.2z" fill="#e1fbff"/></g></g></g></g><circle data-name="Эллипс 100" cx="3.7" cy="3.7" r="3.7" transform="translate(9.6 13.3)" fill="#ffdeb6"/></g><g data-name="Сгруппировать 208"><g data-name="Сгруппировать 207"><g data-name="Сгруппировать 206"><path data-name="Контур 444" d="M187.3 36.8c0 1.8-1.5 3.8-3.3 3.8h-20c-1.8 0-3.2-1-3.2-2.7a3.3 3.3 0 013.2-3.3h.2a3.7 3.7 0 013.6-3.2 3.6 3.6 0 012.1.6 4.3 4.3 0 014-2.8 4.3 4.3 0 014.2 3 3.2 3.2 0 011.7-.4 3.3 3.3 0 013 2 3.3 3.3 0 011.2-.2 3.3 3.3 0 013.3 3.2z" fill="#e1fbff"/></g></g></g></g><path data-name="Прямоугольник 382" fill="#edd9c0" d="M27 7.4h67.4v133.7H27z"/><path data-name="Прямоугольник 383" fill="#ffeedc" d="M31.4 11.3H90v59.2H31.4z"/><path data-name="Прямоугольник 384" fill="#ffeedc" d="M31.4 77.4H90v59.2H31.4z"/><g data-name="Сгруппировать 249"><path data-name="Контур 445" d="M43.8 136.6h6.4l-2.2-44h-6.3z" fill="#053c9e"/><path data-name="Прямоугольник 385" fill="#cbe4f7" d="M35.1 86.8h7.1v49.8h-7.1z"/><path data-name="Прямоугольник 386" fill="#89ccce" d="M50.2 98.3h7v38.3h-7z"/><g data-name="Сгруппировать 222"><g data-name="Сгруппировать 210"><path data-name="Контур 446" d="M89 129v6.2H67.1c-1.6 0-4.4-.6-4.4-3.5s4.2-3.3 5.5-3.3l20.6.5z" fill="#fff"/></g><g data-name="Сгруппировать 212"><g data-name="Сгруппировать 211"><path data-name="Контур 447" d="M89.5 136.2h-22c-3.2 0-5.3-1.6-5.3-4.1s2-4.2 5.3-4.2h22v1h-22c-2 0-4.3.9-4.3 3.2s2.2 3 4.3 3h22z" fill="#bc6600"/></g></g><g data-name="Сгруппировать 213"><path data-name="Прямоугольник 387" fill="#d0d2d3" d="M67.9 129.5h21v.2H68z"/></g><g data-name="Сгруппировать 214"><path data-name="Прямоугольник 388" fill="#d0d2d3" d="M67.9 130.1h21v.2H68z"/></g><g data-name="Сгруппировать 215"><path data-name="Прямоугольник 389" fill="#d0d2d3" d="M67.9 130.8h21v.2H68z"/></g><g data-name="Сгруппировать 216"><path data-name="Прямоугольник 390" fill="#d0d2d3" d="M67.9 131.4h21v.2H68z"/></g><g data-name="Сгруппировать 217"><path data-name="Прямоугольник 391" fill="#d0d2d3" d="M67.9 132h21v.2H68z"/></g><g data-name="Сгруппировать 218"><path data-name="Прямоугольник 392" fill="#d0d2d3" d="M67.9 132.6h21v.2H68z"/></g><g data-name="Сгруппировать 219"><path data-name="Прямоугольник 393" fill="#d0d2d3" d="M67.9 133.2h21v.2H68z"/></g><g data-name="Сгруппировать 220"><path data-name="Прямоугольник 394" fill="#d0d2d3" d="M67.9 133.8h21v.2H68z"/></g><g data-name="Сгруппировать 221"><path data-name="Прямоугольник 395" fill="#d0d2d3" d="M67.9 134.4h21v.2H68z"/></g></g><g data-name="Сгруппировать 235"><g data-name="Сгруппировать 223"><path data-name="Контур 448" d="M87.1 112.2v6.2H65.3c-1.5 0-4.4-.5-4.4-3.4s4.3-3.3 5.6-3.3l20.6.5z" fill="#fff"/></g><g data-name="Сгруппировать 225"><g data-name="Сгруппировать 224"><path data-name="Контур 449" d="M87.7 119.5h-22c-3.2 0-5.3-1.7-5.3-4.2s2-4.1 5.3-4.1h22v1h-22c-2 0-4.3.8-4.3 3.1s2.2 3.1 4.3 3.1h22z" fill="#966fb5"/></g></g><g data-name="Сгруппировать 226"><path data-name="Прямоугольник 396" fill="#d0d2d3" d="M66 112.8h21.1v.2h-21z"/></g><g data-name="Сгруппировать 227"><path data-name="Прямоугольник 397" fill="#d0d2d3" d="M66 113.4h21.1v.2h-21z"/></g><g data-name="Сгруппировать 228"><path data-name="Прямоугольник 398" fill="#d0d2d3" d="M66 114h21.1v.2h-21z"/></g><g data-name="Сгруппировать 229"><path data-name="Прямоугольник 399" fill="#d0d2d3" d="M66 114.6h21.1v.2h-21z"/></g><g data-name="Сгруппировать 230"><path data-name="Прямоугольник 400" fill="#d0d2d3" d="M66 115.2h21.1v.2h-21z"/></g><g data-name="Сгруппировать 231"><path data-name="Прямоугольник 401" fill="#d0d2d3" d="M66 115.8h21.1v.2h-21z"/></g><g data-name="Сгруппировать 232"><path data-name="Прямоугольник 402" fill="#d0d2d3" d="M66 116.4h21.1v.2h-21z"/></g><g data-name="Сгруппировать 233"><path data-name="Прямоугольник 403" fill="#d0d2d3" d="M66 117h21.1v.3h-21z"/></g><g data-name="Сгруппировать 234"><path data-name="Прямоугольник 404" fill="#d0d2d3" d="M66 117.7h21.1v.2h-21z"/></g></g><g data-name="Сгруппировать 248"><g data-name="Сгруппировать 236"><path data-name="Контур 450" d="M59 120.6v6.3H81c1.5 0 4.4-.6 4.4-3.5s-4.3-3.3-5.6-3.3l-20.6.5z" fill="#fff"/></g><g data-name="Сгруппировать 238"><g data-name="Сгруппировать 237"><path data-name="Контур 451" d="M58.5 127.9h22c3.2 0 5.3-1.6 5.3-4.1s-2-4.2-5.3-4.2h-22v1h22c2 0 4.3.9 4.3 3.1s-2.2 3.2-4.3 3.2h-22z" fill="#89ccce"/></g></g><g data-name="Сгруппировать 239"><path data-name="Прямоугольник 405" fill="#d0d2d3" d="M59 121.2h21.2v.2H59z"/></g><g data-name="Сгруппировать 240"><path data-name="Прямоугольник 406" fill="#d0d2d3" d="M59 121.8h21.2v.2H59z"/></g><g data-name="Сгруппировать 241"><path data-name="Прямоугольник 407" fill="#d0d2d3" d="M59 122.4h21.2v.2H59z"/></g><g data-name="Сгруппировать 242"><path data-name="Прямоугольник 408" fill="#d0d2d3" d="M59 123h21.2v.3H59z"/></g><g data-name="Сгруппировать 243"><path data-name="Прямоугольник 409" fill="#d0d2d3" d="M59 123.7h21.2v.2H59z"/></g><g data-name="Сгруппировать 244"><path data-name="Прямоугольник 410" fill="#d0d2d3" d="M59 124.3h21.2v.2H59z"/></g><g data-name="Сгруппировать 245"><path data-name="Прямоугольник 411" fill="#d0d2d3" d="M59 124.9h21.2v.2H59z"/></g><g data-name="Сгруппировать 246"><path data-name="Прямоугольник 412" fill="#d0d2d3" d="M59 125.5h21.2v.2H59z"/></g><g data-name="Сгруппировать 247"><path data-name="Прямоугольник 413" fill="#d0d2d3" d="M59 126.1h21.2v.2H59z"/></g></g></g><g data-name="Сгруппировать 259" transform="translate(34.3 40.2)"><g data-name="Сгруппировать 258"><g data-name="Сгруппировать 251"><g data-name="Сгруппировать 250" transform="translate(8 23.4)"><path data-name="Прямоугольник 414" fill="#7fa2ad" d="M4.3 0h2.6v6.7H4.3z"/><rect data-name="Прямоугольник 415" width="11.2" height="1" rx=".5" transform="translate(0 6)" fill="#5b858e"/></g></g><g data-name="Сгруппировать 257"><g data-name="Сгруппировать 256"><g data-name="Сгруппировать 253"><g data-name="Сгруппировать 252"><path data-name="Прямоугольник 416" fill="#7fa2ad" d="M3.8.8l.7-.6 19.2 19.2-.6.6z"/></g></g><g data-name="Сгруппировать 255"><g data-name="Сгруппировать 254"><path data-name="Контур 452" d="M13.6 23.8a13.5 13.5 0 009.6-4l-.7-.6a12.6 12.6 0 01-9 3.7 12.6 12.6 0 01-8.9-3.7 12.7 12.7 0 010-18L4 .7a13.6 13.6 0 000 19.2 13.5 13.5 0 009.6 4z" fill="#7fa2ad"/></g></g></g></g></g><circle data-name="Эллипс 101" cx=".8" cy=".8" transform="translate(3.7)" fill="#5b858e" r=".8"/><circle data-name="Эллипс 102" cx=".8" cy=".8" transform="translate(22 18.5)" fill="#5b858e" r=".8"/></g><g data-name="Сгруппировать 260" transform="translate(32.2 34.7)"><circle data-name="Эллипс 103" cx="11.4" cy="11.4" r="11.4" transform="rotate(-33 21 6.2)" fill="#29bfed"/><path data-name="Контур 453" d="M14.7 7c-1.2-.6-3 .8-3.5 2.7s.4 4 1.7 4 1.5-2.1 2-3.2 1.3-2.8-.2-3.6z" fill="#8ad607"/><path data-name="Контур 454" d="M19 14.6c-2 0-2.6-2.5 0-5a4 4 0 001.2-4.3 11.4 11.4 0 016 5.9 11.4 11.4 0 01-1.8 12 3.3 3.3 0 00-2-2c-1.5-.6-2.6-1.8-1.3-3.6s0-3-2-3z" fill="#8ad607"/><path data-name="Контур 455" d="M25.3 22a3.7 3.7 0 01-.6-3.5c.4-1.3-.3-4.4-1.7-5.4A2.8 2.8 0 0122 9a2.7 2.7 0 00.1-2.6 11.3 11.3 0 014 4.8 11.4 11.4 0 01-.9 10.8z" fill="#acef29"/><path data-name="Контур 456" d="M8.6 6.9a4.2 4.2 0 01.3 3.8c-1 2.3-1.7 7 1.9 8.1s6.5 3 4.5 5.7a9 9 0 01-2.3 2.3 11.4 11.4 0 01-7.7-6.4A11.4 11.4 0 018.6 6.9z" fill="#8ad607"/><path data-name="Контур 457" d="M13.6 8.4c.7.2.5 3.4-.5 3.6s-.6-3.9.5-3.6z" fill="#acef29"/><path data-name="Контур 458" d="M6.7 9c.2.3.4 1.2 0 3.2-.7 3-.3 7.6 2.8 8.5s4.1 3.6 1.5 4.6a3.5 3.5 0 01-1.1.2 11.3 11.3 0 01-4.6-5.1A11.4 11.4 0 016.7 8.9z" fill="#acef29"/><path data-name="Контур 459" d="M16 15.8c1.5.4 2.8 1.8 2.4 2.8s-3.6.9-4.4-1 .7-2.1 2-1.8z" fill="#29bfed" opacity=".2" style="mix-blend-mode:multiply;isolation:isolate"/></g><g data-name="Сгруппировать 261" transform="translate(63.5 43.2)"><path data-name="Контур 460" d="M10.8 19.2v-.5l-.4-1.4a16 16 0 00-1.6-4 11.5 11.5 0 00-.7-1 10.3 10.3 0 00-.7-1 9.6 9.6 0 00-.7-.7 8.4 8.4 0 00-.8-.6l-.7-.4-.6-.3-.5-.3.6.2.6.3.7.4a8.7 8.7 0 01.8.5 9.9 9.9 0 01.9.7 10.9 10.9 0 01.8 1 12.2 12.2 0 01.7.9 16.7 16.7 0 012 4l.5 1.5.1.5z" fill="#19bc4b"/><path data-name="Контур 461" d="M11.6 19.4v-.2a17.5 17.5 0 01.7-3.2 25.3 25.3 0 011-3.3 24 24 0 013-5.1l.7-.8.7-.7.7-.6.6-.6.7-.5.7-.4.6-.4.6-.3 1-.4.8-.4-.8.4-1 .5c-.2 0-.3.2-.5.3l-.6.4-.7.5-.6.5-.7.6-.6.6-.6.7-.6.8-.6.8-.5.9A20 20 0 0014 13a24.7 24.7 0 00-.9 3.2 24.7 24.7 0 00-.4 3v.3z" fill="#19bc4b"/><path data-name="Контур 462" d="M9.5 19.5v-.2l-.1-.6-.2-1-.3-1.1-.4-1.4-.6-1.6-.7-1.6-.4-.8-.5-.8-1-1.5A8.7 8.7 0 005 8l-.6-.7-.2-.3-.3-.3-.5-.6a14 14 0 00-1-1.1c-.4-.3-.6-.7-1-.9l-.7-.6L0 3l.7.5.7.6 1 .9a14.3 14.3 0 011 1l.6.6.3.3.3.3.5.7.6.7 1 1.6.6.8.4.8.8 1.6.7 1.5.5 1.4.4 1.2.2 1 .2.7v.2z" fill="#19bc4b"/><path data-name="Контур 463" d="M11.3 19.5v-.2-.5l-.2-1-.3-1.1-.4-1.4-.5-1.6-.7-1.6-.4-.8-.4-.8-1-1.5a8.4 8.4 0 00-.5-.8l-.5-.7-.2-.3-.3-.4-.5-.6a14 14 0 00-1-1l-.9-1-.7-.6-.6-.6.7.5.7.6 1 .8a14.2 14.2 0 011.1 1l.6.6.3.3.3.4.5.6a9 9 0 01.6.7c.4.5.8 1 1 1.6l.6.7.5.8.8 1.6.7 1.6.6 1.4.4 1.3.2 1 .2.6v.2z" fill="#19bc4b"/><path data-name="Контур 464" d="M10 19.4v-.9l.2-2.2a44.8 44.8 0 00-.3-6.9 35.4 35.4 0 00-1.6-6.6l-.6-1.2-.4-.9-.5-.7.5.7.5.9.6 1.1a18 18 0 011.2 3 29.2 29.2 0 01.8 3.7 45.6 45.6 0 01.6 6.9V19.5z" fill="#19bc4b"/><path data-name="Контур 465" d="M12.4 19V19l.1-.4.2-.5.3-.7.4-.8.4-.8.6-.9a8.6 8.6 0 01.7-.8l.4-.3.3-.4a8 8 0 01.8-.6 7.3 7.3 0 01.8-.5l.4-.2.4-.2.6-.3.6-.1.4-.2-.4.2-.5.2-.6.4-.4.2-.3.2a7 7 0 00-.8.6 7.8 7.8 0 00-.7.6l-.3.4-.3.4a8.3 8.3 0 00-.6.8l-.5.8-.3.9-.3.7-.2.7-.1.5v.3z" fill="#19bc4b"/><path data-name="Контур 466" d="M11.6 19V19l.2-.4.1-.5.3-.7.4-.8.5-.8.5-.9a8.8 8.8 0 01.7-.8l.4-.3.4-.4a8 8 0 01.8-.6 7.3 7.3 0 01.8-.5l.4-.2.3-.2c.3 0 .5-.2.7-.3l.5-.1.4-.2-.4.2-.5.2-.6.4-.3.2-.4.2a7 7 0 00-.7.6 7.8 7.8 0 00-.7.6l-.4.4-.3.4a8.1 8.1 0 00-.6.8l-.4.8-.4.9-.3.7-.2.7v.5l-.1.3z" fill="#19bc4b"/><path data-name="Контур 467" d="M8.9 19.2l-.1-.5-.3-1.4a16 16 0 00-1.7-4 11.7 11.7 0 00-.6-1 10.3 10.3 0 00-.7-1 9.6 9.6 0 00-.8-.7A8.3 8.3 0 004 10l-.6-.4-.6-.3-.5-.3.5.2.6.3.7.4a8.7 8.7 0 01.9.5 9.9 9.9 0 01.8.7 10.8 10.8 0 01.8 1 12.2 12.2 0 01.8.9 16.7 16.7 0 012 4l.5 1.5v.5z" fill="#19bc4b"/><path data-name="Контур 468" d="M11.2 20h-6l2.4 7.3h7.2l2.4-7.3z" fill="#8cabef"/><rect data-name="Прямоугольник 417" width="13.2" height="1.2" rx=".1" transform="translate(4.6 18.8)" fill="#7a9edd"/></g><g data-name="Сгруппировать 292"><g data-name="Сгруппировать 288"><g data-name="Сгруппировать 286"><g data-name="Сгруппировать 284"><g data-name="Сгруппировать 283"><g data-name="Сгруппировать 273"><g data-name="Сгруппировать 262"><path data-name="Контур 469" d="M108.5 117.5v.2l-2 5.1-1.9 5-2 5.3-1 3-.9 2-1 3H85l1.1-3 2-5 2-5.2 1.8-5 2-5.3 1.8-4.7.2-.4a6.8 6.8 0 014.6-3.9 6.7 6.7 0 011.6-.2 6.5 6.5 0 01.7 0 7.3 7.3 0 011.7.5 6.8 6.8 0 013.8 3.6 6.8 6.8 0 01.2 5z" fill="#423c75"/></g><g data-name="Сгруппировать 263"><path data-name="Контур 470" d="M174.5 141H160l-1-2.8-.9-2.2-1-2.8-2-5.3-2-5-2-5.2v-.2a6.8 6.8 0 01.2-5 6.8 6.8 0 013.8-3.6 7.4 7.4 0 011.8-.4 6.4 6.4 0 01.6 0 6.6 6.6 0 011.6.1 6.9 6.9 0 014.7 4 3.3 3.3 0 01.1.3l1.8 4.7 2 5.3 2 5 2 5.3 1.8 5z" fill="#423c75"/></g><g data-name="Сгруппировать 264"><path data-name="Контур 471" d="M130.5 119.6a8.6 8.6 0 008.6-8.6V87a8.8 8.8 0 00-6.8-8.7 8.6 8.6 0 00-10.3 8.4V111a8.6 8.6 0 008.5 8.6z" fill="#f7b39f"/></g><g data-name="Сгруппировать 265"><path data-name="Контур 472" d="M164.3 116.4a6 6 0 01-.2 1.1 6.3 6.3 0 01-1 2 7 7 0 01-2.3 2.2 5 5 0 00-1.5 1.2 6 6 0 00-1.3 4v11.3c0 1 0 2-.2 2.9h-56c-.2-1-.2-2-.2-3V136v-2.2-.6-5.3-1.2a5.6 5.6 0 00-1.4-3.9 5.6 5.6 0 00-1.5-1.2 6.7 6.7 0 01-1.9-1.6 6.7 6.7 0 01-1.3-2.5 6.8 6.8 0 01.6-5 6.7 6.7 0 011.7-2 14 14 0 012.7-1.9 10.7 10.7 0 013.1-1l15-3.2a.5.5 0 01.1 0l.8-.1 2.5-.4a11 11 0 007.7 4.4 9.8 9.8 0 002.6 0 9.9 9.9 0 001.3-.4 12 12 0 005.5-3.8l1 .2h.7a.6.6 0 01.2.1l14.9 3.2a11 11 0 013.1 1 14.2 14.2 0 012.8 1.8 6.9 6.9 0 011.7 2.1 7 7 0 01.8 4z" fill="#423c75"/></g><g data-name="Сгруппировать 266"><path data-name="Контур 473" d="M111 64.2c.9 4.6-1 8.8-4.4 9.5s-6.8-2.4-7.7-7 1-8.8 4.3-9.5 6.8 2.4 7.7 7z" fill="#f7b39f"/></g><g data-name="Сгруппировать 267"><path data-name="Контур 474" d="M159.7 66.7c1-4.5-1-8.8-4.3-9.5s-6.9 2.5-7.8 7 1 8.8 4.3 9.5 6.8-2.4 7.8-7z" fill="#f7b39f"/></g><g data-name="Сгруппировать 268"><path data-name="Контур 475" d="M101.9 60.5c0-19.6 5-35.4 27.9-35.4s27.9 15.8 27.9 35.4-12.5 35.5-28 35.5S102 80 102 60.5z" fill="#ffbfa6"/></g><g data-name="Сгруппировать 269"><ellipse data-name="Эллипс 104" cx="2.5" cy="3.6" rx="2.5" ry="3.6" fill="#563d47" transform="translate(114.8 62.1)"/></g><g data-name="Сгруппировать 270"><ellipse data-name="Эллипс 105" cx="2.5" cy="3.5" rx="2.5" ry="3.5" fill="#563d47" transform="translate(138 62.3)"/></g><g data-name="Сгруппировать 271"><path data-name="Контур 476" d="M120 56c1.3.3 1.6-.4 1.6-1 0-.8-.3-1.5-1-1.6-.3 0-8-2.3-10.7 1.7-.5.8-1 2.1-.5 2 .4-.2 1.1-1.3 2-1.7 2.6-1.2 6.6 0 8.6.6z" fill="#d97a2a"/></g><g data-name="Сгруппировать 272"><path data-name="Контур 477" d="M137.6 56c-1.2.3-1.6-.4-1.5-1 0-.8.3-1.5 1-1.6.3 0 8-2.3 10.6 1.7.6.8 1.1 2.1.5 2-.4-.2-1-1.3-2-1.7-2.5-1.2-6.5 0-8.6.6z" fill="#d97a2a"/></g></g><g data-name="Сгруппировать 274"><path data-name="Контур 478" d="M156.3 33.6a3.6 3.6 0 00-.5-1.4c-4.4-7.1-13.9-12.4-26.1-11.9-12.3-.5-21.7 4.8-26.2 11.9a3.6 3.6 0 00-.5 1.4c-3.1 6-1.9 13.2-2 18.3a36.4 36.4 0 001.8 9.7c.9-4.6.6-9.3 1.6-14a55.9 55.9 0 013.3-9.9 60.5 60.5 0 0022 3.8 60.5 60.5 0 0022-3.8 55.9 55.9 0 013.2 10c1 4.6.8 9.3 1.6 13.9a36.4 36.4 0 001.8-9.7c0-5.1 1.2-12.2-2-18.3z" fill="#d97a2a"/></g><g data-name="Сгруппировать 275"><path data-name="Контур 479" d="M142.3 107.1l-1.5-.7a2.4 2.4 0 01-.9-.7 18 18 0 01-9.1 2.4 4.3 4.3 0 013.2 1c-4.7.8-10.4 2.3-13.4-3a2.2 2.2 0 01-.6.3l-1.4.7-.5.2c2.4 9.9 5 19.5 7.3 29.2h12.9c2.8-9 5-18.4 7.4-27.7z" fill="#b7b2d4"/></g><g data-name="Сгруппировать 276"><path data-name="Контур 480" d="M127.5 118.3l-3-9.8h11.8l-3 9.8c-1.3 3.4-4.5 3.4-5.8 0z" fill="#9e9bc4"/></g><g data-name="Сгруппировать 277"><path data-name="Контур 481" d="M137 141H122l2.2-9 .8-3.4 1-4.7c2.2-5.4 7-5.7 8.5-.5l.9 6.8.8 6.3z" fill="#9e9bc4"/></g><g data-name="Сгруппировать 278"><path data-name="Контур 482" d="M127.9 141h-9.3c-3-9-9-28.8-9-28.8l9.9-8 .6 2.2 5 22.2 1.7 8z" fill="#7c7aa5"/></g><g data-name="Сгруппировать 279"><path data-name="Контур 483" d="M151.3 112.2l-.3 1c-1.4 4.4-6 20.1-8.7 27.9H133l1-4.6 1.5-6.3 5.3-23.8 1-1.8z" fill="#7c7aa5"/></g><g data-name="Сгруппировать 282"><g data-name="Сгруппировать 280"><path data-name="Контур 484" d="M122 101.8l-3.2 3 6.3 14.5 5.8-11s-8.5-3.4-9-6.5z" fill="#eaeaea"/></g><g data-name="Сгруппировать 281"><path data-name="Контур 485" d="M139.1 101.8l2.9 3-6.3 14.5-5.8-11s8.8-3.4 9.2-6.5z" fill="#eaeaea"/></g></g></g></g><g data-name="Сгруппировать 285"><path data-name="Контур 486" d="M135 58.7a19.7 19.7 0 01-5.5 1.3 19.7 19.7 0 01-5.5-1.3 49.3 49.3 0 00-23.6-.2l.2 4a1.5 1.5 0 011.8 1.2c.4 1.4 1.4 7.3 3.3 9.7 2.4 2.9 7.4 3 10.8 2.8 4.6-.2 7.6-2.2 8.9-5.5s2-6.3 2.8-7.2a1.6 1.6 0 011.3-.5 1.6 1.6 0 011.3.5c.9 1 1.6 3.8 2.9 7.2s4.2 5.3 8.8 5.5c3.4.2 8.5 0 10.8-2.8 1.9-2.4 2.9-8.3 3.3-9.7a1.5 1.5 0 011.8-1.2l.3-4c-7.4-2.3-19.1-1.3-23.7.2zm-33.3 1.7c0-.3.8-.5 1.7-.5s1.6.2 1.6.5-.7.5-1.6.5-1.7-.2-1.7-.5zm21.6 10.3c-1.2 2.2-3.3 3.4-6.4 3.8s-6.8-.2-8.7-1.3c-1.6-1-2.4-4-2.8-5.8s-1-5.8.8-7.1 6.8-1.4 10-1.2c2.4.1 7.6.8 8.6 2.6s-.5 7.1-1.5 9zm30.3-3.3c-.4 1.8-1.2 4.8-2.8 5.8-1.9 1-5.6 1.7-8.7 1.3s-5.2-1.6-6.4-3.8c-1-1.9-2.4-7.2-1.5-9s6.2-2.5 8.7-2.6c3.2-.2 8-.1 9.9 1.2s1.2 5.2.8 7zm2-6.5c-.9 0-1.6-.2-1.6-.5s.7-.5 1.6-.5 1.7.2 1.7.5-.7.5-1.7.5z" fill="#4f4f4f"/></g><path data-name="Контур 487" d="M102 40.4c-2.1-4.9 3.4-13.8 10.7-16.6 5.9-2.2 12.3.1 15.5.8a104.2 104.2 0 0110.3 3c5 1.8 8.1.8 12-3a1.7 1.7 0 012.6.4 10.7 10.7 0 011.6 8.1l5-3.7a1.3 1.3 0 012 .8c.8 5.5 1.3 11.3-2.4 15.9-3.5 4.4-8.5 5.5-14.1 6.7 0 0-19.9 4-41-10a5.8 5.8 0 01-2.2-2.4z" fill="#d97a2a"/></g><g data-name="Сгруппировать 287"><path data-name="Контур 488" d="M130.2 77.2a.6.6 0 00.2 0c2-.7 2.8-1.5 2.9-2.4a2 2 0 00-.8-1.4 7 7 0 01-.7-1 5.8 5.8 0 01-1-2.6.6.6 0 00-.6-.5.6.6 0 00-.6.7 7 7 0 001.2 3.1 8 8 0 00.9 1l.4.7s-.1.5-2 1.2a.6.6 0 00-.4.8.6.6 0 00.5.4z" fill="#eaa494"/></g></g><path data-name="Контур 489" d="M148 84.5a2.7 2.7 0 01-2.8 0 11.9 11.9 0 00-5.1-2.2 21 21 0 00-10.2.3c2.4 0 5.5.2 6.8 1.2 4.6 3.5-6.5 4.1-7 4-.4.1-11.5-.5-6.9-4 1.3-1 4.4-1.2 6.8-1.2a21 21 0 00-10.2-.3 11.9 11.9 0 00-5 2.3 2.7 2.7 0 01-2.9 0 54.7 54.7 0 01-7-9 27 27 0 002.5 8c1.2 2.5 2.8 12.9 19.3 15.4a27.8 27.8 0 006.9 0c16.8-2.5 18.1-13 19.3-15.3a27 27 0 002.4-8.2 54.8 54.8 0 01-6.9 9z" fill="#d97a2a"/><g data-name="Сгруппировать 291"><g data-name="Сгруппировать 290"><g data-name="Сгруппировать 289"><path data-name="Контур 490" d="M129.7 84.8a19.5 19.5 0 01-6-1.2 6.7 6.7 0 006 3.2 6.7 6.7 0 006-3.2 19.5 19.5 0 01-6 1.2z" fill="#eaa494"/><path data-name="Контур 491" d="M130.5 83c5 1 5.2.6 5.2.6l-3-1.6c-2-1.1-3-.4-3-.4s-1-.7-3 .4l-3 1.6s0 .3 5.2-.6a3.6 3.6 0 00.8 0 3.8 3.8 0 00.8 0z" fill="#eaa494"/><path data-name="Контур 492" d="M130.5 83a3.8 3.8 0 01-.8 0 3.6 3.6 0 01-.8 0c-3.8.7-4.8.7-5.1.6l1 .3a21.3 21.3 0 004.9.9 21.3 21.3 0 005-.9l.8-.3c-.3 0-1.4.1-5-.6z" fill="#fff"/></g><path data-name="Контур 493" d="M129.7 84.8a19.5 19.5 0 01-6-1.2 6.7 6.7 0 006 3.2 6.7 6.7 0 006-3.2 19.5 19.5 0 01-6 1.2z" fill="#c91836"/><path data-name="Контур 494" d="M129.7 84.8a19.5 19.5 0 01-6-1.2 6.7 6.7 0 006 3.2 6.7 6.7 0 006-3.2 19.5 19.5 0 01-6 1.2z" fill="#f1f2f2" style="mix-blend-mode:multiply;isolation:isolate"/><path data-name="Контур 495" d="M129.7 84.8a19.5 19.5 0 01-6-1.2 6.7 6.7 0 006 3.2 6.7 6.7 0 006-3.2 19.5 19.5 0 01-6 1.2z" fill="#eaa494"/></g></g></g></g><g data-name="Сгруппировать 323"><g data-name="Сгруппировать 296"><g data-name="Сгруппировать 295"><g data-name="Сгруппировать 294"><path data-name="Прямоугольник 418" fill="#e9f8ff" d="M12 103h67v37.9H12z"/></g></g></g><g data-name="Сгруппировать 319"><g data-name="Сгруппировать 298"><g data-name="Сгруппировать 297"><path data-name="Контур 496" d="M26.7 131h5.5a.6.6 0 00.6-.6V129H32v1.4h-5.3v-1.6H26v1.6a.6.6 0 00.6.7z" fill="#619fd1"/></g><path data-name="Прямоугольник 419" fill="#bee0f7" d="M14.5 107h30.3v22H14.5z"/><path data-name="Прямоугольник 420" fill="#c7d4e2" style="mix-blend-mode:multiply;isolation:isolate" d="M14.5 128h30.3v1H14.5z"/><path data-name="Прямоугольник 421" fill="#c7d4e2" style="mix-blend-mode:multiply;isolation:isolate" d="M14.5 107h30.3v2.1H14.5z"/><path data-name="Прямоугольник 422" fill="#619fd1" d="M14 106.6h31.2v1.7H14z"/></g><g data-name="Сгруппировать 318"><g data-name="Сгруппировать 300"><path data-name="Контур 497" d="M21.3 113.7v2a2.6 2.6 0 00-2.7 2.6 2.6 2.6 0 002.7 2.7 2.6 2.6 0 002.6-2.7 2.6 2.6 0 00-.4-1.5l1.8-.9a4.6 4.6 0 01.6 2.4 4.6 4.6 0 01-4.6 4.7 4.6 4.6 0 01-4.7-4.7 4.6 4.6 0 014.7-4.6z" fill="#63c9be"/><g data-name="Сгруппировать 299"><path data-name="Контур 498" d="M25.6 115.2l-1.8 1a2.6 2.6 0 00-2.1-1.2v-2a4.6 4.6 0 014 2.2z" fill="#f6774c"/></g><path data-name="Контур 499" d="M16.6 118.3a4.6 4.6 0 01.7-2.3H20a2.6 2.6 0 00-1.4 2.3 2.6 2.6 0 002.7 2.7v2a4.6 4.6 0 01-4.7-4.7z" fill="#8489f2"/><path data-name="Контур 500" d="M21.3 113.7v2a2.6 2.6 0 00-2.7 2.6h-2a4.6 4.6 0 014.7-4.6z" fill="#d54d54"/></g><g data-name="Сгруппировать 317"><g data-name="Сгруппировать 314"><g data-name="Сгруппировать 301"><rect data-name="Прямоугольник 423" width="14.8" height="10.1" rx=".1" transform="rotate(-180 21.3 61.5)" fill="#fff"/></g><g data-name="Сгруппировать 302"><path data-name="Контур 501" d="M28.3 113H42a.6.6 0 01.6.5v.9H27.7v-.9a.6.6 0 01.6-.5z" fill="#8489f2"/></g><g data-name="Сгруппировать 313"><g data-name="Сгруппировать 303"><path data-name="Прямоугольник 424" fill="#dfe2e4" d="M28.7 122.1h12.8v.1H28.7z"/></g><g data-name="Сгруппировать 304"><path data-name="Прямоугольник 425" fill="#dfe2e4" d="M28.7 121.3h12.8v.1H28.7z"/></g><g data-name="Сгруппировать 305"><path data-name="Прямоугольник 426" fill="#dfe2e4" d="M28.7 120.6h12.8-12.8z"/></g><g data-name="Сгруппировать 306"><path data-name="Прямоугольник 427" fill="#dfe2e4" d="M28.7 119.8h12.8-12.8z"/></g><g data-name="Сгруппировать 307"><path data-name="Прямоугольник 428" fill="#dfe2e4" d="M28.7 119h12.8v.1H28.7z"/></g><g data-name="Сгруппировать 308"><path data-name="Прямоугольник 429" fill="#dfe2e4" d="M28.7 118.2h12.8v.1H28.7z"/></g><g data-name="Сгруппировать 309"><path data-name="Прямоугольник 430" fill="#dfe2e4" d="M28.7 116.7h12.8-12.8z"/></g><g data-name="Сгруппировать 310"><path data-name="Прямоугольник 431" fill="#dfe2e4" d="M28.7 115.9h12.8v.1H28.7z"/></g><g data-name="Сгруппировать 311"><path data-name="Прямоугольник 432" fill="#dfe2e4" d="M28.7 115.1h12.8v.1H28.7z"/></g><g data-name="Сгруппировать 312"><path data-name="Прямоугольник 433" fill="#dfe2e4" d="M28.7 117.5h12.8-12.8z"/></g></g></g><g data-name="Сгруппировать 316"><g data-name="Сгруппировать 315"><path data-name="Прямоугольник 434" fill="#63c9be" d="M30.6 122.1h-1.2v-7.4h1.2z"/><path data-name="Прямоугольник 435" fill="#d84774" d="M34.7 122.1h-1.2v-4h1.2z"/><path data-name="Прямоугольник 436" fill="#16d8d8" d="M36.8 122.1h-1.2v-2.6h1.2z"/><path data-name="Прямоугольник 437" fill="#8484ee" d="M38.8 122.1h-1.2v-1.7h1.2z"/><path data-name="Прямоугольник 438" fill="#f37148" d="M41 122.1h-1.3V121H41z"/><path data-name="Прямоугольник 439" fill="#feaa26" d="M32.7 122.1h-1.2v-5.5h1.2z"/></g></g></g></g></g><g data-name="Сгруппировать 322" transform="translate(62.5 105)"><g data-name="Сгруппировать 321"><path data-name="Прямоугольник 440" fill="#fff" d="M16.4 33.8H0V0h16.4z"/><g data-name="Сгруппировать 320"><path data-name="Прямоугольник 441" fill="#7ed2f6" d="M16.4 32.6H1.2V1.1h15.2z"/><path data-name="Контур 502" d="M1.2 16.7v16h15.2v-5.1h-.8v-7h-3V18H10v4.8H6.8v2.5H4.9v-8.5z" fill="#57c0e5"/></g><path data-name="Прямоугольник 442" fill="#fff" d="M16.4 2.5H1.2V2h15.2z"/><path data-name="Прямоугольник 443" fill="#fff" d="M16.4 4.1H1.2v-.6h15.2z"/><path data-name="Прямоугольник 444" fill="#fff" d="M16.4 5.7H1.2V5h15.2z"/><path data-name="Прямоугольник 445" fill="#fff" d="M16.4 7.2H1.2v-.6h15.2z"/><path data-name="Прямоугольник 446" fill="#fff" d="M16.4 8.8H1.2v-.6h15.2z"/><path data-name="Прямоугольник 447" fill="#fff" d="M16.4 10.4H1.2v-.6h15.2z"/><path data-name="Прямоугольник 448" fill="#fff" d="M16.4 12H1.2v-.6h15.2z"/><path data-name="Прямоугольник 449" fill="#fff" d="M16.4 13.5H1.2V13h15.2z"/><path data-name="Прямоугольник 450" fill="#fff" d="M16.4 15H1.2v-.5h15.2z"/><path data-name="Прямоугольник 451" fill="#fff" d="M16.4 16.7H1.2V16h15.2z"/><path data-name="Прямоугольник 452" fill="#fff" d="M16.4 18.2H1.2v-.6h15.2z"/><path data-name="Прямоугольник 453" fill="#fff" d="M16.4 19.8H1.2v-.6h15.2z"/></g><path data-name="Прямоугольник 454" fill="#fff" d="M3.3 0h.3v23.5h-.3z"/><rect data-name="Прямоугольник 455" width=".7" height="2.3" rx=".1" transform="translate(3.2 21.7)" fill="#fff"/></g></g><g data-name="Сгруппировать 348"><g data-name="Сгруппировать 344"><g data-name="Сгруппировать 343"><g data-name="Сгруппировать 341"><g data-name="Сгруппировать 340"><g data-name="Сгруппировать 339"><g data-name="Сгруппировать 335"><g data-name="Сгруппировать 324"><path data-name="Контур 503" d="M38.8 134l-.6 1.6-.5 1.5-.6 1.6-.4.8-.2.6-.3 1h-4.4l.4-1 .5-1.4.6-1.6.6-1.5.6-1.6.5-1.4a2 2 0 011.5-1.2 2 2 0 01.4 0h.2a2.2 2.2 0 01.5 0 2 2 0 011.2 1.1 2 2 0 010 1.5z" fill="#7d98c3"/></g><g data-name="Сгруппировать 325"><path data-name="Контур 504" d="M58.4 141h-4.3l-.4-.9-.2-.6-.3-.8-.6-1.6-.6-1.5-.6-1.5a2 2 0 010-1.6 2 2 0 011.2-1 2.3 2.3 0 01.5-.2h.2a2 2 0 01.5 0 2 2 0 011.4 1.2 1 1 0 010 .1l.5 1.4.6 1.6.6 1.5.6 1.6.6 1.4z" fill="#7d98c3"/></g><g data-name="Сгруппировать 326"><path data-name="Контур 505" d="M45.4 134.6a2.5 2.5 0 002.5-2.5V125a2.6 2.6 0 00-2-2.6 2.5 2.5 0 00-3 2.5v7.2a2.5 2.5 0 002.5 2.5z" fill="#f7b39f"/></g><g data-name="Сгруппировать 327"><path data-name="Контур 506" d="M55.4 133.7a1.7 1.7 0 01-.1.3 1.9 1.9 0 01-.3.6 2 2 0 01-.7.6 1.5 1.5 0 00-.4.4 1.8 1.8 0 00-.4 1.2V141.1H36.8v-1V139.5v-.6-.2-2a1.7 1.7 0 00-.4-1.1 1.7 1.7 0 00-.5-.4 2 2 0 01-.5-.4 2 2 0 01-.4-.8 2 2 0 01.1-1.5 2 2 0 01.6-.6 4 4 0 01.8-.5 3.1 3.1 0 01.9-.3l4.4-1h.3l.7-.1a3.3 3.3 0 002.3 1.3 2.9 2.9 0 00.8 0 3 3 0 00.4-.1 3.6 3.6 0 001.6-1.2h.3l.2.1 4.5 1a3.3 3.3 0 011 .3 4.2 4.2 0 01.7.5 2 2 0 01.5.6 2 2 0 01.3 1.2z" fill="#7d98c3"/></g><g data-name="Сгруппировать 328"><path data-name="Контур 507" d="M39.5 118.2c.3 1.4-.3 2.6-1.2 2.8s-2-.7-2.4-2 .3-2.7 1.3-2.9 2 .8 2.3 2.1z" fill="#f7b39f"/></g><g data-name="Сгруппировать 329"><path data-name="Контур 508" d="M54 119c.3-1.4-.3-2.7-1.3-2.9s-2 .8-2.3 2.1.3 2.6 1.3 2.8 2-.7 2.3-2z" fill="#f7b39f"/></g><g data-name="Сгруппировать 330"><path data-name="Контур 509" d="M36.8 117.1c0-5.8 1.5-10.5 8.3-10.5s8.3 4.7 8.3 10.5-3.7 10.5-8.3 10.5-8.3-4.7-8.3-10.5z" fill="#ffbfa6"/></g><g data-name="Сгруппировать 331"><ellipse data-name="Эллипс 106" cx=".7" cy="1.1" rx=".7" ry="1.1" fill="#563d47" transform="translate(40.7 117.6)"/></g><g data-name="Сгруппировать 332"><ellipse data-name="Эллипс 107" cx=".7" cy="1.1" rx=".7" ry="1.1" fill="#563d47" transform="translate(47.5 117.6)"/></g><g data-name="Сгруппировать 333"><path data-name="Контур 510" d="M42.2 115.8c.4 0 .5-.1.5-.3 0-.3-.1-.5-.3-.5-.1 0-2.4-.7-3.2.5-.1.3-.3.6-.1.6.1 0 .3-.4.6-.5a4.3 4.3 0 012.5.2z" fill="#3a4245"/></g><g data-name="Сгруппировать 334"><path data-name="Контур 511" d="M47.5 115.8c-.4 0-.5-.1-.5-.3 0-.3 0-.5.3-.5 0 0 2.3-.7 3.1.5.2.3.4.6.2.6-.1 0-.3-.4-.6-.5a4.3 4.3 0 00-2.5.2z" fill="#3a4245"/></g></g><g data-name="Сгруппировать 338"><g data-name="Сгруппировать 336"><path data-name="Контур 512" d="M42.8 129.7l-1 .7 2 3.2 1.7-2.4s-2.6-.8-2.7-1.5z" fill="#5f7699"/></g><g data-name="Сгруппировать 337"><path data-name="Контур 513" d="M47.9 129.7l.8.7-1.8 3.2-1.7-2.4s2.6-.8 2.7-1.5z" fill="#5f7699"/></g></g><path data-name="Прямоугольник 456" fill="#5f7699" d="M44.9 131.2h.8v4.7h-.8z"/></g></g><path data-name="Контур 514" d="M53 110.4a1.1 1.1 0 000-.4c-1.4-2.2-4.3-3.8-8-3.6-3.7-.2-6.5 1.4-7.8 3.6a1.1 1.1 0 00-.2.4c-1 1.8-.6 4-.6 5.5a11 11 0 00.5 3c.3-1.4.2-2.9.5-4.3a16.9 16.9 0 011-3 18.3 18.3 0 006.6 1.2 18.3 18.3 0 006.7-1.2 16.9 16.9 0 011 3c.3 1.4.2 2.9.4 4.2a11 11 0 00.6-2.9c0-1.5.3-3.7-.6-5.5z" fill="#3a4245"/></g><g data-name="Сгруппировать 342"><path data-name="Контур 515" d="M44.6 121.6a.2.2 0 01-.1 0c-.5-.2-.8-.4-.8-.7a.6.6 0 01.2-.4 2 2 0 00.2-.2 1.7 1.7 0 00.3-.8.2.2 0 01.2-.2.2.2 0 01.1.2 2 2 0 01-.3 1 2.3 2.3 0 01-.2.3l-.2.1s0 .2.6.4a.2.2 0 01.1.2.2.2 0 01-.1.1z" fill="#eaa494"/></g></g><path data-name="Контур 516" d="M46.5 106.4c2.4 1.1 3 2 4 1a.5.5 0 01.8.2c1.4 5.1-4.7 8.2-11.3 4.8-3.2-1.6.2-9 6.5-6z" fill="#3a4245"/><path data-name="Контур 517" d="M53.4 116.7h-1.6a5 5 0 00-2.2-.4c-1.6 0-2.8.3-3.3.9a2.5 2.5 0 00-1.2-.3 2.5 2.5 0 00-1.1.3c-.6-.6-1.7-1-3.4-1a5 5 0 00-2.2.5h-1.6v1.1l.5.2a2.4 2.4 0 000 .6c0 1.4.3 3.2 3.3 3.2 2.7 0 3.5-1.6 3.8-3.1a1.8 1.8 0 000-.7 1.4 1.4 0 01.7-.2 1.3 1.3 0 01.7.2 1.8 1.8 0 000 .7c.4 1.5 1.1 3 3.8 3 3 0 3.4-1.7 3.4-3.1a2.4 2.4 0 000-.6l.4-.2zm-9.6 1.8c-.3 1.6-1 2.7-3.2 2.7-2.4 0-2.7-1.2-2.7-2.6 0-.4 0-1.7 2.7-1.7 2 0 2.7.4 3 .7a1 1 0 01.2 1zm5.8 2.7c-2.1 0-2.8-1-3.2-2.7a1 1 0 01.2-.9c.3-.3 1-.7 3-.7 2.8 0 2.8 1.3 2.8 1.7 0 1.4-.3 2.6-2.8 2.6z" fill="#32303a"/></g><g data-name="Сгруппировать 347"><g data-name="Сгруппировать 346"><g data-name="Сгруппировать 345"><path data-name="Контур 518" d="M45.2 124.2a6 6 0 01-1.9-.4 2 2 0 001.9 1 2 2 0 001.8-1 6 6 0 01-1.8.4z" fill="#eaa494"/><path data-name="Контур 519" d="M45.4 123.7c1.5.3 1.6.1 1.6.1l-.9-.4c-.6-.4-1-.2-1-.2s-.3-.2-.9.2l-.9.4 1.6-.1a1 1 0 00.3 0 1.1 1.1 0 00.2 0z" fill="#eaa494"/><path data-name="Контур 520" d="M45.4 123.7a1.1 1.1 0 01-.2 0 1 1 0 01-.3 0 6.8 6.8 0 01-1.5.1l.3.1a6.5 6.5 0 001.5.3 6.5 6.5 0 001.5-.3h.2a5.3 5.3 0 01-1.5-.2z" fill="#fff"/></g><path data-name="Контур 521" d="M45.2 124.2a6 6 0 01-1.9-.4 2 2 0 001.9 1 2 2 0 001.8-1 6 6 0 01-1.8.4z" fill="#c91836"/><path data-name="Контур 522" d="M45.2 124.2a6 6 0 01-1.9-.4 2 2 0 001.9 1 2 2 0 001.8-1 6 6 0 01-1.8.4z" fill="#f1f2f2" style="mix-blend-mode:multiply;isolation:isolate"/><path data-name="Контур 523" d="M45.2 124.2a6 6 0 01-1.9-.4 2 2 0 001.9 1 2 2 0 001.8-1 6 6 0 01-1.8.4z" fill="#eaa494"/></g></g></g><g data-name="Сгруппировать 74"><g data-name="Сгруппировать 67"><g data-name="Сгруппировать 54" transform="translate(199 7.4)"><path data-name="Прямоугольник 85" fill="#efefef" d="M0 0h53v133.5H0z"/><path data-name="Прямоугольник 86" fill="#0097a7" d="M0 0h53v6.8H0z"/><path data-name="Прямоугольник 87" fill="#4b4c4c" opacity=".3" style="isolation:isolate" d="M17.4 27.5h29.4v2.9H17.4z"/><path data-name="Прямоугольник 88" fill="#9b9e9e" opacity=".3" style="isolation:isolate" d="M17.4 31.8h24v1.4h-24z"/><circle data-name="Эллипс 53" cx="3.6" cy="3.6" r="3.6" transform="translate(6.3 26.5)" fill="#9b9e9e" opacity=".3" style="isolation:isolate"/><g data-name="Сгруппировать 47" transform="translate(6.3 40.5)" opacity=".3"><path data-name="Прямоугольник 89" fill="#4b4c4c" d="M11 1h29.5v2.9H11z"/><path data-name="Прямоугольник 90" fill="#9b9e9e" d="M11 5.3h24.2v1.4H11z"/><circle data-name="Эллипс 54" cx="3.6" cy="3.6" r="3.6" fill="#9b9e9e"/></g><g data-name="Сгруппировать 48" transform="translate(6.3 56)" opacity=".3"><path data-name="Прямоугольник 91" fill="#4b4c4c" d="M11 1h29.5v2.9H11z"/><path data-name="Прямоугольник 92" fill="#9b9e9e" d="M11 5.3h24.2v1.4H11z"/><circle data-name="Эллипс 55" cx="3.6" cy="3.6" r="3.6" fill="#9b9e9e"/></g><g data-name="Сгруппировать 49" transform="translate(6.3 71.3)" opacity=".3"><path data-name="Прямоугольник 93" fill="#4b4c4c" d="M11 1h29.5v2.9H11z"/><path data-name="Прямоугольник 94" fill="#9b9e9e" d="M11 5.3h24.2v1.4H11z"/><circle data-name="Эллипс 56" cx="3.6" cy="3.6" r="3.6" fill="#9b9e9e"/></g><g data-name="Сгруппировать 50" transform="translate(6.3 11.6)" opacity=".3"><path data-name="Прямоугольник 95" fill="#4b4c4c" d="M11 1h29.5v2.9H11z"/><path data-name="Прямоугольник 96" fill="#9b9e9e" d="M11 5.3h24.2v1.4H11z"/><circle data-name="Эллипс 57" cx="3.6" cy="3.6" r="3.6" fill="#9b9e9e"/></g><g data-name="Сгруппировать 51" transform="translate(6.3 85.8)" opacity=".3"><path data-name="Прямоугольник 97" fill="#4b4c4c" d="M11 1h29.5v2.9H11z"/><path data-name="Прямоугольник 98" fill="#9b9e9e" d="M11 5.3h24.2v1.4H11z"/><circle data-name="Эллипс 58" cx="3.6" cy="3.6" r="3.6" fill="#9b9e9e"/></g><g data-name="Сгруппировать 52" transform="translate(6.3 101.7)" opacity=".3"><path data-name="Прямоугольник 99" fill="#4b4c4c" d="M11 1h29.5v2.9H11z"/><path data-name="Прямоугольник 100" fill="#9b9e9e" d="M11 5.3h24.2v1.4H11z"/><circle data-name="Эллипс 59" cx="3.6" cy="3.6" r="3.6" fill="#9b9e9e"/></g><g data-name="Сгруппировать 53" transform="translate(6.3 119)" opacity=".3"><path data-name="Прямоугольник 101" fill="#4b4c4c" d="M11 1h29.5v2.9H11z"/><path data-name="Прямоугольник 102" fill="#9b9e9e" d="M11 5.3h24.2v1.4H11z"/><circle data-name="Эллипс 60" cx="3.6" cy="3.6" r="3.6" fill="#9b9e9e"/></g></g></g></g><path data-name="Прямоугольник 81" fill="#343f46" d="M24.4 154.8h3.8v1.3h-3.8z"/><path data-name="Прямоугольник 82" fill="#343f46" d="M32.7 154.8h3.8v1.3h-3.8z"/><path data-name="Прямоугольник 457" fill="#0097a7" d="M12 97.6h67v5.4H12z"/></g><g data-name="Сгруппировать 516"><g data-name="Сгруппировать 37"><rect data-name="Прямоугольник 78" width="131.8" height="9.7" rx="4.8" fill="#343f46" transform="translate(220.1 313.8)"/></g><g data-name="Сгруппировать 38"><path data-name="Прямоугольник 79" fill="#343f46" d="M270.6 231.2h30.7v91.2h-30.7z"/></g><path data-name="Контур 39" d="M301.3 293.4l-30.7 8.2v-17h30.7z" fill="#293135"/><g data-name="Сгруппировать 43"><rect data-name="Прямоугольник 83" width="265.2" height="163.4" rx="7.6" fill="#343f46" transform="translate(153 124.6)"/></g><g data-name="Сгруппировать 402"><g data-name="Сгруппировать 376"><g data-name="Сгруппировать 352"><g data-name="Сгруппировать 351"><g data-name="Сгруппировать 350"><path data-name="Прямоугольник 458" fill="#e9f8ff" d="M159.3 131h252.3v142.9H159.3z"/></g></g></g><g data-name="Сгруппировать 375"><g data-name="Сгруппировать 354"><g data-name="Сгруппировать 353"><path data-name="Контур 524" d="M214.8 236.8h20.8a2.3 2.3 0 002.1-2.4V229h-2.4v5.3H215v-6h-2.5v6.1a2.3 2.3 0 002.2 2.4z" fill="#619fd1"/></g><path data-name="Прямоугольник 459" fill="#bee0f7" d="M168.7 145.9h114v83.4h-114z"/><path data-name="Прямоугольник 460" fill="#c7d4e2" style="mix-blend-mode:multiply;isolation:isolate" d="M168.7 225h114v4.2h-114z"/><path data-name="Прямоугольник 461" fill="#c7d4e2" style="mix-blend-mode:multiply;isolation:isolate" d="M168.7 145.9h114v8.3h-114z"/><path data-name="Прямоугольник 462" fill="#619fd1" d="M167 144.5h117.5v6.6H167z"/></g><g data-name="Сгруппировать 374"><g data-name="Сгруппировать 356"><path data-name="Контур 525" d="M194.4 171.4v7.5a10 10 0 00-10 10 10 10 0 0010 10 10 10 0 0010-10 10 10 0 00-1.8-5.7l6.7-3.4a17.4 17.4 0 012.5 9 17.5 17.5 0 01-17.4 17.5 17.5 17.5 0 01-17.5-17.5 17.5 17.5 0 0117.5-17.4z" fill="#63c9be"/><g data-name="Сгруппировать 355"><path data-name="Контур 526" d="M210.8 177.1l-6.7 3.4a10 10 0 00-8.2-4.3v-7.5a17.5 17.5 0 0115 8.4z" fill="#f6774c"/></g><path data-name="Контур 527" d="M177 188.8a17.4 17.4 0 012.3-8.7h10.3a10 10 0 00-5.2 8.7 10 10 0 0010 10v7.5a17.5 17.5 0 01-17.5-17.5z" fill="#8489f2"/><path data-name="Контур 528" d="M194.4 171.4v7.5a10 10 0 00-10 10h-7.5a17.5 17.5 0 0117.5-17.5z" fill="#d54d54"/></g><g data-name="Сгруппировать 373"><g data-name="Сгруппировать 370"><g data-name="Сгруппировать 357"><rect data-name="Прямоугольник 463" width="55.9" height="38" rx=".6" transform="rotate(-180 137.3 103.3)" fill="#fff"/></g><g data-name="Сгруппировать 358"><path data-name="Контур 529" d="M220.8 168.6h51.6a2.1 2.1 0 012.1 2v3.2h-55.8v-3.1a2.1 2.1 0 012-2.1z" fill="#8489f2"/></g><g data-name="Сгруппировать 369"><g data-name="Сгруппировать 359"><path data-name="Прямоугольник 464" fill="#dfe2e4" d="M222.5 203h48.2v.3h-48.2z"/></g><g data-name="Сгруппировать 360"><path data-name="Прямоугольник 465" fill="#dfe2e4" d="M222.5 200.1h48.2v.3h-48.2z"/></g><g data-name="Сгруппировать 361"><path data-name="Прямоугольник 466" fill="#dfe2e4" d="M222.5 197.2h48.2v.3h-48.2z"/></g><g data-name="Сгруппировать 362"><path data-name="Прямоугольник 467" fill="#dfe2e4" d="M222.5 194.3h48.2v.3h-48.2z"/></g><g data-name="Сгруппировать 363"><path data-name="Прямоугольник 468" fill="#dfe2e4" d="M222.5 191.3h48.2v.3h-48.2z"/></g><g data-name="Сгруппировать 364"><path data-name="Прямоугольник 469" fill="#dfe2e4" d="M222.5 188.4h48.2v.3h-48.2z"/></g><g data-name="Сгруппировать 365"><path data-name="Прямоугольник 470" fill="#dfe2e4" d="M222.5 182.6h48.2v.3h-48.2z"/></g><g data-name="Сгруппировать 366"><path data-name="Прямоугольник 471" fill="#dfe2e4" d="M222.5 179.7h48.2v.3h-48.2z"/></g><g data-name="Сгруппировать 367"><path data-name="Прямоугольник 472" fill="#dfe2e4" d="M222.5 176.8h48.2v.3h-48.2z"/></g><g data-name="Сгруппировать 368"><path data-name="Прямоугольник 473" fill="#dfe2e4" d="M222.5 185.5h48.2v.3h-48.2z"/></g></g></g><g data-name="Сгруппировать 372"><g data-name="Сгруппировать 371"><path data-name="Прямоугольник 474" fill="#63c9be" d="M229.5 203h-4.6v-28h4.6z"/><path data-name="Прямоугольник 475" fill="#d84774" d="M245 203h-4.6v-14.9h4.6z"/><path data-name="Прямоугольник 476" fill="#16d8d8" d="M252.8 203h-4.6v-9.9h4.6z"/><path data-name="Прямоугольник 477" fill="#8484ee" d="M260.5 203H256v-6.4h4.6z"/><path data-name="Прямоугольник 478" fill="#f37148" d="M268.3 203h-4.6v-4.3h4.6z"/><path data-name="Прямоугольник 479" fill="#feaa26" d="M237.2 203h-4.6v-20.8h4.6z"/></g></g></g></g></g></g><g data-name="Сгруппировать 401"><g data-name="Сгруппировать 397"><g data-name="Сгруппировать 396"><g data-name="Сгруппировать 394"><g data-name="Сгруппировать 393"><g data-name="Сгруппировать 392"><g data-name="Сгруппировать 388"><g data-name="Сгруппировать 377"><path data-name="Контур 530" d="M260.4 248v.1l-2.2 5.8-2.1 5.6-2.3 5.9-1.2 3.2-.9 2.4-1.2 3.2h-16.3l1.2-3.2 2.1-5.6 2.3-6 2.1-5.5 2.2-6 2-5.2.2-.4a7.6 7.6 0 015.2-4.3 7.4 7.4 0 011.8-.2 7.5 7.5 0 01.7 0 8.2 8.2 0 012 .5 7.6 7.6 0 014.2 4 7.6 7.6 0 01.2 5.6z" fill="#7d98c3"/></g><g data-name="Сгруппировать 378"><path data-name="Контур 531" d="M334.2 274.2h-16.3l-1.3-3.2-.9-2.5-1.2-3.1-2.2-6-2.2-5.5-2.1-5.8v-.2a7.6 7.6 0 01.1-5.6 7.6 7.6 0 014.3-4 8.3 8.3 0 012-.5 7.4 7.4 0 01.7 0 7.3 7.3 0 011.7.2 7.7 7.7 0 015.3 4.3l.1.4 2 5.2 2.2 6 2.2 5.5 2.2 6 2.1 5.6z" fill="#7d98c3"/></g><g data-name="Сгруппировать 379"><path data-name="Контур 532" d="M285 250.2a9.6 9.6 0 009.6-9.6v-26.8a9.8 9.8 0 00-7.6-9.7 9.6 9.6 0 00-11.5 9.3v27.3a9.6 9.6 0 009.5 9.5z" fill="#f7b39f"/></g><g data-name="Сгруппировать 380"><path data-name="Контур 533" d="M322.7 246.7a6.6 6.6 0 01-.2 1.2 7 7 0 01-1.1 2.3 7.8 7.8 0 01-2.6 2.3 5.7 5.7 0 00-1.6 1.4 6.8 6.8 0 00-1.5 4.5V271c0 1 0 2.2-.2 3.3h-62.7l-.2-3.3v-2.4-2.5-.7-6-1.2a6.2 6.2 0 00-1.5-4.3 6.3 6.3 0 00-1.6-1.4 7.5 7.5 0 01-2.1-1.8 7.5 7.5 0 01-1.5-2.8 7.6 7.6 0 01.6-5.6 7.4 7.4 0 012-2.3 15.5 15.5 0 013-2 12 12 0 013.4-1.1l16.8-3.6a.7.7 0 01.1 0l.8-.2 2.9-.5a12.2 12.2 0 008.6 5 11 11 0 003 0 11 11 0 001.3-.4 13.4 13.4 0 006.1-4.3h.1l1.1.2.8.1a.8.8 0 01.2 0l16.7 3.6a12.4 12.4 0 013.4 1.2 15.8 15.8 0 013.1 2 7.7 7.7 0 012 2.3 7.8 7.8 0 01.8 4.4z" fill="#7d98c3"/></g><g data-name="Сгруппировать 381"><path data-name="Контур 534" d="M263.1 188.4c1 5-1 9.8-4.8 10.6s-7.6-2.7-8.7-7.8 1.1-9.9 4.8-10.7 7.6 2.8 8.7 7.8z" fill="#f7b39f"/></g><g data-name="Сгруппировать 382"><path data-name="Контур 535" d="M317.6 191.2c1-5.1-1.1-9.9-4.8-10.6s-7.7 2.7-8.7 7.8 1 9.8 4.8 10.6 7.6-2.7 8.7-7.8z" fill="#f7b39f"/></g><g data-name="Сгруппировать 383"><path data-name="Контур 536" d="M253 184.2c0-21.9 5.6-39.6 31.2-39.6s31.1 17.7 31.1 39.6-14 39.7-31.1 39.7S253 206 253 184.2z" fill="#ffbfa6"/></g><g data-name="Сгруппировать 384"><ellipse data-name="Эллипс 108" cx="2.8" cy="4" rx="2.8" ry="4" fill="#563d47" transform="translate(267.4 186)"/></g><g data-name="Сгруппировать 385"><ellipse data-name="Эллипс 109" cx="2.8" cy="4" rx="2.8" ry="4" fill="#563d47" transform="translate(293.3 186.2)"/></g><g data-name="Сгруппировать 386"><path data-name="Контур 537" d="M273.3 179.2c1.4.3 1.8-.5 1.7-1.2 0-.8-.3-1.6-1.1-1.7-.4-.1-8.9-2.5-11.9 2-.6.8-1.2 2.2-.6 2 .5-.1 1.3-1.3 2.3-1.8 2.8-1.3 7.3 0 9.6.7z" fill="#3a4245"/></g><g data-name="Сгруппировать 387"><path data-name="Контур 538" d="M293 179.2c-1.4.3-1.8-.5-1.8-1.2 0-.8.4-1.6 1.2-1.7.3-.1 8.8-2.5 11.8 2 .6.8 1.3 2.2.6 2-.5-.1-1.2-1.3-2.2-1.8-2.9-1.3-7.3 0-9.7.7z" fill="#3a4245"/></g></g><g data-name="Сгруппировать 391"><g data-name="Сгруппировать 389"><path data-name="Контур 539" d="M275.5 231.8l-3.5 2.6 7 12 6.5-9.2s-9.6-2.8-10-5.4z" fill="#5f7699"/></g><g data-name="Сгруппировать 390"><path data-name="Контур 540" d="M294.6 231.8l3.2 2.6-7 12-6.5-9.2s9.9-2.8 10.3-5.4z" fill="#5f7699"/></g></g><path data-name="Прямоугольник 480" fill="#5f7699" d="M283.3 237.3h3.1v17.9h-3z"/></g></g><path data-name="Контур 541" d="M314.1 159a4.1 4.1 0 00-.5-1.6c-5-8.2-15.8-14.1-29.7-13.6-14-.5-24.7 5.4-29.7 13.6a4.1 4.1 0 00-.6 1.5c-3.6 7-2.2 15-2.3 20.9a41.4 41.4 0 002 11c1-5.3.7-10.6 1.9-16a63.5 63.5 0 013.7-11.2 68.8 68.8 0 0025 4.4 68.8 68.8 0 0025-4.4 63.5 63.5 0 013.7 11.3c1.2 5.3.8 10.6 1.8 15.9a41.4 41.4 0 002-11c0-5.9 1.4-14-2.3-20.9z" fill="#3a4245"/></g><g data-name="Сгруппировать 395"><path data-name="Контур 542" d="M282 201.3a.7.7 0 01-.2 0c-2-.8-3-1.6-3-2.6a2.2 2.2 0 01.8-1.6 7.7 7.7 0 00.8-1 6.3 6.3 0 001-3 .7.7 0 01.7-.5.7.7 0 01.6.7 7.7 7.7 0 01-1.2 3.5 8.8 8.8 0 01-1 1.2l-.5.6s.1.6 2.3 1.4a.7.7 0 01.4.8.7.7 0 01-.6.5z" fill="#eaa494"/></g></g><path data-name="Контур 543" d="M289.3 143.8c9.2 4.4 11.7 7.3 15 4.1a1.8 1.8 0 013 .7c5.4 19.2-17.4 30.6-42.6 17.8-11.8-6 1-34 24.6-22.6z" fill="#3a4245"/><path data-name="Контур 544" d="M315.5 182.7h-6a18.6 18.6 0 00-8.4-1.6c-6.2 0-10.5 1.1-12.6 3.4a9.4 9.4 0 00-4.3-1.2 9.4 9.4 0 00-4.3 1.2c-2.2-2.3-6.4-3.4-12.6-3.4a18.6 18.6 0 00-8.3 1.6h-6.1v4.1l2 .7a9.2 9.2 0 00-.3 2.3c0 5.2 1.3 12 12.7 12 10.2 0 12.9-6 14.1-11.8a6.7 6.7 0 00.1-2.5 5.1 5.1 0 012.7-.6 5 5 0 012.7.6 6.7 6.7 0 000 2.5c1.3 5.9 4 11.8 14.2 11.8 11.4 0 12.7-6.8 12.7-12a9.1 9.1 0 00-.3-2.3l2-.7zm-36.3 6.9c-1.3 6-3.8 10-11.9 10-9.2 0-10.5-4.7-10.5-9.8 0-1.6 0-6.6 10.5-6.6 7.2 0 10 1.6 11.2 2.9a3.9 3.9 0 01.7 3.5zm21.9 10c-8 0-10.6-4-12-10a3.9 3.9 0 01.8-3.5c1.1-1.3 4-2.9 11.2-2.9 10.5 0 10.5 5 10.5 6.6 0 5.1-1.3 9.9-10.5 9.9z" fill="#32303a"/></g><g data-name="Сгруппировать 400"><g data-name="Сгруппировать 399"><g data-name="Сгруппировать 398"><path data-name="Контур 545" d="M284.3 211a22.4 22.4 0 01-6.8-1.5 7.7 7.7 0 006.8 3.8 7.7 7.7 0 006.9-3.8 22.4 22.4 0 01-6.9 1.4z" fill="#eaa494"/><path data-name="Контур 546" d="M285.3 208.9c5.6 1.1 5.9.6 5.9.6l-3.3-1.7c-2.4-1.3-3.6-.5-3.6-.5s-1.2-.8-3.5.5l-3.3 1.7s0 .4 6-.6a4.2 4.2 0 00.9 0 4.3 4.3 0 001 0z" fill="#eaa494"/><path data-name="Контур 547" d="M285.3 208.9a4.3 4.3 0 01-1 0 4.2 4.2 0 01-.9 0c-4.3.7-5.5.7-5.8.7l1 .4a24.5 24.5 0 005.7 1 24.5 24.5 0 005.7-1l1-.4c-.4 0-1.6 0-5.7-.7z" fill="#fff"/></g><path data-name="Контур 548" d="M284.3 211a22.4 22.4 0 01-6.8-1.5 7.7 7.7 0 006.8 3.8 7.7 7.7 0 006.9-3.8 22.4 22.4 0 01-6.9 1.4z" fill="#c91836"/><path data-name="Контур 549" d="M284.3 211a22.4 22.4 0 01-6.8-1.5 7.7 7.7 0 006.8 3.8 7.7 7.7 0 006.9-3.8 22.4 22.4 0 01-6.9 1.4z" fill="#f1f2f2" style="mix-blend-mode:multiply;isolation:isolate"/><path data-name="Контур 550" d="M284.3 211a22.4 22.4 0 01-6.8-1.5 7.7 7.7 0 006.8 3.8 7.7 7.7 0 006.9-3.8 22.4 22.4 0 01-6.9 1.4z" fill="#eaa494"/></g></g></g></g><g data-name="Сгруппировать 515"><g data-name="Сгруппировать 404"><g data-name="Сгруппировать 403"><path data-name="Прямоугольник 481" fill="#b4f9f5" d="M159.2 232.4h70.5v42h-70.5z"/></g></g><g data-name="Сгруппировать 431"><g data-name="Сгруппировать 427" transform="translate(203.8 235)"><g data-name="Сгруппировать 426"><g data-name="Сгруппировать 406"><g data-name="Сгруппировать 405"><path data-name="Прямоугольник 482" fill="#5385a0" d="M0 0h21.4v17.9H0z"/></g></g><g data-name="Сгруппировать 408"><g data-name="Сгруппировать 407"><path data-name="Прямоугольник 483" fill="#a1e9ff" d="M.7.6h20v16.7H.7z"/></g></g><g data-name="Сгруппировать 425"><g data-name="Сгруппировать 410"><g data-name="Сгруппировать 409"><path data-name="Контур 551" d="M3.1 17.3L6 9.7l1.6.2 2.2-6.2 1 2 .7-.8 2.6 5 1-.5 3.8 7.9z" fill="#5385a0"/></g></g><g data-name="Сгруппировать 412"><g data-name="Сгруппировать 411"><path data-name="Контур 552" d="M9.7 8.7v-5l-2.2 6.4z" fill="#5385a0"/></g></g><g data-name="Сгруппировать 414"><g data-name="Сгруппировать 413"><path data-name="Контур 553" d="M6.5 13.9l-.6-4.2L3.6 16z" fill="#5385a0"/></g></g><g data-name="Сгруппировать 416"><g data-name="Сгруппировать 415"><path data-name="Контур 554" d="M11.2 12l-.1-1.5-.4.4z" fill="#195c8f"/></g></g><g data-name="Сгруппировать 418"><g data-name="Сгруппировать 417"><path data-name="Контур 555" d="M8.3 13l-.8-3-1.6-.3z" fill="#40749b"/></g></g><g data-name="Сгруппировать 420"><g data-name="Сгруппировать 419"><path data-name="Контур 556" d="M10 10v2.2l1.1 4 1.6-3.4L11 8.6l-.4 3.3z" fill="#40749b"/></g></g><g data-name="Сгруппировать 422"><g data-name="Сгруппировать 421"><path data-name="Контур 557" d="M16 14.3l-1-5-1 .6z" fill="#40749b"/></g></g><g data-name="Сгруппировать 424"><g data-name="Сгруппировать 423"><path data-name="Контур 558" d="M19.2 4A1 1 0 0018 3a1 1 0 00-.6.2 1.2 1.2 0 00-1.2-.9 1.3 1.3 0 00-1.2 1 .9.9 0 00-.4-.2 1 1 0 00-1 .6.9.9 0 00-.3 0 1 1 0 00-1 1c0 .5.5 1 1 1h5.8a.8.8 0 001-.8 1 1 0 00-1-1z" fill="#e1fbff"/></g></g></g></g><circle data-name="Эллипс 110" cx="1.2" cy="1.2" r="1.2" transform="translate(3 4.2)" fill="#ffdeb6"/></g><g data-name="Сгруппировать 430"><g data-name="Сгруппировать 429"><g data-name="Сгруппировать 428"><path data-name="Контур 559" d="M214.4 241.7a1.2 1.2 0 01-1 1.1H207c-.5 0-1-.3-1-.8a1 1 0 011-1 1.2 1.2 0 011.2-1 1.1 1.1 0 01.7.1 1.4 1.4 0 011.3-.8 1.4 1.4 0 011.2 1 1 1 0 01.6-.2 1 1 0 011 .6 1 1 0 01.3 0 1 1 0 011 1z" fill="#e1fbff"/></g></g></g></g><path data-name="Прямоугольник 484" fill="#edd9c0" d="M164 232.4H185v42H164z"/><path data-name="Прямоугольник 485" fill="#ffeedc" d="M165.3 233.6h18.5v18.6h-18.5z"/><path data-name="Прямоугольник 486" fill="#ffeedc" d="M165.3 254.4h18.5V273h-18.5z"/><g data-name="Сгруппировать 471"><path data-name="Контур 560" d="M169.2 273h2l-.6-13.8h-2z" fill="#053c9e"/><path data-name="Прямоугольник 487" fill="#cbe4f7" d="M166.5 257.4h2.2V273h-2.2z"/><path data-name="Прямоугольник 488" fill="#89ccce" d="M171.2 261h2.2v12h-2.2z"/><g data-name="Сгруппировать 444"><g data-name="Сгруппировать 432"><path data-name="Контур 561" d="M183.4 270.6v2h-6.8c-.5 0-1.4-.2-1.4-1.1s1.3-1 1.7-1l6.5.1z" fill="#fff"/></g><g data-name="Сгруппировать 434"><g data-name="Сгруппировать 433"><path data-name="Контур 562" d="M183.6 273h-7c-1 0-1.6-.6-1.6-1.4s.7-1.3 1.7-1.3h6.9v.3h-7c-.6 0-1.3.3-1.3 1s.7 1 1.4 1h6.9z" fill="#bc6600"/></g></g><g data-name="Сгруппировать 435"><path data-name="Прямоугольник 489" fill="#d0d2d3" d="M176.8 270.8h6.6v.1h-6.6z"/></g><g data-name="Сгруппировать 436"><path data-name="Прямоугольник 490" fill="#d0d2d3" d="M176.8 271h6.6v.1h-6.6z"/></g><g data-name="Сгруппировать 437"><path data-name="Прямоугольник 491" fill="#d0d2d3" d="M176.8 271.2h6.6v.1h-6.6z"/></g><g data-name="Сгруппировать 438"><path data-name="Прямоугольник 492" fill="#d0d2d3" d="M176.8 271.4h6.6-6.6z"/></g><g data-name="Сгруппировать 439"><path data-name="Прямоугольник 493" fill="#d0d2d3" d="M176.8 271.6h6.6-6.6z"/></g><g data-name="Сгруппировать 440"><path data-name="Прямоугольник 494" fill="#d0d2d3" d="M176.8 271.8h6.6-6.6z"/></g><g data-name="Сгруппировать 441"><path data-name="Прямоугольник 495" fill="#d0d2d3" d="M176.8 272h6.6-6.6z"/></g><g data-name="Сгруппировать 442"><path data-name="Прямоугольник 496" fill="#d0d2d3" d="M176.8 272.2h6.6-6.6z"/></g><g data-name="Сгруппировать 443"><path data-name="Прямоугольник 497" fill="#d0d2d3" d="M176.8 272.3h6.6v.1h-6.6z"/></g></g><g data-name="Сгруппировать 457"><g data-name="Сгруппировать 445"><path data-name="Контур 563" d="M182.8 265.4v2H176c-.5 0-1.4-.3-1.4-1.2s1.3-1 1.8-1l6.4.2z" fill="#fff"/></g><g data-name="Сгруппировать 447"><g data-name="Сгруппировать 446"><path data-name="Контур 564" d="M183 267.6h-6.9c-1 0-1.7-.5-1.7-1.3s.7-1.3 1.7-1.3h7v.4h-7c-.6 0-1.3.2-1.3 1s.7 1 1.3 1h7z" fill="#966fb5"/></g></g><g data-name="Сгруппировать 448"><path data-name="Прямоугольник 498" fill="#d0d2d3" d="M176.2 265.5h6.6v.1h-6.6z"/></g><g data-name="Сгруппировать 449"><path data-name="Прямоугольник 499" fill="#d0d2d3" d="M176.2 265.7h6.6v.1h-6.6z"/></g><g data-name="Сгруппировать 450"><path data-name="Прямоугольник 500" fill="#d0d2d3" d="M176.2 266h6.6-6.6z"/></g><g data-name="Сгруппировать 451"><path data-name="Прямоугольник 501" fill="#d0d2d3" d="M176.2 266.1h6.6v.1h-6.6z"/></g><g data-name="Сгруппировать 452"><path data-name="Прямоугольник 502" fill="#d0d2d3" d="M176.2 266.3h6.6v.1h-6.6z"/></g><g data-name="Сгруппировать 453"><path data-name="Прямоугольник 503" fill="#d0d2d3" d="M176.2 266.5h6.6v.1h-6.6z"/></g><g data-name="Сгруппировать 454"><path data-name="Прямоугольник 504" fill="#d0d2d3" d="M176.2 266.7h6.6v.1h-6.6z"/></g><g data-name="Сгруппировать 455"><path data-name="Прямоугольник 505" fill="#d0d2d3" d="M176.2 266.9h6.6-6.6z"/></g><g data-name="Сгруппировать 456"><path data-name="Прямоугольник 506" fill="#d0d2d3" d="M176.2 267h6.6v.2h-6.6z"/></g></g><g data-name="Сгруппировать 470"><g data-name="Сгруппировать 458"><path data-name="Контур 565" d="M174 268v2h6.9c.5 0 1.4-.2 1.4-1.1s-1.4-1-1.8-1l-6.5.1z" fill="#fff"/></g><g data-name="Сгруппировать 460"><g data-name="Сгруппировать 459"><path data-name="Контур 566" d="M173.8 270.3h7c1 0 1.6-.5 1.6-1.3s-.6-1.3-1.6-1.3h-7v.3h7c.6 0 1.3.3 1.3 1s-.7 1-1.3 1h-7z" fill="#89ccce"/></g></g><g data-name="Сгруппировать 461"><path data-name="Прямоугольник 507" fill="#d0d2d3" d="M174 268.2h6.6v.1H174z"/></g><g data-name="Сгруппировать 462"><path data-name="Прямоугольник 508" fill="#d0d2d3" d="M174 268.4h6.6-6.6z"/></g><g data-name="Сгруппировать 463"><path data-name="Прямоугольник 509" fill="#d0d2d3" d="M174 268.6h6.6-6.6z"/></g><g data-name="Сгруппировать 464"><path data-name="Прямоугольник 510" fill="#d0d2d3" d="M174 268.8h6.6-6.6z"/></g><g data-name="Сгруппировать 465"><path data-name="Прямоугольник 511" fill="#d0d2d3" d="M174 269h6.6-6.6z"/></g><g data-name="Сгруппировать 466"><path data-name="Прямоугольник 512" fill="#d0d2d3" d="M174 269.2h6.6-6.6z"/></g><g data-name="Сгруппировать 467"><path data-name="Прямоугольник 513" fill="#d0d2d3" d="M174 269.4h6.6-6.6z"/></g><g data-name="Сгруппировать 468"><path data-name="Прямоугольник 514" fill="#d0d2d3" d="M174 269.5h6.6v.1H174z"/></g><g data-name="Сгруппировать 469"><path data-name="Прямоугольник 515" fill="#d0d2d3" d="M174 269.7h6.6v.1H174z"/></g></g></g><g data-name="Сгруппировать 481" transform="translate(166.2 242.7)"><g data-name="Сгруппировать 480"><g data-name="Сгруппировать 473"><g data-name="Сгруппировать 472" transform="translate(2.5 7.4)"><path data-name="Прямоугольник 516" fill="#7fa2ad" d="M1.3 0h.8v2.1h-.8z"/><rect data-name="Прямоугольник 517" width="3.5" height=".3" rx=".2" transform="translate(0 1.9)" fill="#5b858e"/></g></g><g data-name="Сгруппировать 479"><g data-name="Сгруппировать 478"><g data-name="Сгруппировать 475"><g data-name="Сгруппировать 474"><path data-name="Прямоугольник 518" fill="#7fa2ad" d="M1.2.3l.2-.3 6 6-.2.3z"/></g></g><g data-name="Сгруппировать 477"><g data-name="Сгруппировать 476"><path data-name="Контур 567" d="M4.3 7.5a4.3 4.3 0 003-1.3L7 6a4 4 0 01-2.8 1.2A4 4 0 011.5 6a4 4 0 010-5.6L1.3.2a4.3 4.3 0 000 6 4.3 4.3 0 003 1.3z" fill="#7fa2ad"/></g></g></g></g></g><circle data-name="Эллипс 111" cx=".3" cy=".3" r=".3" transform="translate(1.2)" fill="#5b858e"/><circle data-name="Эллипс 112" cx=".3" cy=".3" r=".3" transform="translate(7 5.8)" fill="#5b858e"/></g><g data-name="Сгруппировать 482" transform="translate(165.6 241)"><circle data-name="Эллипс 113" cx="3.6" cy="3.6" r="3.6" transform="rotate(-33 6.6 2)" fill="#29bfed"/><path data-name="Контур 568" d="M4.6 2.2c-.3-.2-1 .3-1 .8s0 1.3.5 1.3.4-.7.6-1 .4-.9 0-1.1z" fill="#8ad607"/><path data-name="Контур 569" d="M6 4.6c-.6 0-.9-.8 0-1.6a1.3 1.3 0 00.4-1.3 3.6 3.6 0 011.8 1.8 3.6 3.6 0 01-.5 3.8 1 1 0 00-.7-.6c-.4-.2-.8-.6-.4-1.2s0-1-.6-1z" fill="#8ad607"/><path data-name="Контур 570" d="M8 7a1.1 1.1 0 01-.2-1.2 1.9 1.9 0 00-.6-1.7.9.9 0 01-.2-1.3.8.8 0 000-.8 3.6 3.6 0 011.2 1.5A3.6 3.6 0 018 7z" fill="#acef29"/><path data-name="Контур 571" d="M2.7 2.2a1.3 1.3 0 01.1 1.2c-.3.7-.5 2.2.6 2.5s2 1 1.4 1.8a2.8 2.8 0 01-.7.7 3.6 3.6 0 01-2.4-2 3.6 3.6 0 011-4.2z" fill="#8ad607"/><path data-name="Контур 572" d="M4.3 2.6c.2.1.1 1.1-.2 1.2s-.2-1.2.2-1.2z" fill="#acef29"/><path data-name="Контур 573" d="M2 2.8a1.6 1.6 0 010 1c-.1 1 0 2.4 1 2.7s1.3 1.1.5 1.5A1.1 1.1 0 013 8a3.6 3.6 0 01-1.4-1.6A3.6 3.6 0 012 2.8z" fill="#acef29"/><path data-name="Контур 574" d="M5 5c.5.1 1 .5.8.8s-1.1.3-1.4-.2.2-.7.6-.6z" fill="#29bfed" opacity=".2" style="mix-blend-mode:multiply;isolation:isolate"/></g><g data-name="Сгруппировать 483" transform="translate(175.4 243.7)"><path data-name="Контур 575" d="M3.4 6V6l-.1-.5a5 5 0 00-.5-1.2 3.3 3.3 0 00-.2-.3 3 3 0 00-.3-.3 3 3 0 00-.2-.3 2.4 2.4 0 00-.2-.1L1.6 3h-.1l-.2-.2.2.1h.2c.2 0 .1.2.2.2a2.8 2.8 0 01.2.2 3.1 3.1 0 01.3.2 3.2 3.2 0 01.3.3 3.8 3.8 0 01.2.3 5.2 5.2 0 01.6 1.2l.2.5V6z" fill="#19bc4b"/><path data-name="Контур 576" d="M3.7 6.1a6.6 6.6 0 01.2-1 8 8 0 01.3-1A7.3 7.3 0 015 2.5l.1-.2.2-.3.3-.2.2-.2.2-.2.2-.1.2-.1a2.2 2.2 0 01.2-.2h.2L7 .8l.3-.1-.3.1-.3.2h-.2l-.2.2-.2.1-.2.2-.2.2-.2.2-.2.2-.2.3-.1.2-.2.3a5.9 5.9 0 00-.5 1 7.8 7.8 0 00-.3 1.1 6.4 6.4 0 00-.1 1z" fill="#19bc4b"/><path data-name="Контур 577" d="M3 6.1v-.2l-.1-.3-.1-.4-.1-.4-.2-.5-.2-.5-.2-.3-.1-.2-.3-.5-.2-.2-.1-.3h-.1L1.2 2 1 2l-.3-.3-.3-.3-.2-.2L0 1l.2.2.3.2.3.3a4.6 4.6 0 01.3.3l.2.2.1.2.2.2a2.7 2.7 0 01.2.2l.3.5.2.2.1.3.3.5.2.5.2.4v.4l.2.3V6z" fill="#19bc4b"/><path data-name="Контур 578" d="M3.6 6.1v-.2l-.1-.3-.1-.4-.1-.4-.2-.5-.2-.5-.1-.2-.2-.3c0-.2-.2-.3-.3-.5a2.7 2.7 0 00-.1-.2L2 2.4v-.1l-.1-.1-.2-.2a4.4 4.4 0 00-.3-.4L1 1.3 1 1.1.7 1l.2.1.2.2.3.3a4.4 4.4 0 01.4.3L2 2l.2.2.1.2a2.8 2.8 0 01.2.2l.4.5.1.2.2.3.2.5.3.5.1.4.1.4.1.3V6z" fill="#19bc4b"/><path data-name="Контур 579" d="M3.1 6.1v-.3l.1-.7a14 14 0 000-2.1A10.4 10.4 0 002.5.9L2.4.5 2.3.2 2 0l.2.2.2.3.1.3.2.5.2.5.2.6v.5a14.4 14.4 0 01.3 2.2v1z" fill="#19bc4b"/><path data-name="Контур 580" d="M3.9 6v-.2l.1-.1v-.3l.2-.2.1-.3.2-.2a2.7 2.7 0 01.2-.3l.2-.1v-.1a2.5 2.5 0 01.3-.2 2.2 2.2 0 01.3-.2h.2l.2-.2H6.2 6l-.2.2h-.2a2.2 2.2 0 00-.2.3 2.6 2.6 0 00-.2.2H5l-.1.2a2.6 2.6 0 00-.2.3l-.2.2v.3l-.2.2V6z" fill="#19bc4b"/><path data-name="Контур 581" d="M3.7 6v-.2-.1l.1-.3.2-.2.1-.3.2-.2a2.7 2.7 0 01.2-.3l.1-.1.1-.1A2.5 2.5 0 015 4a2.2 2.2 0 01.2-.2h.2l.3-.2H6 5.7l-.2.2h-.1-.1a2.2 2.2 0 00-.3.3 2.4 2.4 0 00-.2.2l-.2.2a2.6 2.6 0 00-.2.3l-.1.2-.1.3-.1.2c-.1 0 0 .2 0 .2L4 6V6z" fill="#19bc4b"/><path data-name="Контур 582" d="M2.8 6V6l-.1-.5A5 5 0 002 4.2a3.6 3.6 0 00-.2-.3 3.2 3.2 0 00-.2-.3 3.2 3.2 0 00-.2-.3 2.4 2.4 0 00-.3-.1L1 3H.8l-.1-.2.2.1H1l.3.2a2.6 2.6 0 01.2.2 3.1 3.1 0 01.3.2 3.4 3.4 0 01.3.3 3.8 3.8 0 01.2.3 5.3 5.3 0 01.6 1.2 6 6 0 01.2.7z" fill="#19bc4b"/><path data-name="Контур 583" d="M3.5 6.3H1.6l.8 2.3h2.3l.7-2.3z" fill="#8cabef"/><rect data-name="Прямоугольник 519" width="4.1" height=".4" rx="0" transform="translate(1.5 6)" fill="#7a9edd"/></g><g data-name="Сгруппировать 514"><g data-name="Сгруппировать 510"><g data-name="Сгруппировать 508"><g data-name="Сгруппировать 506"><g data-name="Сгруппировать 505"><g data-name="Сгруппировать 495"><g data-name="Сгруппировать 484"><path data-name="Контур 584" d="M189.6 267l-.6 1.7-.6 1.6-.7 1.6-.3 1-.3.6-.3 1h-4.6l.3-1 .6-1.5.7-1.7.6-1.6.6-1.7.6-1.4a1 1 0 010-.1 2.1 2.1 0 011.5-1.3 2.1 2.1 0 01.5 0 1.9 1.9 0 01.2 0 2.3 2.3 0 01.5.1 2.1 2.1 0 011.2 1.1 2.1 2.1 0 010 1.6z" fill="#423c75"/></g><g data-name="Сгруппировать 485"><path data-name="Контур 585" d="M210.3 274.4h-4.6l-.3-.9-.3-.7-.3-.9-.6-1.6-.6-1.6-.6-1.6a2.1 2.1 0 010-1.6 2.1 2.1 0 011.2-1.2 2.3 2.3 0 01.5-.1 1.9 1.9 0 01.3 0 2.1 2.1 0 01.4 0 2.2 2.2 0 011.5 1.3l.6 1.5.7 1.7.6 1.6.6 1.7.6 1.5z" fill="#423c75"/></g><g data-name="Сгруппировать 486"><path data-name="Контур 586" d="M196.5 267.7a2.7 2.7 0 002.7-2.7v-7.6a2.8 2.8 0 00-2.1-2.7 2.7 2.7 0 00-3.3 2.6v7.7a2.7 2.7 0 002.7 2.7z" fill="#f7b39f"/></g><g data-name="Сгруппировать 487"><path data-name="Контур 587" d="M207.1 266.7a1.8 1.8 0 010 .3 2 2 0 01-.4.7 2.2 2.2 0 01-.7.6 1.6 1.6 0 00-.4.4 2 2 0 00-.5 1.3v4.5h-17.7v-1V273v-.7-.2-2.1a1.8 1.8 0 00-.4-1.2 1.8 1.8 0 00-.5-.4 2.1 2.1 0 01-.6-.5 2.1 2.1 0 01-.4-.8 2.1 2.1 0 01.2-1.5 2.1 2.1 0 01.5-.7 4.3 4.3 0 01.9-.6 3.4 3.4 0 011-.3l4.7-1h.2l.8-.2a3.4 3.4 0 002.5 1.4 3 3 0 00.8 0 3.1 3.1 0 00.4 0 3.8 3.8 0 001.7-1.3h.6a.2.2 0 010 .1l4.7 1a3.5 3.5 0 011 .3 4.4 4.4 0 01.8.6 2.2 2.2 0 01.6.7 2.2 2.2 0 01.2 1.2z" fill="#423c75"/></g><g data-name="Сгруппировать 488"><path data-name="Контур 588" d="M190.3 250.3c.3 1.4-.3 2.7-1.3 3s-2.2-.8-2.5-2.2.3-2.8 1.4-3 2.1.7 2.4 2.2z" fill="#f7b39f"/></g><g data-name="Сгруппировать 489"><path data-name="Контур 589" d="M205.7 251c.3-1.4-.3-2.7-1.4-3s-2.1.8-2.4 2.3.3 2.7 1.3 3 2.2-.8 2.5-2.2z" fill="#f7b39f"/></g><g data-name="Сгруппировать 490"><path data-name="Контур 590" d="M187.5 249.1c0-6.2 1.6-11.1 8.8-11.1s8.7 5 8.7 11.1-3.9 11.2-8.7 11.2-8.8-5-8.8-11.2z" fill="#ffbfa6"/></g><g data-name="Сгруппировать 491"><ellipse data-name="Эллипс 114" cx=".8" cy="1.1" rx=".8" ry="1.1" fill="#563d47" transform="translate(191.5 249.6)"/></g><g data-name="Сгруппировать 492"><ellipse data-name="Эллипс 115" cx=".8" cy="1.1" rx=".8" ry="1.1" fill="#563d47" transform="translate(198.8 249.7)"/></g><g data-name="Сгруппировать 493"><path data-name="Контур 591" d="M193.2 247.7c.4 0 .5-.1.5-.4 0-.2-.1-.4-.3-.4-.1 0-2.5-.7-3.4.5-.1.3-.3.7-.1.6 0 0 .3-.4.6-.5a4.6 4.6 0 012.7.2z" fill="#d97a2a"/></g><g data-name="Сгруппировать 494"><path data-name="Контур 592" d="M198.7 247.7c-.4 0-.5-.1-.5-.4 0-.2.1-.4.4-.4 0 0 2.5-.7 3.3.5.2.3.4.7.2.6-.2 0-.4-.4-.7-.5a4.6 4.6 0 00-2.7.2z" fill="#d97a2a"/></g></g><g data-name="Сгруппировать 496"><path data-name="Контур 593" d="M204.6 240.6a1.1 1.1 0 00-.2-.4c-1.4-2.2-4.3-3.9-8.2-3.7-3.8-.2-6.8 1.5-8.2 3.7a1.2 1.2 0 00-.1.4c-1 2-.7 4.2-.7 5.8a11.4 11.4 0 00.6 3c.3-1.4.2-2.9.5-4.4a17.5 17.5 0 011-3 19 19 0 007 1.1 19 19 0 006.8-1.2 17.6 17.6 0 011 3.1c.4 1.5.3 3 .6 4.4a11.4 11.4 0 00.5-3c0-1.6.4-3.8-.6-5.8z" fill="#d97a2a"/></g><g data-name="Сгруппировать 497"><path data-name="Контур 594" d="M200.2 263.8l-.5-.3a.8.8 0 01-.3-.2 5.7 5.7 0 01-2.8.8 1.3 1.3 0 011 .3c-1.5.2-3.3.7-4.2-1a.7.7 0 01-.2.1l-.5.3h-.1l2.3 9.2h4c1-2.8 1.6-5.8 2.4-8.7z" fill="#b7b2d4"/></g><g data-name="Сгруппировать 498"><path data-name="Контур 595" d="M195.5 267.3l-.9-3.1h3.7l-1 3c-.3 1.2-1.3 1.2-1.8 0z" fill="#9e9bc4"/></g><g data-name="Сгруппировать 499"><path data-name="Контур 596" d="M198.5 274.4h-4.7l.7-2.8.3-1 .3-1.6c.7-1.7 2.2-1.7 2.7-.1l.2 2.1.3 2z" fill="#9e9bc4"/></g><g data-name="Сгруппировать 500"><path data-name="Контур 597" d="M195.7 274.4h-3c-1-2.8-2.8-9-2.8-9l3.1-2.5.2.6 1.6 7 .5 2.5z" fill="#7c7aa5"/></g><g data-name="Сгруппировать 501"><path data-name="Контур 598" d="M203 265.3v.4a385 385 0 01-2.8 8.7h-3l.4-1.4.4-2 1.7-7.5.3-.5z" fill="#7c7aa5"/></g><g data-name="Сгруппировать 504"><g data-name="Сгруппировать 502"><path data-name="Контур 599" d="M193.8 262l-1 1 2 4.6 1.8-3.5s-2.7-1-2.8-2z" fill="#eaeaea"/></g><g data-name="Сгруппировать 503"><path data-name="Контур 600" d="M199.2 262l.9 1-2 4.6-1.8-3.5s2.8-1 2.9-2z" fill="#eaeaea"/></g></g></g></g><g data-name="Сгруппировать 507"><path data-name="Контур 601" d="M197.9 248.5a6.2 6.2 0 01-1.7.4 6.2 6.2 0 01-1.7-.4 15.5 15.5 0 00-7.5 0v1.2a.5.5 0 01.6.4 10.3 10.3 0 001.1 3c.7 1 2.3 1 3.4 1a2.8 2.8 0 002.8-1.8 12.5 12.5 0 01.9-2.3.5.5 0 01.4-.1.5.5 0 01.4.1 12.5 12.5 0 01.9 2.3 2.8 2.8 0 002.8 1.7c1 0 2.6 0 3.4-.9a10.3 10.3 0 001-3 .5.5 0 01.6-.4v-1.2a15.5 15.5 0 00-7.4 0zm-10.5.6l.6-.2c.3 0 .5 0 .5.2s-.3.1-.5.1l-.6-.1zm6.8 3.2a2.4 2.4 0 01-2 1.2 5 5 0 01-2.7-.4c-.5-.3-.8-1.3-1-1.8s-.3-1.9.4-2.3a6.5 6.5 0 013-.3c.8 0 2.5.2 2.8.8s-.2 2.2-.5 2.8zm9.6-1c-.2.5-.4 1.5-1 1.8a5 5 0 01-2.7.4 2.4 2.4 0 01-2-1.2c-.3-.6-.7-2.3-.4-2.8s2-.8 2.7-.9a6.5 6.5 0 013.1.4c.6.4.4 1.7.3 2.3zm.6-2c-.3 0-.5-.1-.5-.2l.5-.2c.3 0 .5 0 .5.2s-.2.1-.5.1z" fill="#4f4f4f"/></g><path data-name="Контур 602" d="M187.5 242.8c-.6-1.5 1-4.4 3.4-5.2 1.8-.7 3.8 0 4.9.2a32.6 32.6 0 013.2 1 3.2 3.2 0 003.8-1 .5.5 0 01.8.1 3.4 3.4 0 01.5 2.6l1.6-1.2a.4.4 0 01.6.3c.2 1.7.4 3.5-.7 5-1.2 1.4-2.7 1.7-4.5 2a18.5 18.5 0 01-12.9-3 1.8 1.8 0 01-.7-.8z" fill="#d97a2a"/></g><g data-name="Сгруппировать 509"><path data-name="Контур 603" d="M196.4 254.4c.7-.3 1-.5 1-.8a.6.6 0 00-.3-.5 2.2 2.2 0 01-.2-.2 1.8 1.8 0 01-.3-.9.2.2 0 00-.2-.1.2.2 0 00-.2.2 2.2 2.2 0 00.4 1 2.5 2.5 0 00.2.3l.2.2s0 .2-.7.4a.2.2 0 000 .2.2.2 0 00.1.2z" fill="#eaa494"/></g></g><path data-name="Контур 604" d="M202 256.7a.8.8 0 01-.9 0 3.7 3.7 0 00-1.6-.7 6.6 6.6 0 00-3.2 0 4.4 4.4 0 012.1.4c1.5 1.1-2 1.3-2.1 1.3-.2 0-3.7-.2-2.2-1.3a4.4 4.4 0 012.1-.4 6.6 6.6 0 00-3.2 0 3.7 3.7 0 00-1.6.7.8.8 0 01-.9 0 17.2 17.2 0 01-2.2-2.9 8.5 8.5 0 00.8 2.6c.4.7.9 4 6 4.8a8.8 8.8 0 002.2 0c5.3-.8 5.7-4 6.1-4.8a8.5 8.5 0 00.8-2.6 17.2 17.2 0 01-2.2 2.9z" fill="#d97a2a"/><g data-name="Сгруппировать 513"><g data-name="Сгруппировать 512"><g data-name="Сгруппировать 511"><path data-name="Контур 605" d="M196.2 256.7a6.1 6.1 0 01-1.9-.3 2.1 2.1 0 002 1 2.1 2.1 0 001.8-1 6.1 6.1 0 01-1.9.3z" fill="#eaa494"/><path data-name="Контур 606" d="M196.5 256.2c1.5.3 1.6.2 1.6.2l-1-.5c-.5-.4-.9-.1-.9-.1s-.3-.3-1 0l-.9.6 1.7-.2a1.1 1.1 0 00.2 0 1.2 1.2 0 00.3 0z" fill="#eaa494"/><path data-name="Контур 607" d="M196.5 256.2a1.2 1.2 0 01-.3 0 1.2 1.2 0 01-.2 0 7 7 0 01-1.6.2h.3a6.7 6.7 0 001.5.3 6.7 6.7 0 001.6-.2l.3-.1a5.5 5.5 0 01-1.6-.2z" fill="#fff"/></g><path data-name="Контур 608" d="M196.2 256.7a6.1 6.1 0 01-1.9-.3 2.1 2.1 0 002 1 2.1 2.1 0 001.8-1 6.1 6.1 0 01-1.9.3z" fill="#c91836"/><path data-name="Контур 609" d="M196.2 256.7a6.1 6.1 0 01-1.9-.3 2.1 2.1 0 002 1 2.1 2.1 0 001.8-1 6.1 6.1 0 01-1.9.3z" fill="#f1f2f2" style="mix-blend-mode:multiply;isolation:isolate"/><path data-name="Контур 610" d="M196.2 256.7a6.1 6.1 0 01-1.9-.3 2.1 2.1 0 002 1 2.1 2.1 0 001.8-1 6.1 6.1 0 01-1.9.3z" fill="#eaa494"/></g></g></g></g><g data-name="Сгруппировать 74"><g data-name="Сгруппировать 67"><g data-name="Сгруппировать 54" transform="translate(355.8 132.5)"><path data-name="Прямоугольник 85" fill="#efefef" d="M0 0h55.7v140.4H0z"/><path data-name="Прямоугольник 86" fill="#0097a7" d="M0 0h55.7v7.1H0z"/><path data-name="Прямоугольник 87" fill="#4b4c4c" opacity=".3" style="isolation:isolate" d="M18.2 28.9h31v3h-31z"/><path data-name="Прямоугольник 88" fill="#9b9e9e" opacity=".3" style="isolation:isolate" d="M18.2 33.4h25.3V35H18.2z"/><circle data-name="Эллипс 53" cx="3.8" cy="3.8" r="3.8" transform="translate(6.6 27.9)" fill="#9b9e9e" opacity=".3" style="isolation:isolate"/><g data-name="Сгруппировать 47" transform="translate(6.6 42.6)" opacity=".3"><path data-name="Прямоугольник 89" fill="#4b4c4c" d="M11.7 1h30.9v3h-31z"/><path data-name="Прямоугольник 90" fill="#9b9e9e" d="M11.7 5.6H37V7H11.7z"/><circle data-name="Эллипс 54" cx="3.8" cy="3.8" r="3.8" fill="#9b9e9e"/></g><g data-name="Сгруппировать 48" transform="translate(6.6 58.8)" opacity=".3"><path data-name="Прямоугольник 91" fill="#4b4c4c" d="M11.7 1h30.9v3h-31z"/><path data-name="Прямоугольник 92" fill="#9b9e9e" d="M11.7 5.6H37V7H11.7z"/><circle data-name="Эллипс 55" cx="3.8" cy="3.8" r="3.8" fill="#9b9e9e"/></g><g data-name="Сгруппировать 49" transform="translate(6.6 75)" opacity=".3"><path data-name="Прямоугольник 93" fill="#4b4c4c" d="M11.7 1h30.9v3h-31z"/><path data-name="Прямоугольник 94" fill="#9b9e9e" d="M11.7 5.6H37V7H11.7z"/><circle data-name="Эллипс 56" cx="3.8" cy="3.8" r="3.8" fill="#9b9e9e"/></g><g data-name="Сгруппировать 50" transform="translate(6.6 12.2)" opacity=".3"><path data-name="Прямоугольник 95" fill="#4b4c4c" d="M11.7 1h30.9v3h-31z"/><path data-name="Прямоугольник 96" fill="#9b9e9e" d="M11.7 5.6H37V7H11.7z"/><circle data-name="Эллипс 57" cx="3.8" cy="3.8" r="3.8" fill="#9b9e9e"/></g><g data-name="Сгруппировать 51" transform="translate(6.6 90.2)" opacity=".3"><path data-name="Прямоугольник 97" fill="#4b4c4c" d="M11.7 1h30.9v3h-31z"/><path data-name="Прямоугольник 98" fill="#9b9e9e" d="M11.7 5.6H37V7H11.7z"/><circle data-name="Эллипс 58" cx="3.8" cy="3.8" r="3.8" fill="#9b9e9e"/></g><g data-name="Сгруппировать 52" transform="translate(6.6 107)" opacity=".3"><path data-name="Прямоугольник 99" fill="#4b4c4c" d="M11.7 1h30.9v3h-31z"/><path data-name="Прямоугольник 100" fill="#9b9e9e" d="M11.7 5.6H37V7H11.7z"/><circle data-name="Эллипс 59" cx="3.8" cy="3.8" r="3.8" fill="#9b9e9e"/></g><g data-name="Сгруппировать 53" transform="translate(6.6 125.2)" opacity=".3"><path data-name="Прямоугольник 101" fill="#4b4c4c" d="M11.7 1h30.9v3h-31z"/><path data-name="Прямоугольник 102" fill="#9b9e9e" d="M11.7 5.6H37V7H11.7z"/><circle data-name="Эллипс 60" cx="3.8" cy="3.8" r="3.8" fill="#9b9e9e"/></g></g></g></g><path data-name="Прямоугольник 81" fill="#343f46" d="M172.3 287.4h4v1.4h-4z"/><path data-name="Прямоугольник 82" fill="#343f46" d="M181 287.4h4v1.4h-4z"/><path data-name="Прямоугольник 520" fill="#0097a7" d="M159.2 227.2h70.4v5.7h-70.4z"/></g></g></svg>