<svg xmlns="http://www.w3.org/2000/svg" xmlns:xlink="http://www.w3.org/1999/xlink" width="380" height="347.845" viewBox="0 0 380 347.845">
  <defs>
    <clipPath id="clip-path">
      <path id="SVGID" d="M1359.769,1134.066a18.4,18.4,0,0,1,4.67-.046c.476.061.853.131,1.079.177a4.966,4.966,0,0,1-1.962.9,6.08,6.08,0,0,1-1.453.173,6.191,6.191,0,0,1-1.451-.177,5.583,5.583,0,0,1-1.985-.857C1358.89,1134.193,1359.279,1134.127,1359.769,1134.066Z" transform="translate(-1358.668 -1133.89)" fill="#f36a6b"/>
    </clipPath>
  </defs>
  <g id="Сгруппировать_796" data-name="Сгруппировать 796" transform="translate(-1240.322 -1002.363)">
    <path id="Контур_119" data-name="Контур 119" d="M1614.309,1090.845h-.011l-6.236,6.788a53.032,53.032,0,0,0-12.967,47.255,151.106,151.106,0,0,1-111.5,178.943,140.905,140.905,0,0,1-17.619,3.193c-1.83.234-3.656.433-5.525.577a151.936,151.936,0,0,1-58.249-6.437l-1.431,1.555-20.642,22.377a15.826,15.826,0,0,1-22.363.93l0,0a15.82,15.82,0,0,1-.934-22.354l.007-.007,9.5-10.851a11.742,11.742,0,0,0-.718-16.591l0,0a11.875,11.875,0,0,0-1.19-.957,1.726,1.726,0,0,0-.207-.116,11.61,11.61,0,0,0-15.256,1.683l-33.008,36.349a15.829,15.829,0,1,1-23.294-21.44l22.974-25.5a13.722,13.722,0,0,0,1.215-17.083l-.025-.057a13.449,13.449,0,0,0-18.7-3.446h0a13.3,13.3,0,0,0-2.266,1.968l2.142-1.8a15.825,15.825,0,0,1-22.362.934h0a15.833,15.833,0,0,1-.934-22.367L1293.44,1224a22.7,22.7,0,0,0,5.8-19.375A151,151,0,0,1,1420.43,1028.8h0a150.652,150.652,0,0,1,27.214-2.492,154.263,154.263,0,0,1,25.813,2.236l19.405-21.069a15.827,15.827,0,1,1,23.3,21.43l0,0-13.024,14.107a13.271,13.271,0,0,0,.792,18.751h0a13.171,13.171,0,0,0,2.4,1.756l.432.263a13.479,13.479,0,0,0,16.583-2.554l47.408-51.486a15.827,15.827,0,1,1,23.3,21.431l0,0-24.418,26.529a11.54,11.54,0,0,0-.318,15.259l.145.2a11.828,11.828,0,0,0,16.671,1.384l0,0a11.979,11.979,0,0,0,1.05-1l3.832-4.167a15.835,15.835,0,0,1,22.375-.913l0,0A15.835,15.835,0,0,1,1614.309,1090.845Z" transform="translate(-2.718)" fill="#cbecf5"/>
    <path id="Rectangle_1610" data-name="Rectangle 1610" d="M1242.823,1139.534h0a13.743,13.743,0,0,1,3.341-19.145h0a13.743,13.743,0,0,1,19.145,3.34h0a13.744,13.744,0,0,1-3.34,19.145h0A13.744,13.744,0,0,1,1242.823,1139.534Z" transform="translate(0 -10.399)" fill="#cbecf5"/>
    <g id="Сгруппировать_37" data-name="Сгруппировать 37" transform="translate(1370.822 1291.421)">
      <rect id="Прямоугольник_78" data-name="Прямоугольник 78" width="161.973" height="11.891" rx="5.945" fill="#343f46"/>
    </g>
    <g id="Сгруппировать_38" data-name="Сгруппировать 38" transform="translate(1432.931 1189.978)">
      <rect id="Прямоугольник_79" data-name="Прямоугольник 79" width="37.753" height="112.125" transform="translate(0 0)" fill="#343f46"/>
    </g>
    <path id="Контур_39" data-name="Контур 39" d="M1489.724,1291.446l-37.753,10.064-.028-20.944h37.779Z" transform="translate(-19.049 -25.042)" fill="#293135"/>
    <g id="Сгруппировать_43" data-name="Сгруппировать 43" transform="translate(1282.348 1058.925)">
      <path id="Прямоугольник_83" data-name="Прямоугольник 83" d="M1615.408,1265.412H1295.577a8.914,8.914,0,0,1-9.072-8.75V1073.27a8.914,8.914,0,0,1,9.072-8.75h319.831a8.914,8.914,0,0,1,9.072,8.75v183.393A8.914,8.914,0,0,1,1615.408,1265.412Z" transform="translate(-1286.505 -1064.52)" fill="#343f46"/>
    </g>
    <g id="Сгруппировать_74" data-name="Сгруппировать 74" transform="translate(1543.302 1067.425)">
      <g id="Сгруппировать_67" data-name="Сгруппировать 67">
        <g id="Сгруппировать_54" data-name="Сгруппировать 54">
          <rect id="Прямоугольник_85" data-name="Прямоугольник 85" width="70.036" height="176.365" fill="#efefef"/>
          <rect id="Прямоугольник_86" data-name="Прямоугольник 86" width="70.036" height="8.915" fill="#0097a7"/>
          <rect id="Прямоугольник_87" data-name="Прямоугольник 87" width="38.838" height="3.82" transform="translate(22.922 36.291)" fill="#4b4c4c" opacity="0.33" style="isolation: isolate"/>
          <rect id="Прямоугольник_88" data-name="Прямоугольник 88" width="31.835" height="1.91" transform="translate(22.922 42.021)" fill="#9b9e9e" opacity="0.33" style="isolation: isolate"/>
          <circle id="Эллипс_53" data-name="Эллипс 53" cx="4.775" cy="4.775" r="4.775" transform="translate(8.278 35.018)" fill="#9b9e9e" opacity="0.33" style="isolation: isolate"/>
          <g id="Сгруппировать_47" data-name="Сгруппировать 47" transform="translate(8.278 53.482)" opacity="0.33">
            <rect id="Прямоугольник_89" data-name="Прямоугольник 89" width="38.838" height="3.82" transform="translate(14.644 1.273)" fill="#4b4c4c"/>
            <rect id="Прямоугольник_90" data-name="Прямоугольник 90" width="31.835" height="1.91" transform="translate(14.644 7.003)" fill="#9b9e9e"/>
            <circle id="Эллипс_54" data-name="Эллипс 54" cx="4.775" cy="4.775" r="4.775" fill="#9b9e9e"/>
          </g>
          <g id="Сгруппировать_48" data-name="Сгруппировать 48" transform="translate(8.278 73.856)" opacity="0.33">
            <rect id="Прямоугольник_91" data-name="Прямоугольник 91" width="38.838" height="3.82" transform="translate(14.644 1.273)" fill="#4b4c4c"/>
            <rect id="Прямоугольник_92" data-name="Прямоугольник 92" width="31.835" height="1.91" transform="translate(14.644 7.003)" fill="#9b9e9e"/>
            <circle id="Эллипс_55" data-name="Эллипс 55" cx="4.775" cy="4.775" r="4.775" fill="#9b9e9e"/>
          </g>
          <g id="Сгруппировать_49" data-name="Сгруппировать 49" transform="translate(8.278 94.232)" opacity="0.33">
            <rect id="Прямоугольник_93" data-name="Прямоугольник 93" width="38.838" height="3.82" transform="translate(14.644 1.273)" fill="#4b4c4c"/>
            <rect id="Прямоугольник_94" data-name="Прямоугольник 94" width="31.835" height="1.91" transform="translate(14.644 7.003)" fill="#9b9e9e"/>
            <circle id="Эллипс_56" data-name="Эллипс 56" cx="4.775" cy="4.775" r="4.775" fill="#9b9e9e"/>
          </g>
          <g id="Сгруппировать_50" data-name="Сгруппировать 50" transform="translate(8.278 15.281)" opacity="0.33">
            <rect id="Прямоугольник_95" data-name="Прямоугольник 95" width="38.838" height="3.82" transform="translate(14.644 1.273)" fill="#4b4c4c"/>
            <rect id="Прямоугольник_96" data-name="Прямоугольник 96" width="31.835" height="1.91" transform="translate(14.644 7.003)" fill="#9b9e9e"/>
            <circle id="Эллипс_57" data-name="Эллипс 57" cx="4.775" cy="4.775" r="4.775" fill="#9b9e9e"/>
          </g>
          <g id="Сгруппировать_51" data-name="Сгруппировать 51" transform="translate(8.278 113.332)" opacity="0.33">
            <rect id="Прямоугольник_97" data-name="Прямоугольник 97" width="38.838" height="3.82" transform="translate(14.644 1.273)" fill="#4b4c4c"/>
            <rect id="Прямоугольник_98" data-name="Прямоугольник 98" width="31.835" height="1.91" transform="translate(14.644 7.003)" fill="#9b9e9e"/>
            <circle id="Эллипс_58" data-name="Эллипс 58" cx="4.775" cy="4.775" r="4.775" fill="#9b9e9e"/>
          </g>
          <g id="Сгруппировать_52" data-name="Сгруппировать 52" transform="translate(8.278 134.343)" opacity="0.33">
            <rect id="Прямоугольник_99" data-name="Прямоугольник 99" width="38.838" height="3.82" transform="translate(14.644 1.273)" fill="#4b4c4c"/>
            <rect id="Прямоугольник_100" data-name="Прямоугольник 100" width="31.835" height="1.91" transform="translate(14.644 7.003)" fill="#9b9e9e"/>
            <circle id="Эллипс_59" data-name="Эллипс 59" cx="4.775" cy="4.775" r="4.775" fill="#9b9e9e"/>
          </g>
          <g id="Сгруппировать_53" data-name="Сгруппировать 53" transform="translate(8.278 157.265)" opacity="0.33">
            <rect id="Прямоугольник_101" data-name="Прямоугольник 101" width="38.838" height="3.82" transform="translate(14.644 1.273)" fill="#4b4c4c"/>
            <rect id="Прямоугольник_102" data-name="Прямоугольник 102" width="31.835" height="1.91" transform="translate(14.644 7.003)" fill="#9b9e9e"/>
            <circle id="Эллипс_60" data-name="Эллипс 60" cx="4.775" cy="4.775" r="4.775" fill="#9b9e9e"/>
          </g>
        </g>
      </g>
    </g>
    <rect id="Прямоугольник_81" data-name="Прямоугольник 81" width="4.893" height="1.706" transform="translate(1312.03 1259.01)" fill="#343f46"/>
    <rect id="Прямоугольник_82" data-name="Прямоугольник 82" width="4.893" height="1.706" transform="translate(1322.759 1259.01)" fill="#343f46"/>
    <g id="Сгруппировать_795" data-name="Сгруппировать 795" transform="translate(1290.374 1067.425)">
      <rect id="Прямоугольник_680" data-name="Прямоугольник 680" width="252.928" height="176.337" transform="translate(0 0.032)" fill="#9dc7ff"/>
      <rect id="Прямоугольник_681" data-name="Прямоугольник 681" width="252.928" height="1.152" transform="translate(0 87.625)" fill="#fff"/>
      <rect id="Прямоугольник_682" data-name="Прямоугольник 682" width="176.335" height="1.152" transform="translate(125.987 176.335) rotate(-90)" fill="#fff"/>
      <g id="Сгруппировать_739" data-name="Сгруппировать 739" transform="translate(33.444 14.657)">
        <g id="Сгруппировать_737" data-name="Сгруппировать 737" transform="translate(3.062 8.591)">
          <path id="Контур_888" data-name="Контур 888" d="M1368.383,1149.644h-11.95v-5.036a17.281,17.281,0,0,1,11.95,0Z" transform="translate(-1337.332 -1103.381)" fill="#d38f4c"/>
          <path id="Контур_889" data-name="Контур 889" d="M1348.491,1155.3c-.008.026-.016.053-.026.08l-1.085,2.862-1.053,2.776-1.114,2.942-.6,1.588-.452,1.188-.619,1.628h-8.1l.619-1.628,1.052-2.776,1.114-2.942,1.056-2.776,1.114-2.942.988-2.606c.022-.058.045-.115.072-.17a3.794,3.794,0,0,1,2.6-2.169c.005,0,.005-.008.011,0a3.709,3.709,0,0,1,.861-.1c.127,0,.253.005.381.018a4.051,4.051,0,0,1,.962.229,3.774,3.774,0,0,1,2.107,1.986l.016.04A3.765,3.765,0,0,1,1348.491,1155.3Z" transform="translate(-1335.442 -1103.984)" fill="#f2aa5b"/>
          <path id="Контур_890" data-name="Контур 890" d="M1388.706,1168.361h-8.1l-.615-1.628-.456-1.2-.6-1.574-1.116-2.942-1.052-2.776-1.087-2.862c-.011-.027-.018-.054-.026-.08a3.76,3.76,0,0,1,.1-2.776l.016-.04a3.773,3.773,0,0,1,2.1-1.986,4.1,4.1,0,0,1,.964-.229,3.782,3.782,0,0,1,.379-.018,3.692,3.692,0,0,1,.861.1,3.813,3.813,0,0,1,2.608,2.169,1.651,1.651,0,0,1,.072.17l.989,2.606,1.114,2.942,1.052,2.776,1.114,2.942,1.053,2.776Z" transform="translate(-1339.043 -1103.984)" fill="#f2aa5b"/>
          <path id="Контур_891" data-name="Контур 891" d="M1362.73,1154.764a4.754,4.754,0,0,0,4.755-4.755v-13.328a4.876,4.876,0,0,0-3.776-4.843,4.761,4.761,0,0,0-5.733,4.658v13.512a4.755,4.755,0,0,0,4.755,4.755Z" transform="translate(-1337.47 -1102.318)" fill="#bc967d"/>
          <path id="Контур_892" data-name="Контур 892" d="M1379.969,1154.421a3.387,3.387,0,0,1-.115.623,3.51,3.51,0,0,1-.536,1.122,3.891,3.891,0,0,1-1.276,1.157,2.807,2.807,0,0,0-.8.663,3.373,3.373,0,0,0-.751,2.249c.005.176.01.352.013.528.019.948.016,1.929.008,2.942,0,.125,0,.25,0,.378-.006.392-.006.794-.006,1.2-.007.258-.007.52-.007.778,0,.141,0,.283-.005.424-.008.543-.037,1.089-.091,1.628H1345.27c-.054-.539-.083-1.085-.091-1.628-.006-.141-.006-.283-.006-.424v-.764c0-.41,0-.813-.005-1.21,0-.125,0-.253,0-.378-.011-1.01-.014-1.994,0-2.942,0-.213.01-.427.016-.637a3.134,3.134,0,0,0-1.577-2.822,3.787,3.787,0,0,1-1.479-5.036,3.682,3.682,0,0,1,.962-1.183,7.684,7.684,0,0,1,1.529-.986c.005,0,.005-.008.011,0a5.95,5.95,0,0,1,1.687-.56l8.308-1.783a.324.324,0,0,1,.083-.018c.208-.04.365-.062.405-.067.141-.016.527-.077,1.4-.221a6.081,6.081,0,0,0,4.29,2.483,6.245,6.245,0,0,0,5.186-2.353.034.034,0,0,0,.018,0,.04.04,0,0,0,.016.005c.194.029.38.053.562.083.13.024.259.042.383.067a.394.394,0,0,1,.091.018l8.271,1.775a6.177,6.177,0,0,1,1.722.568,7.822,7.822,0,0,1,1.542.986,3.832,3.832,0,0,1,.959,1.183A3.9,3.9,0,0,1,1379.969,1154.421Z" transform="translate(-1336.005 -1103.733)" fill="#f2aa5b"/>
          <path id="Контур_893" data-name="Контур 893" d="M1350.563,1122.889c.533,2.528-.537,4.893-2.388,5.282s-3.784-1.343-4.316-3.872.538-4.893,2.389-5.283,3.783,1.343,4.315,3.872Z" transform="translate(-1336.187 -1101.168)" fill="#af8b77"/>
          <path id="Контур_894" data-name="Контур 894" d="M1380.274,1124.3c.532-2.527-.537-4.893-2.388-5.283s-3.784,1.343-4.316,3.872.538,4.893,2.389,5.282,3.783-1.343,4.315-3.872Z" transform="translate(-1338.862 -1101.168)" fill="#af8b77"/>
          <path id="Контур_895" data-name="Контур 895" d="M1345.722,1119.081c0-10.866,2.789-19.673,15.477-19.673s15.477,8.807,15.477,19.673-6.931,19.676-15.477,19.676-15.477-8.81-15.477-19.676Z" transform="translate(-1336.367 -1099.408)" fill="#bc967d"/>
          <ellipse id="Эллипс_148" data-name="Эллипс 148" cx="1.394" cy="2.01" rx="1.394" ry="2.01" transform="translate(16.504 20.554)" fill="#3a2e32"/>
          <ellipse id="Эллипс_149" data-name="Эллипс 149" cx="1.394" cy="1.966" rx="1.394" ry="1.966" transform="translate(29.345 20.643)" fill="#3a2e32"/>
          <path id="Контур_896" data-name="Контур 896" d="M1356.2,1118.088c.682.169.879-.208.861-.586a.818.818,0,0,0-.585-.863c-.153-.029-4.377-1.237-5.879.979-.294.435-.617,1.152-.29,1.052.237-.074.609-.672,1.114-.909C1352.839,1117.093,1355.039,1117.8,1356.2,1118.088Z" transform="translate(-1336.767 -1100.927)" fill="#2c1d1e"/>
          <path id="Контур_897" data-name="Контур 897" d="M1367.427,1118.088c-.682.169-.88-.208-.862-.586.02-.407.186-.785.585-.863.154-.029,4.377-1.237,5.879.979.295.435.617,1.152.291,1.052-.238-.074-.609-.672-1.114-.909C1370.784,1117.093,1368.584,1117.8,1367.427,1118.088Z" transform="translate(-1338.243 -1100.927)" fill="#2c1d1e"/>
          <path id="Контур_898" data-name="Контур 898" d="M1368.383,1149.75h-11.95v-5.036a20.173,20.173,0,0,0,11.95,0Z" transform="translate(-1337.332 -1103.486)" fill="#f2aa5b"/>
          <g id="Сгруппировать_736" data-name="Сгруппировать 736" transform="translate(20.178 29.474)">
            <path id="Контур_899" data-name="Контур 899" d="M1366.316,1133.437l-2.094-1.222a1.825,1.825,0,0,0-1.114-.417,1.674,1.674,0,0,1-2.033,0,1.82,1.82,0,0,0-1.115.419l-2.26,1.22a.233.233,0,0,0-.078.233,4.911,4.911,0,0,0,4.47,3.437,4.7,4.7,0,0,0,4.3-3.437A.233.233,0,0,0,1366.316,1133.437Zm-.861.589" transform="translate(-1357.616 -1131.798)" fill="#f24336"/>
            <g id="Сгруппировать_735" data-name="Сгруппировать 735" transform="translate(0.957 1.904)">
              <path id="SVGID-2" data-name="SVGID" d="M1359.769,1134.066a18.4,18.4,0,0,1,4.67-.046c.476.061.853.131,1.079.177a4.966,4.966,0,0,1-1.962.9,6.08,6.08,0,0,1-1.453.173,6.191,6.191,0,0,1-1.451-.177,5.583,5.583,0,0,1-1.985-.857C1358.89,1134.193,1359.279,1134.127,1359.769,1134.066Z" transform="translate(-1358.668 -1133.89)" fill="#f36a6b"/>
              <g id="Сгруппировать_734" data-name="Сгруппировать 734" clip-path="url(#clip-path)">
                <path id="Контур_900" data-name="Контур 900" d="M1364.214,1133.608s.543,0,.543.226v.245s0,.225-.543.225h-4.051s-.543,0-.543-.225v-.245s0-.226.543-.226Z" transform="translate(-1358.754 -1133.865)" fill="#fff"/>
                <path id="Контур_901" data-name="Контур 901" d="M1359.775,1135.705h4.672c2.26,0,.431-1.156-2.093-1.244-.06,0-.222-.005-.243-.005s-.183,0-.243.005c-2.524.088-4.353,1.244-2.093,1.244Z" transform="translate(-1358.675 -1133.941)" fill="#f89394"/>
                <path id="Контур_902" data-name="Контур 902" d="M1363.735,1135.088s.4,0,.4.165v.178s0,.164-.4.164h-2.954s-.4,0-.4-.164v-.178s0-.165.4-.165Z" transform="translate(-1358.823 -1133.998)" fill="#fff"/>
              </g>
            </g>
          </g>
        </g>
        <g id="Сгруппировать_738" data-name="Сгруппировать 738">
          <path id="Контур_903" data-name="Контур 903" d="M1386.8,1115.042a3.776,3.776,0,0,0-.859-4.2,3.4,3.4,0,0,0-.784-.539,3.807,3.807,0,0,0-1.394-.418,2.337,2.337,0,0,0,.631-1.63,1.7,1.7,0,0,0-.945-1.381,1.2,1.2,0,0,0-.911-.109,2.483,2.483,0,0,0-.3-2.453,2.406,2.406,0,0,0-.794-.656,2.474,2.474,0,0,0-1.546-.288,2.554,2.554,0,0,0-.5-2.387,2.479,2.479,0,0,0-.791-.6,2.55,2.55,0,0,0-1.524-.258,2.036,2.036,0,0,0-.308-2.285,1.9,1.9,0,0,0-.531-.389,2.046,2.046,0,0,0-1.738-.1,1.648,1.648,0,0,0-.518-2.036,2.079,2.079,0,0,0-.295-.187,3.205,3.205,0,0,0-1.98-.3,4.041,4.041,0,0,0-1.349-2.058,1.909,1.909,0,0,0-.3-.165,1.681,1.681,0,0,0-2,.285,1.706,1.706,0,0,0-.963-1.3,1.607,1.607,0,0,0-.265-.108,1.7,1.7,0,0,0-1.743.541,1.3,1.3,0,0,0-.7-.863,1.645,1.645,0,0,0-.366-.155,3.555,3.555,0,0,0-1.552.009c-.057.009-.114.02-.171.031a2.9,2.9,0,0,0-.622-.607,2.353,2.353,0,0,0-.257-.154,2.424,2.424,0,0,0-3.22.718l.153.092a6.384,6.384,0,0,0-1-.247,3.561,3.561,0,0,0-1.552-.008,1.375,1.375,0,0,0-1.021,1.034,1.626,1.626,0,0,0-.551-.423,1.641,1.641,0,0,0-2.418,1.295,1.266,1.266,0,0,0-.447-.339,1.889,1.889,0,0,0-1.844.172,4.078,4.078,0,0,0-1.36,2.091,3.031,3.031,0,0,0-2.263.453,1.636,1.636,0,0,0-.488,2.1,1.981,1.981,0,0,0-2.591,2.746,2.5,2.5,0,0,0-2.824,3.24,2.429,2.429,0,0,0-2.63,3.411,1.54,1.54,0,0,0-1.876,1.442,2.358,2.358,0,0,0,.646,1.648,3.7,3.7,0,0,0-2.192.938,3.776,3.776,0,0,0-.859,4.2,2.4,2.4,0,0,0-.831,1.044h.068a2.9,2.9,0,0,0,1.02,3.6,1.7,1.7,0,0,0-.287,2.076,4.963,4.963,0,0,0,1.592,1.6c-.585.679-.312,2.305.257,3s1.329.548,2.153.9a1.932,1.932,0,0,0,.913,2.347,5.621,5.621,0,0,0,2.676.577,1.668,1.668,0,0,0,1,2.247,3.281,3.281,0,0,0,2.686-.449,1.683,1.683,0,0,0,2.747,1.689,1.6,1.6,0,1,0,3.083-.169.386.386,0,0,0,.076-.127,32.621,32.621,0,0,1-6.008-14.734,1.894,1.894,0,0,0,.859-.346,2.717,2.717,0,0,0,.9-1.23,1.9,1.9,0,0,0,.144-1,1.41,1.41,0,0,0-.36-.7,1.974,1.974,0,0,0,.092-3.074,1.9,1.9,0,0,0,2.179-2.389,1.766,1.766,0,0,0,2.774-1.956,2.166,2.166,0,0,0,3.507-1.932,1.842,1.842,0,0,0,3.145-1.521,1.5,1.5,0,0,0,2.8-.884,1.36,1.36,0,0,0,2.514-.865,4.584,4.584,0,0,0,.23.466l-.081.017a3.623,3.623,0,0,0-.6,1.792,1.25,1.25,0,0,0,1.151,1.275,1.351,1.351,0,0,0,1.106,2.434,1.562,1.562,0,0,0,1.911,2.4,1.59,1.59,0,0,0,2.393,1.965,2.866,2.866,0,0,0,1.284,1.92c.715.347,1.8-.126,1.738-.918a1.864,1.864,0,0,0,1.237,1.487,1.1,1.1,0,0,0,1.293-.848.951.951,0,0,0,.115.27,2.584,2.584,0,0,0,.809,2.35.457.457,0,0,1,.177.228.469.469,0,0,1-.056.266,2.038,2.038,0,0,0,.171,1.838,1.976,1.976,0,0,0,.455.49,33.146,33.146,0,0,1-6.4,13.976,1.595,1.595,0,1,0,3.148-.317,1.683,1.683,0,0,0,2.747-1.69,3.277,3.277,0,0,0,2.686.449,1.668,1.668,0,0,0,1-2.246,5.625,5.625,0,0,0,2.675-.578,1.931,1.931,0,0,0,.913-2.347c.824-.353,1.585-.208,2.154-.9s.842-2.319.257-3a4.941,4.941,0,0,0,1.591-1.6,1.7,1.7,0,0,0-.286-2.076A2.879,2.879,0,0,0,1386.8,1115.042Z" transform="translate(-1332.077 -1089.967)" fill="#2c1d1e"/>
          <path id="Контур_904" data-name="Контур 904" d="M1377.585,1129.885l0,0C1377.566,1129.881,1377.568,1129.883,1377.585,1129.885Z" transform="translate(-1336.172 -1093.56)" fill="#2c1d1e"/>
        </g>
      </g>
      <g id="Сгруппировать_765" data-name="Сгруппировать 765" transform="translate(161.209 99.159)">
        <g id="Сгруппировать_763" data-name="Сгруппировать 763" transform="translate(0 2.907)">
          <g id="Сгруппировать_761" data-name="Сгруппировать 761">
            <g id="Сгруппировать_751" data-name="Сгруппировать 751">
              <g id="Сгруппировать_740" data-name="Сгруппировать 740" transform="translate(0 53.394)">
                <path id="Контур_905" data-name="Контур 905" d="M1487.54,1250.527c-.009.031-.018.061-.03.092l-1.252,3.3-1.215,3.205-1.286,3.4-.694,1.833-.523,1.371-.714,1.879h-9.347l.714-1.879,1.215-3.2,1.286-3.4,1.218-3.205,1.286-3.4,1.141-3.008a2.057,2.057,0,0,1,.083-.2,4.38,4.38,0,0,1,3-2.5c.006,0,.006-.009.012,0a4.287,4.287,0,0,1,.994-.12,4.171,4.171,0,0,1,.44.022,4.63,4.63,0,0,1,1.11.265,4.352,4.352,0,0,1,2.433,2.291l.018.046A4.342,4.342,0,0,1,1487.54,1250.527Z" transform="translate(-1472.48 -1244.699)" fill="#163f4c"/>
              </g>
              <g id="Сгруппировать_741" data-name="Сгруппировать 741" transform="translate(42.012 53.394)">
                <path id="Контур_906" data-name="Контур 906" d="M1533.956,1265.606h-9.343l-.711-1.879-.526-1.387-.689-1.817-1.289-3.4-1.215-3.205-1.255-3.3a.873.873,0,0,1-.031-.092,4.341,4.341,0,0,1,.117-3.2l.018-.046a4.351,4.351,0,0,1,2.43-2.291,4.693,4.693,0,0,1,1.113-.265,4.122,4.122,0,0,1,.437-.022,4.268,4.268,0,0,1,.994.12,4.4,4.4,0,0,1,3.01,2.5,2.063,2.063,0,0,1,.084.2l1.14,3.008,1.286,3.4,1.215,3.205,1.286,3.4,1.215,3.2Z" transform="translate(-1518.647 -1244.699)" fill="#163f4c"/>
              </g>
              <g id="Сгруппировать_742" data-name="Сгруппировать 742" transform="translate(23.665 33.958)">
                <path id="Контур_907" data-name="Контур 907" d="M1503.975,1249.913a5.488,5.488,0,0,0,5.487-5.488v-15.382a5.627,5.627,0,0,0-4.359-5.589,5.5,5.5,0,0,0-6.617,5.376v15.6a5.489,5.489,0,0,0,5.489,5.488Z" transform="translate(-1498.486 -1223.34)" fill="#bc967d"/>
              </g>
              <g id="Сгруппировать_743" data-name="Сгруппировать 743" transform="translate(6.567 50.459)">
                <path id="Контур_908" data-name="Контур 908" d="M1523.872,1249.519a3.768,3.768,0,0,1-.133.719,4.029,4.029,0,0,1-.618,1.295,4.485,4.485,0,0,1-1.473,1.335,3.28,3.28,0,0,0-.925.765,3.9,3.9,0,0,0-.867,2.6c.006.2.013.406.015.609.022,1.095.018,2.227.009,3.4,0,.145,0,.289,0,.437-.006.452-.006.917-.006,1.381-.009.3-.009.6-.009.9,0,.163,0,.327-.006.49-.009.627-.043,1.258-.1,1.879h-35.927c-.061-.621-.095-1.252-.1-1.879-.005-.163-.005-.327-.005-.49v-.883c0-.473,0-.937-.006-1.4,0-.145,0-.292-.006-.437-.012-1.166-.016-2.3,0-3.4.006-.246.013-.492.018-.735a3.613,3.613,0,0,0-1.82-3.257,4.372,4.372,0,0,1-1.707-5.812,4.261,4.261,0,0,1,1.11-1.366,8.914,8.914,0,0,1,1.765-1.137c.006,0,.006-.009.012,0a6.839,6.839,0,0,1,1.947-.646l9.589-2.057a.366.366,0,0,1,.1-.022c.24-.046.421-.07.468-.076.163-.018.609-.089,1.618-.256a7.016,7.016,0,0,0,4.951,2.867,6.355,6.355,0,0,0,2.457-.277,7.664,7.664,0,0,0,3.528-2.439.048.048,0,0,0,.021,0,.04.04,0,0,0,.018.006c.225.034.44.062.65.1.15.027.3.049.442.076a.422.422,0,0,1,.1.022l9.546,2.048a7.063,7.063,0,0,1,1.987.655,9.092,9.092,0,0,1,1.781,1.137,4.418,4.418,0,0,1,1.107,1.366A4.5,4.5,0,0,1,1523.872,1249.519Z" transform="translate(-1479.697 -1241.473)" fill="#163f4c"/>
              </g>
              <g id="Сгруппировать_744" data-name="Сгруппировать 744" transform="translate(8.698 20.536)">
                <path id="Контур_909" data-name="Контур 909" d="M1489.932,1213.124c.615,2.917-.619,5.647-2.755,6.1s-4.367-1.551-4.981-4.469.62-5.647,2.756-6.1,4.367,1.552,4.98,4.47Z" transform="translate(-1482.038 -1208.591)" fill="#ad8671"/>
              </g>
              <g id="Сгруппировать_745" data-name="Сгруппировать 745" transform="translate(39.902 20.536)">
                <path id="Контур_910" data-name="Контур 910" d="M1524.223,1214.751c.615-2.917-.619-5.647-2.756-6.1s-4.367,1.552-4.981,4.47.621,5.647,2.756,6.1,4.366-1.551,4.98-4.469Z" transform="translate(-1516.329 -1208.591)" fill="#ad8671"/>
              </g>
              <g id="Сгруппировать_746" data-name="Сгруппировать 746" transform="translate(10.797)">
                <path id="Контур_911" data-name="Контур 911" d="M1484.345,1208.729c0-12.541,3.219-22.706,17.863-22.706s17.862,10.165,17.862,22.706-8,22.709-17.862,22.709-17.863-10.168-17.863-22.709Z" transform="translate(-1484.345 -1186.023)" fill="#bc967d"/>
              </g>
              <g id="Сгруппировать_747" data-name="Сгруппировать 747" transform="translate(19.049 23.723)">
                <ellipse id="Эллипс_150" data-name="Эллипс 150" cx="1.609" cy="2.32" rx="1.609" ry="2.32" fill="#3a2e32"/>
              </g>
              <g id="Сгруппировать_748" data-name="Сгруппировать 748" transform="translate(33.869 23.825)">
                <ellipse id="Эллипс_151" data-name="Эллипс 151" cx="1.609" cy="2.269" rx="1.609" ry="2.269" fill="#3a2e32"/>
              </g>
              <g id="Сгруппировать_749" data-name="Сгруппировать 749" transform="translate(15.465 17.725)">
                <path id="Контур_912" data-name="Контур 912" d="M1496.434,1207.582c.788.2,1.016-.24.995-.676-.023-.469-.215-.906-.675-1-.177-.034-5.052-1.428-6.786,1.13-.339.5-.712,1.33-.335,1.213.274-.084.7-.774,1.285-1.048C1492.559,1206.435,1495.1,1207.25,1496.434,1207.582Z" transform="translate(-1489.474 -1205.501)" fill="#422918"/>
              </g>
              <g id="Сгруппировать_750" data-name="Сгруппировать 750" transform="translate(32.686 17.725)">
                <path id="Контур_913" data-name="Контур 913" d="M1509.4,1207.582c-.788.2-1.016-.24-.995-.676.023-.469.214-.906.675-1,.178-.034,5.052-1.428,6.785,1.13.34.5.712,1.33.336,1.213-.274-.084-.7-.774-1.285-1.048C1513.27,1206.435,1510.731,1207.25,1509.4,1207.582Z" transform="translate(-1508.4 -1205.501)" fill="#422918"/>
              </g>
            </g>
            <g id="Сгруппировать_752" data-name="Сгруппировать 752" transform="translate(24.078 37.401)">
              <path id="SVGID-3" data-name="SVGID" d="M1500.391,1227.39a21.175,21.175,0,0,1,6.151-.071c.626.092,1.123.2,1.421.268a6.222,6.222,0,0,1-2.583,1.357,7.094,7.094,0,0,1-1.915.259,7.188,7.188,0,0,1-1.91-.267,6.948,6.948,0,0,1-2.615-1.293C1499.233,1227.582,1499.744,1227.482,1500.391,1227.39Z" transform="translate(-1498.94 -1227.124)" fill="#fff"/>
            </g>
            <g id="Сгруппировать_753" data-name="Сгруппировать 753" transform="translate(21.202 51.638)">
              <path id="Контур_914" data-name="Контур 914" d="M1511.239,1243.68l-.92-.459a1.545,1.545,0,0,1-.589-.452,11.575,11.575,0,0,1-5.862,1.541,2.721,2.721,0,0,1,2.1.645c-3.068.522-6.687,1.468-8.621-1.968a1.426,1.426,0,0,1-.372.235l-.92.459-.278.139c1.535,6.3,3.15,12.468,4.64,18.7h8.257c1.821-5.774,3.189-11.806,4.742-17.752Z" transform="translate(-1495.779 -1242.769)" fill="#fff"/>
            </g>
            <g id="Сгруппировать_754" data-name="Сгруппировать 754" transform="translate(25.329 53.436)">
              <path id="Контур_915" data-name="Контур 915" d="M1502.184,1251l-1.869-6.254h7.484L1505.93,1251C1505.1,1253.21,1503.016,1253.21,1502.184,1251Z" transform="translate(-1500.315 -1244.745)" fill="#ef993a"/>
            </g>
            <g id="Сгруппировать_755" data-name="Сгруппировать 755" transform="translate(23.753 60.586)">
              <path id="Контур_916" data-name="Контур 916" d="M1508.058,1266.319h-9.476l1.381-5.828.513-2.158.716-3.03c1.381-3.457,4.368-3.632,5.376-.314l.569,4.34.539,4.075Z" transform="translate(-1498.582 -1252.602)" fill="#ef993a"/>
            </g>
            <g id="Сгруппировать_756" data-name="Сгруппировать 756" transform="translate(15.766 50.715)">
              <path id="Контур_917" data-name="Контур 917" d="M1501.479,1265.343h-5.963c-1.937-5.819-5.711-18.526-5.711-18.526l6.283-5.062.4,1.353,3.2,14.249,1.137,5.071Z" transform="translate(-1489.805 -1241.754)" fill="#00939f"/>
            </g>
            <g id="Сгруппировать_757" data-name="Сгруппировать 757" transform="translate(30.74 50.915)">
              <path id="Контур_918" data-name="Контур 918" d="M1517.938,1246.836l-.2.667-.018.055c-.828,2.774-3.838,12.818-5.5,17.8h-5.963l.655-2.916.913-4.075,3.423-15.229.584-1.168Z" transform="translate(-1506.261 -1241.974)" fill="#00939f"/>
            </g>
            <g id="Сгруппировать_760" data-name="Сгруппировать 760" transform="translate(21.663 49.129)">
              <g id="Сгруппировать_758" data-name="Сгруппировать 758">
                <path id="Контур_919" data-name="Контур 919" d="M1498.288,1240.012l-2,1.969,4.015,9.226,3.724-7.033S1498.564,1241.981,1498.288,1240.012Z" transform="translate(-1496.286 -1240.012)" fill="#eaeaea"/>
              </g>
              <g id="Сгруппировать_759" data-name="Сгруппировать 759" transform="translate(7.085)">
                <path id="Контур_920" data-name="Контур 920" d="M1509.979,1240.012l1.831,1.969-4.014,9.226-3.724-7.033S1509.7,1241.981,1509.979,1240.012Z" transform="translate(-1504.072 -1240.012)" fill="#eaeaea"/>
              </g>
            </g>
          </g>
          <g id="Сгруппировать_762" data-name="Сгруппировать 762" transform="translate(10.797 28.363)">
            <path id="Контур_921" data-name="Контур 921" d="M1518.989,1222.747c-.552.806-1.181,1.57-1.787,2.31-.489.594-.991,1.208-1.448,1.834a15.823,15.823,0,0,1-2.013,2.344l-6.388,4.852a12.422,12.422,0,0,1-5.718,2.545.2.2,0,0,1-.047.007.212.212,0,0,1-.047-.007,12.228,12.228,0,0,1-5.69-2.5c-.87-.712-1.815-1.347-2.813-2.017-2.1-1.41-4.276-2.868-5.693-5.1a22.687,22.687,0,0,1-1.2-2.261c-1.073-2.2-2.181-4.487-1.667-7.279a.337.337,0,0,1,.248-.271.3.3,0,0,1,.323.139,25.4,25.4,0,0,1,1.74,3.432,16.888,16.888,0,0,0,2.483,4.39,17.674,17.674,0,0,0,2.241,2.09c.273.226.629.545,1.041.916,2.055,1.852,5.878,5.3,7.655,3.856a2.424,2.424,0,0,0,.578-.966c.067-.156.13-.309.2-.458.324-.656.67-.993,1.064-1.032.59-.062,1.041.552,1.517,1.2.375.51.8,1.091,1.191,1.126a2.34,2.34,0,0,0,1.216-.413,54.088,54.088,0,0,0,8.182-5.8,13.239,13.239,0,0,0,2.128-2.6c.218-.319.435-.631.647-.92a9.751,9.751,0,0,0,1.292-2.851c.2-.591.4-1.2.673-1.82a.313.313,0,0,1,.352-.191.345.345,0,0,1,.251.33c.006.343.032.7.06,1.08C1519.66,1220.066,1519.771,1221.6,1518.989,1222.747Z" transform="translate(-1484.344 -1217.192)" fill="#422918"/>
          </g>
        </g>
        <g id="Сгруппировать_764" data-name="Сгруппировать 764" transform="translate(7.835)">
          <path id="Контур_922" data-name="Контур 922" d="M1503.5,1195.41l-.021,0Z" transform="translate(-1483.105 -1183.961)" fill="#422918"/>
          <path id="Контур_923" data-name="Контур 923" d="M1503.474,1195.413Z" transform="translate(-1483.104 -1183.961)" fill="#422918"/>
          <path id="Контур_924" data-name="Контур 924" d="M1522.4,1190.316a23789.161,23789.161,0,0,0-5.468-4.992,2.938,2.938,0,0,0-1.18.248,2.662,2.662,0,0,0-2.705-2.158,2.838,2.838,0,0,0-2.072.871,7.546,7.546,0,0,1-7.438-1.457,2.883,2.883,0,0,1-4.421,0,2.873,2.873,0,0,1-4.624,0,2.693,2.693,0,0,0-2.659,1.925,2.859,2.859,0,0,0-1.947-.744,2.673,2.673,0,0,0-2.693,2.078,2.971,2.971,0,0,0-1.531-.13,2.655,2.655,0,0,0-2.123,1.842,2.251,2.251,0,0,0,.073,1.437,2.6,2.6,0,0,0-2.521,2.486,2.537,2.537,0,0,0,1.941,2.389c-2.685,7.932.017,19,.017,19l.842.258.454,2.956h.872s-1.706-9.729,1.618-12.58c0,0-.7-7.642,2.974-8.621,0,0,7.606-1.513,11.674-.845,3.733-.407,12.128.445,12.128.445,3.9.593,2.73,9.022,2.73,9.022,3.324,2.852,1.618,12.58,1.618,12.58h.872l.454-2.956.842-.258s3.118-12.277-.111-20.32A2.586,2.586,0,0,0,1522.4,1190.316Z" transform="translate(-1481.09 -1182.828)" fill="#422918"/>
        </g>
      </g>
      <g id="Сгруппировать_769" data-name="Сгруппировать 769" transform="translate(30.584 100.064)">
        <g id="Сгруппировать_768" data-name="Сгруппировать 768" transform="translate(0 6.395)">
          <g id="Сгруппировать_767" data-name="Сгруппировать 767">
            <path id="Контур_925" data-name="Контур 925" d="M1364.705,1245.522h-12.976v-4.488a22.624,22.624,0,0,1,12.976,0Z" transform="translate(-1330.986 -1195.282)" fill="#469e9e"/>
            <path id="Контур_926" data-name="Контур 926" d="M1343.1,1251.542c-.008.029-.017.057-.028.087l-1.178,3.108-1.143,3.016-1.209,3.194-.654,1.725-.491,1.29-.672,1.768h-8.793l.671-1.768,1.143-3.016,1.21-3.194,1.146-3.016,1.209-3.194,1.074-2.83a2,2,0,0,1,.078-.186,4.117,4.117,0,0,1,2.818-2.355c.005,0,.005-.009.011,0a4,4,0,0,1,.936-.113,3.9,3.9,0,0,1,.413.02,4.4,4.4,0,0,1,1.045.249,4.092,4.092,0,0,1,2.289,2.156l.018.043A4.085,4.085,0,0,1,1343.1,1251.542Z" transform="translate(-1328.934 -1195.82)" fill="#6ebdbf"/>
            <path id="Контур_927" data-name="Контур 927" d="M1386.775,1265.73h-8.79l-.669-1.768-.5-1.3-.648-1.711-1.212-3.194-1.143-3.016-1.181-3.108c-.011-.029-.02-.057-.029-.087a4.09,4.09,0,0,1,.11-3.016l.017-.043a4.1,4.1,0,0,1,2.286-2.156,4.469,4.469,0,0,1,1.048-.249,3.851,3.851,0,0,1,.41-.02,3.971,3.971,0,0,1,.935.113,4.139,4.139,0,0,1,2.833,2.355,2,2,0,0,1,.078.186l1.074,2.83,1.209,3.194,1.143,3.016,1.209,3.194,1.143,3.016Z" transform="translate(-1332.844 -1195.82)" fill="#6ebdbf"/>
            <path id="Контур_928" data-name="Контур 928" d="M1358.566,1250.963a5.162,5.162,0,0,0,5.163-5.162v-14.473a5.294,5.294,0,0,0-4.1-5.259,5.17,5.17,0,0,0-6.226,5.058V1245.8a5.163,5.163,0,0,0,5.164,5.162Z" transform="translate(-1331.136 -1194.01)" fill="#ffa898"/>
            <path id="Контур_929" data-name="Контур 929" d="M1377.286,1250.592a3.556,3.556,0,0,1-.124.677,3.806,3.806,0,0,1-.582,1.218,4.2,4.2,0,0,1-1.386,1.256,3.065,3.065,0,0,0-.871.721,3.674,3.674,0,0,0-.816,2.443c.006.191.012.382.015.573.021,1.03.017,2.095.009,3.194,0,.136,0,.272,0,.411-.006.425-.006.862-.006,1.3-.008.28-.008.564-.008.844,0,.154,0,.307-.006.46-.008.59-.04,1.183-.1,1.768h-33.8c-.058-.585-.09-1.178-.1-1.768-.006-.154-.006-.307-.006-.46v-.83c0-.446,0-.883-.005-1.314,0-.137,0-.275-.005-.411-.012-1.1-.015-2.164,0-3.194.005-.232.011-.463.017-.692a3.4,3.4,0,0,0-1.713-3.065,4.113,4.113,0,0,1-1.605-5.469,4.019,4.019,0,0,1,1.044-1.285,8.426,8.426,0,0,1,1.662-1.07c.005,0,.005-.009.011,0a6.458,6.458,0,0,1,1.832-.608l9.022-1.936a.36.36,0,0,1,.09-.021c.226-.043.4-.066.44-.072.154-.017.573-.084,1.522-.24a6.6,6.6,0,0,0,4.658,2.7,6.779,6.779,0,0,0,5.631-2.555.048.048,0,0,0,.021,0,.04.04,0,0,0,.017.005c.211.032.413.058.611.09.141.026.28.046.417.072a.422.422,0,0,1,.1.021l8.982,1.927a6.657,6.657,0,0,1,1.869.616,8.537,8.537,0,0,1,1.675,1.07,4.158,4.158,0,0,1,1.042,1.285A4.226,4.226,0,0,1,1377.286,1250.592Z" transform="translate(-1329.545 -1195.546)" fill="#6ebdbf"/>
            <path id="Контур_930" data-name="Контур 930" d="M1345.354,1216.349c.579,2.745-.583,5.313-2.593,5.736s-4.11-1.459-4.687-4.2.584-5.314,2.594-5.737,4.109,1.46,4.687,4.205Z" transform="translate(-1329.743 -1192.761)" fill="#f48989"/>
            <path id="Контур_931" data-name="Контур 931" d="M1377.618,1217.882c.579-2.745-.582-5.314-2.593-5.737s-4.109,1.46-4.687,4.205.583,5.313,2.594,5.736,4.108-1.459,4.686-4.2Z" transform="translate(-1332.648 -1192.761)" fill="#f48989"/>
            <path id="Контур_932" data-name="Контур 932" d="M1340.1,1212.214c0-11.8,3.028-21.364,16.807-21.364s16.807,9.564,16.807,21.364-7.526,21.367-16.807,21.367-16.807-9.567-16.807-21.367Z" transform="translate(-1329.939 -1190.85)" fill="#ffa898"/>
            <ellipse id="Эллипс_152" data-name="Эллипс 152" cx="1.514" cy="2.183" rx="1.514" ry="2.183" transform="translate(17.922 22.321)" fill="#3a2e32"/>
            <ellipse id="Эллипс_153" data-name="Эллипс 153" cx="1.514" cy="2.135" rx="1.514" ry="2.135" transform="translate(31.867 22.417)" fill="#3a2e32"/>
            <g id="Сгруппировать_766" data-name="Сгруппировать 766" transform="translate(22.266 33.493)">
              <path id="SVGID-4" data-name="SVGID" d="M1354.767,1227.905a19.921,19.921,0,0,1,5.787-.066c.59.086,1.056.187,1.337.252a5.852,5.852,0,0,1-2.431,1.276,6.666,6.666,0,0,1-1.8.245,6.8,6.8,0,0,1-1.8-.251,6.541,6.541,0,0,1-2.46-1.217C1353.678,1228.086,1354.158,1227.993,1354.767,1227.905Z" transform="translate(-1353.402 -1227.656)" fill="#fff"/>
            </g>
            <path id="Контур_933" data-name="Контур 933" d="M1351.471,1211.135c.741.185.955-.227.935-.636-.021-.442-.2-.853-.635-.936-.167-.032-4.754-1.344-6.385,1.063-.319.472-.67,1.251-.316,1.142.258-.08.661-.73,1.209-.987C1347.826,1210.056,1350.215,1210.823,1351.471,1211.135Z" transform="translate(-1330.373 -1192.5)" fill="#4d4d4d"/>
            <path id="Контур_934" data-name="Контур 934" d="M1363.666,1211.135c-.741.185-.955-.227-.936-.636.021-.442.2-.853.635-.936.167-.032,4.754-1.344,6.384,1.063.32.472.67,1.251.316,1.142-.258-.08-.661-.73-1.209-.987C1367.312,1210.056,1364.924,1210.823,1363.666,1211.135Z" transform="translate(-1331.976 -1192.5)" fill="#4d4d4d"/>
            <path id="Контур_935" data-name="Контур 935" d="M1364.705,1245.616h-12.976v-4.488a26.5,26.5,0,0,0,12.976,0Z" transform="translate(-1330.986 -1195.376)" fill="#6ebdbf"/>
          </g>
          <path id="Контур_936" data-name="Контур 936" d="M1341.443,1220.873" transform="translate(-1330.06 -1193.552)" fill="#9a5124"/>
        </g>
        <path id="Контур_937" data-name="Контур 937" d="M1370.911,1215.043c15.6-15.29-1.409-29.793-7.546-28.173-25.734-13.837-48.126,22.859-19.688,41.737-3.58-2.062-5.372-16.988.936-18.755s13.808-6.482,16.2-10.312c-.082,3.4-1.631,5.716-4.661,7.839,7.371-.637,11.793-6.652,12.448-9.837a12.427,12.427,0,0,1,0,11.536c1.8-1.628,3.276-2.9,3.276-4.742C1372.895,1207.871,1372.786,1208.856,1370.911,1215.043Z" transform="translate(-1329.068 -1183.822)" fill="#4d4d4d" fill-rule="evenodd"/>
      </g>
      <g id="Сгруппировать_794" data-name="Сгруппировать 794" transform="translate(161.602 9.02)">
        <g id="Сгруппировать_792" data-name="Сгруппировать 792" transform="translate(0 5.322)">
          <g id="Сгруппировать_791" data-name="Сгруппировать 791">
            <g id="Сгруппировать_781" data-name="Сгруппировать 781">
              <g id="Сгруппировать_770" data-name="Сгруппировать 770" transform="translate(0 52.662)">
                <path id="Контур_938" data-name="Контур 938" d="M1487.766,1153.24c-.009.03-.018.06-.03.091l-1.235,3.258-1.2,3.16-1.268,3.349-.685,1.807-.516,1.353-.7,1.854h-9.218l.7-1.854,1.2-3.16,1.268-3.349,1.2-3.16,1.269-3.349,1.125-2.967c.025-.067.052-.131.082-.195a4.322,4.322,0,0,1,2.955-2.469c.005,0,.005-.009.012,0a4.216,4.216,0,0,1,.98-.118,4.022,4.022,0,0,1,.433.022,4.6,4.6,0,0,1,1.1.26,4.29,4.29,0,0,1,2.4,2.26l.018.045A4.281,4.281,0,0,1,1487.766,1153.24Z" transform="translate(-1472.912 -1147.492)" fill="#7e5c99"/>
              </g>
              <g id="Сгруппировать_771" data-name="Сгруппировать 771" transform="translate(41.434 52.662)">
                <path id="Контур_939" data-name="Контур 939" d="M1533.543,1168.112h-9.214l-.7-1.854-.519-1.368-.68-1.793-1.271-3.349-1.2-3.16-1.238-3.258a.931.931,0,0,1-.031-.091,4.281,4.281,0,0,1,.115-3.161l.018-.045a4.293,4.293,0,0,1,2.4-2.26,4.661,4.661,0,0,1,1.1-.26,3.982,3.982,0,0,1,.43-.022,4.2,4.2,0,0,1,.98.118,4.342,4.342,0,0,1,2.969,2.469,1.867,1.867,0,0,1,.082.195l1.126,2.967,1.268,3.349,1.2,3.16,1.268,3.349,1.2,3.16Z" transform="translate(-1518.445 -1147.492)" fill="#7e5c99"/>
              </g>
              <g id="Сгруппировать_772" data-name="Сгруппировать 772" transform="translate(23.34 33.493)">
                <path id="Контур_940" data-name="Контур 940" d="M1503.974,1152.634a5.412,5.412,0,0,0,5.412-5.413V1132.05a5.548,5.548,0,0,0-4.3-5.512,5.418,5.418,0,0,0-6.526,5.3v15.381a5.413,5.413,0,0,0,5.414,5.413Z" transform="translate(-1498.561 -1126.427)" fill="#ffa898"/>
              </g>
              <g id="Сгруппировать_773" data-name="Сгруппировать 773" transform="translate(6.477 49.766)">
                <path id="Контур_941" data-name="Контур 941" d="M1523.6,1152.245a3.738,3.738,0,0,1-.13.71,4.014,4.014,0,0,1-.61,1.277,4.418,4.418,0,0,1-1.453,1.317,3.221,3.221,0,0,0-.913.755,3.842,3.842,0,0,0-.855,2.56q.01.3.015.6c.021,1.08.018,2.2.009,3.349,0,.143,0,.285,0,.431-.005.446-.005.9-.005,1.362-.009.294-.009.591-.009.885,0,.161,0,.322-.006.482-.009.619-.043,1.241-.1,1.854H1484.1c-.061-.612-.095-1.235-.1-1.854-.005-.16-.005-.321-.005-.482v-.87c0-.468,0-.925-.007-1.378,0-.142,0-.287-.006-.431-.012-1.149-.015-2.268,0-3.349.006-.242.013-.485.018-.724a3.562,3.562,0,0,0-1.8-3.212,4.322,4.322,0,0,1-2.008-2.573,4.286,4.286,0,0,1,.324-3.16,4.22,4.22,0,0,1,1.095-1.347,8.768,8.768,0,0,1,1.741-1.122c.006,0,.006-.009.012,0a6.717,6.717,0,0,1,1.92-.637l9.457-2.029a.357.357,0,0,1,.094-.022c.237-.046.416-.069.461-.076.161-.018.6-.088,1.6-.252a6.926,6.926,0,0,0,4.884,2.827,6.19,6.19,0,0,0,1.644-.079,6.087,6.087,0,0,0,.78-.194,7.559,7.559,0,0,0,3.479-2.405.051.051,0,0,0,.022,0,.046.046,0,0,0,.018.006c.221.033.433.06.64.094.148.027.294.048.437.076a.4.4,0,0,1,.1.022l9.416,2.02a6.958,6.958,0,0,1,1.959.646,8.926,8.926,0,0,1,1.756,1.122,4.363,4.363,0,0,1,1.092,1.347A4.434,4.434,0,0,1,1523.6,1152.245Z" transform="translate(-1480.03 -1144.31)" fill="#7e5c99"/>
              </g>
              <g id="Сгруппировать_774" data-name="Сгруппировать 774" transform="translate(8.578 20.255)">
                <path id="Контур_942" data-name="Контур 942" d="M1490.125,1116.35c.606,2.877-.611,5.569-2.718,6.013s-4.307-1.53-4.913-4.407.612-5.57,2.719-6.014,4.306,1.53,4.912,4.408Z" transform="translate(-1482.339 -1111.88)" fill="#f48989"/>
              </g>
              <g id="Сгруппировать_775" data-name="Сгруппировать 775" transform="translate(39.354 20.255)">
                <path id="Контур_943" data-name="Контур 943" d="M1523.945,1117.956c.607-2.878-.611-5.57-2.718-6.014s-4.307,1.53-4.912,4.408.611,5.569,2.718,6.013,4.307-1.53,4.912-4.407Z" transform="translate(-1516.159 -1111.88)" fill="#f48989"/>
              </g>
              <g id="Сгруппировать_776" data-name="Сгруппировать 776" transform="translate(10.649)">
                <path id="Контур_944" data-name="Контур 944" d="M1484.614,1112.015c0-12.369,3.175-22.394,17.617-22.394s17.617,10.025,17.617,22.394-7.888,22.4-17.617,22.4-17.617-10.028-17.617-22.4Z" transform="translate(-1484.614 -1089.621)" fill="#ffa898"/>
              </g>
              <g id="Сгруппировать_777" data-name="Сгруппировать 777" transform="translate(18.787 23.397)">
                <ellipse id="Эллипс_154" data-name="Эллипс 154" cx="1.587" cy="2.288" rx="1.587" ry="2.288" fill="#563d47"/>
              </g>
              <g id="Сгруппировать_778" data-name="Сгруппировать 778" transform="translate(33.404 23.498)">
                <ellipse id="Эллипс_155" data-name="Эллипс 155" cx="1.587" cy="2.238" rx="1.587" ry="2.238" fill="#563d47"/>
              </g>
              <g id="Сгруппировать_779" data-name="Сгруппировать 779" transform="translate(15.252 17.482)">
                <path id="Контур_945" data-name="Контур 945" d="M1496.537,1110.885c.776.193,1-.238.98-.668-.022-.462-.211-.894-.666-.981-.175-.033-4.982-1.409-6.691,1.115-.336.494-.7,1.31-.331,1.2.27-.084.693-.765,1.268-1.035C1492.715,1109.753,1495.219,1110.557,1496.537,1110.885Z" transform="translate(-1489.673 -1108.832)" fill="#b26857"/>
              </g>
              <g id="Сгруппировать_780" data-name="Сгруппировать 780" transform="translate(32.238 17.482)">
                <path id="Контур_946" data-name="Контур 946" d="M1509.32,1110.885c-.776.193-1-.238-.98-.668.022-.462.211-.894.666-.981.175-.033,4.982-1.409,6.691,1.115.336.494.7,1.31.331,1.2-.27-.084-.693-.765-1.268-1.035C1513.142,1109.753,1510.638,1110.557,1509.32,1110.885Z" transform="translate(-1508.339 -1108.832)" fill="#b26857"/>
              </g>
            </g>
            <g id="Сгруппировать_782" data-name="Сгруппировать 782" transform="translate(23.748 36.888)">
              <path id="SVGID-5" data-name="SVGID" d="M1500.439,1130.42a20.871,20.871,0,0,1,6.067-.07c.618.091,1.107.2,1.4.264a6.126,6.126,0,0,1-2.547,1.338,6.971,6.971,0,0,1-1.888.257,7.1,7.1,0,0,1-1.884-.263,6.85,6.85,0,0,1-2.578-1.276C1499.3,1130.609,1499.8,1130.511,1500.439,1130.42Z" transform="translate(-1499.009 -1130.158)" fill="#fff"/>
            </g>
            <g id="Сгруппировать_783" data-name="Сгруппировать 783" transform="translate(20.911 50.929)">
              <path id="Контур_947" data-name="Контур 947" d="M1511.139,1146.487l-.907-.452a1.532,1.532,0,0,1-.581-.447,11.413,11.413,0,0,1-5.782,1.52,2.685,2.685,0,0,1,2.074.636c-3.026.516-6.6,1.448-8.5-1.941a1.434,1.434,0,0,1-.367.232l-.907.452-.275.136c1.514,6.219,3.107,12.3,4.576,18.444h8.144c1.8-5.695,3.144-11.645,4.677-17.509Z" transform="translate(-1495.891 -1145.588)" fill="#fff"/>
            </g>
            <g id="Сгруппировать_784" data-name="Сгруппировать 784" transform="translate(24.982 52.703)">
              <path id="Контур_948" data-name="Контур 948" d="M1502.208,1153.7l-1.843-6.168h7.38l-1.843,6.168C1505.081,1155.886,1503.029,1155.886,1502.208,1153.7Z" transform="translate(-1500.365 -1147.537)" fill="#5d3d7d"/>
            </g>
            <g id="Сгруппировать_785" data-name="Сгруппировать 785" transform="translate(23.427 59.754)">
              <path id="Контур_949" data-name="Контур 949" d="M1508,1168.815h-9.345l1.361-5.748.507-2.129.707-2.988c1.361-3.409,4.307-3.582,5.3-.309l.561,4.281.531,4.018Z" transform="translate(-1498.656 -1155.286)" fill="#5d3d7d"/>
            </g>
            <g id="Сгруппировать_786" data-name="Сгруппировать 786" transform="translate(15.549 50.018)">
              <path id="Контур_950" data-name="Контур 950" d="M1501.513,1167.852h-5.881c-1.911-5.739-5.633-18.272-5.633-18.272l6.2-4.993.391,1.335,3.158,14.053,1.122,5Z" transform="translate(-1489.999 -1144.587)" fill="#5d3d7d"/>
            </g>
            <g id="Сгруппировать_787" data-name="Сгруппировать 787" transform="translate(30.318 50.217)">
              <path id="Контур_951" data-name="Контур 951" d="M1517.746,1149.6l-.194.658-.018.055c-.816,2.735-3.786,12.642-5.424,17.559h-5.881l.646-2.875.9-4.018,3.376-15.021.576-1.151Z" transform="translate(-1506.229 -1144.805)" fill="#5d3d7d"/>
            </g>
            <g id="Сгруппировать_790" data-name="Сгруппировать 790" transform="translate(21.366 48.455)">
              <g id="Сгруппировать_788" data-name="Сгруппировать 788">
                <path id="Контур_952" data-name="Контур 952" d="M1498.366,1142.869l-1.975,1.942,3.96,9.1,3.672-6.937S1498.637,1144.811,1498.366,1142.869Z" transform="translate(-1496.391 -1142.869)" fill="#eaeaea"/>
              </g>
              <g id="Сгруппировать_789" data-name="Сгруппировать 789" transform="translate(6.988)">
                <path id="Контур_953" data-name="Контур 953" d="M1509.9,1142.869l1.806,1.942-3.959,9.1-3.673-6.937S1509.625,1144.811,1509.9,1142.869Z" transform="translate(-1504.07 -1142.869)" fill="#eaeaea"/>
              </g>
            </g>
          </g>
        </g>
        <path id="Контур_954" data-name="Контур 954" d="M1520.875,1100.889a12.147,12.147,0,0,0-2.417-5.534,11.694,11.694,0,0,0,1.584-2.445,9.611,9.611,0,0,0,.689-6.273c-.161-.793-1.4-.951-2-.454a15.358,15.358,0,0,1-4.719,2.575,8.014,8.014,0,0,0,1.511-3.773c.071-.844-1.029-1.153-1.768-.873-3.3,1.251-7.348,1.967-10.756,3.387.083-.151.159-.307.234-.463.276-.212,1.6-3.307.6-3.263-1.076.046-1.679,1.637-4.32,2.286-1.625.459-21.418,1.254-16.9,20.124a18.978,18.978,0,0,0,1.087,4.253c.016.165.026.33.044.5.1.938,1.805.957,1.723,0,0-.062.005-.126.008-.188a.527.527,0,0,0,.013-.067c0-.045,0-.088,0-.133q.03-.669.035-1.388a13.653,13.653,0,0,1,1.242-4.565,6.282,6.282,0,0,1,4.824-3.277c2.986-.371,6.609.511,9.812.9,4.271.519,10.712-2.579,14.244-.135,1.948,2.138,2.1,5.728,2.64,8.321.188.908,1.818.666,1.829-.213C1520.148,1106.946,1521.449,1104.188,1520.875,1100.889Z" transform="translate(-1473.725 -1083.772)" fill="#b26857"/>
        <g id="Сгруппировать_793" data-name="Сгруппировать 793" transform="translate(10.084 25.032)">
          <path id="Контур_955" data-name="Контур 955" d="M1505.342,1112.222a7.29,7.29,0,0,1-6.742,0c-2.855-.919-10.052-1.513-14.606-.089l.136,2.463a.948.948,0,0,1,1.1.712c.273.89.908,4.56,2.068,5.993,1.442,1.78,4.545,1.849,6.644,1.761,2.827-.119,4.677-1.345,5.466-3.423s1.235-3.856,1.741-4.421a1.2,1.2,0,0,1,1.641,0c.506.564.951,2.344,1.741,4.421s2.64,3.3,5.466,3.423c2.1.088,5.2.019,6.644-1.761,1.16-1.433,1.8-5.1,2.068-5.993a.948.948,0,0,1,1.1-.712l.136-2.463C1515.393,1110.708,1508.2,1111.3,1505.342,1112.222Zm-20.508,1.068c0-.175.458-.317,1.023-.317s1.022.142,1.022.317-.458.317-1.022.317S1484.834,1113.465,1484.834,1113.29Zm13.311,6.349a4.717,4.717,0,0,1-3.948,2.344,9.775,9.775,0,0,1-5.354-.8c-1.015-.592-1.508-2.462-1.751-3.59s-.669-3.561.516-4.362,4.162-.86,6.134-.742c1.488.089,4.706.474,5.314,1.6S1498.759,1118.511,1498.145,1119.639Zm18.706-2.046c-.243,1.127-.736,3-1.751,3.59a9.777,9.777,0,0,1-5.355.8,4.716,4.716,0,0,1-3.948-2.344c-.614-1.128-1.518-4.421-.911-5.548s3.827-1.512,5.314-1.6c1.972-.118,4.95-.059,6.134.742S1517.094,1116.465,1516.851,1117.593Zm1.235-3.986c-.564,0-1.022-.142-1.022-.317s.458-.317,1.022-.317,1.023.142,1.023.317S1518.651,1113.607,1518.086,1113.607Z" transform="translate(-1483.994 -1111.281)" fill="#4f4f4f"/>
        </g>
      </g>
    </g>
    <path id="Контур_956" data-name="Контур 956" d="M1362.43,1129.622a.241.241,0,0,0,.083-.015c.768-.272,1.135-.574,1.154-.951a.8.8,0,0,0-.309-.6,2.909,2.909,0,0,1-.3-.366,2.335,2.335,0,0,1-.379-1.063.245.245,0,0,0-.487.056,2.828,2.828,0,0,0,.46,1.284,3.256,3.256,0,0,0,.354.426c.1.1.177.187.175.235,0,.023-.034.232-.828.513a.245.245,0,0,0,.082.477Z" transform="translate(-10.969 -11.166)" fill="#a88471"/>
    <path id="Контур_957" data-name="Контур 957" d="M1503.94,1124.914a.266.266,0,0,0,.083-.014c.768-.273,1.135-.575,1.154-.951a.8.8,0,0,0-.309-.6,2.884,2.884,0,0,1-.3-.365,2.334,2.334,0,0,1-.378-1.064.245.245,0,1,0-.487.056,2.82,2.82,0,0,0,.46,1.283,3.352,3.352,0,0,0,.354.427c.1.1.177.188.175.234,0,.024-.034.232-.828.514a.245.245,0,0,0,.082.476Z" transform="translate(-23.707 -10.743)" fill="#f48989"/>
    <path id="Контур_958" data-name="Контур 958" d="M1503.94,1221.787a.262.262,0,0,0,.083-.014c.768-.273,1.135-.575,1.154-.951a.8.8,0,0,0-.309-.6,2.865,2.865,0,0,1-.3-.365,2.334,2.334,0,0,1-.378-1.064.245.245,0,1,0-.487.056,2.822,2.822,0,0,0,.46,1.283,3.358,3.358,0,0,0,.354.427c.1.1.177.187.175.234,0,.024-.034.232-.828.514a.245.245,0,0,0,.082.476Z" transform="translate(-23.707 -19.462)" fill="#a88471"/>
    <path id="Контур_959" data-name="Контур 959" d="M1358.29,1221.787a.256.256,0,0,0,.082-.014c.768-.273,1.135-.575,1.154-.951a.8.8,0,0,0-.308-.6,2.8,2.8,0,0,1-.3-.365,2.334,2.334,0,0,1-.379-1.064.246.246,0,0,0-.488.056,2.834,2.834,0,0,0,.46,1.283,3.274,3.274,0,0,0,.355.427c.095.1.177.187.175.234,0,.024-.034.232-.828.514a.245.245,0,0,0,.082.476Z" transform="translate(-10.597 -19.462)" fill="#ed9c91"/>
  </g>
</svg>
