<svg width="551" height="486" viewBox="0 0 551 486" fill="none" xmlns="http://www.w3.org/2000/svg">
<path d="M468.492 84.9331C497.275 108.138 534.561 156.184 522.354 190.05C506.919 232.901 431.368 200.739 370.472 253.422C317.324 299.434 343.037 351.539 286.903 392.204C250.601 418.496 192.671 430.968 155.226 409.047C71.0143 359.784 57.1741 166.742 133.268 129.429C171.114 110.892 220.62 180.749 265.662 160.219C303.659 142.914 285.235 88.2655 327.524 61.6226C365.752 37.6566 427.958 52.1738 468.492 84.9331Z" fill="url(#paint0_linear)"/>
<mask id="mask0" mask-type="alpha" maskUnits="userSpaceOnUse" x="308" y="92" width="135" height="290">
<rect x="308.613" y="92.884" width="133.425" height="288.91" rx="12.9683" fill="white" stroke="#979797" stroke-width="0.152569"/>
</mask>
<g mask="url(#mask0)">
<path d="M293.217 92.9362L293.217 381.623L455.896 381.623L455.896 92.9362L293.217 92.9362Z" fill="#E4EEF3"/>
<mask id="mask1" mask-type="alpha" maskUnits="userSpaceOnUse" x="293" y="92" width="163" height="290">
<path d="M293.217 92.9362L293.217 381.623L455.896 381.623L455.896 92.9362L293.217 92.9362Z" fill="#E4EEF3"/>
</mask>
<g mask="url(#mask1)">
<path d="M371.418 221.671C371.418 221.671 386.854 238.821 339.323 283.658C291.546 328.739 282.971 315.509 282.971 315.509L268.516 305.953L257.735 255.727L280.766 250.336L283.216 253.277C283.216 253.277 288.116 253.767 290.566 250.336C293.016 246.906 308.942 234.901 331.727 205.745C342.263 192.515 368.478 218.485 371.418 221.671Z" fill="#D1DBEA"/>
<path d="M333.687 382.395L331.972 554.881L368.478 574.972C368.478 574.972 390.284 533.81 392.979 481.379C394.204 459.083 394.694 409.101 382.199 392.196C365.293 368.92 333.687 382.395 333.687 382.395Z" fill="#1F6CD1"/>
<path d="M347.164 382.396L353.044 442.178L369.214 506.86L386.365 567.377L447.862 735.207L465.747 736.677C465.747 736.677 463.542 610.743 441.736 573.992C430.221 554.636 430.221 511.27 424.831 464.963C423.851 456.633 428.506 437.768 427.771 429.927C424.831 399.791 409.15 377.251 409.15 377.251L347.164 382.396Z" fill="#2C7EEA"/>
<path d="M333.198 385.091L412.09 383.375L445.901 270.427C445.901 270.427 467.707 202.07 425.81 201.335C383.914 200.355 335.648 200.355 335.648 200.355C335.648 200.355 300.857 264.057 333.198 385.091Z" fill="#D1DBEA"/>
<path d="M474.813 352.015L424.831 412.777C424.831 412.777 426.546 421.597 430.711 416.942C431.201 416.452 428.751 414.492 431.936 413.022C444.187 406.407 473.098 396.116 483.633 385.581C497.598 372.105 507.644 355.935 507.644 355.935L474.813 352.015Z" fill="#E9D6B8"/>
<path d="M376.074 216.28C376.074 216.28 339.323 279.737 349.858 349.809C350.593 355.445 357.209 359.365 357.209 359.365L366.274 351.524C366.274 351.279 365.539 271.897 376.074 216.28Z" fill="#FF6440"/>
<path d="M377.299 214.565L379.259 228.531L403.27 205.99L403.27 202.315L377.299 214.565Z" fill="#B0BFDE"/>
<path d="M369.703 205.5L365.538 223.876L376.318 214.565L369.703 205.5Z" fill="#B0BFDE"/>
<path d="M441.981 268.467L469.422 347.604L475.302 350.054L472.117 355.2L505.928 361.08L520.873 335.109L481.182 227.795C481.182 227.795 465.991 205.255 431.936 201.58C407.19 198.885 440.021 261.852 441.981 268.467Z" fill="#D1DBEA"/>
<path d="M406.21 185.409C405.23 189.819 403.76 196.435 402.045 200.355C399.35 206.48 375.584 214.32 371.909 215.3C368.234 216.28 372.889 196.925 372.889 192.514C372.889 189.084 375.094 190.309 372.399 185.409L406.21 185.409Z" fill="#E9D6B8"/>
<path d="M365.783 175.609C365.293 179.284 367.743 182.96 371.418 183.45L402.044 188.35C405.719 188.84 409.394 186.39 409.884 182.715L417.235 137.388C417.725 133.713 415.275 130.038 411.599 129.548L380.974 124.648C377.298 124.158 373.623 126.608 373.133 130.283L365.783 175.609Z" fill="#E9D6B8"/>
<path d="M371.664 139.838C371.664 139.838 368.234 134.693 367.989 131.998C367.744 130.528 369.949 125.628 373.624 124.158C377.299 122.688 379.504 126.853 379.504 126.853C379.504 126.853 373.624 129.058 373.134 130.038C372.644 131.263 371.664 139.838 371.664 139.838Z" fill="#163F59"/>
<path d="M416.99 158.459C416.99 158.459 424.34 141.798 424.34 136.653C424.34 131.508 424.34 127.833 418.215 126.118C409.149 123.667 408.659 125.628 404.494 122.197C400.329 118.767 393.469 110.437 390.774 109.457C386.364 107.497 378.769 107.987 377.054 116.807C375.828 123.177 371.418 124.157 371.418 124.402C371.663 125.138 373.133 126.363 376.073 128.323C383.914 133.958 388.814 135.673 395.674 134.938C402.534 134.203 415.275 132.488 415.765 137.633C416.5 142.778 413.56 157.234 413.805 158.459C414.295 159.439 415.765 159.194 416.99 158.459Z" fill="#194866"/>
<path d="M405.23 170.464C404.985 171.689 405.965 172.914 407.19 173.159L413.805 174.139C415.03 174.384 416.255 173.404 416.5 172.179L418.46 160.174C418.705 158.949 417.725 157.724 416.5 157.479L409.885 156.499C408.66 156.254 407.435 157.234 407.19 158.459L405.23 170.464Z" fill="#E9D6B8"/>
<path d="M366.029 164.094C365.784 165.319 366.764 166.544 367.989 166.789L374.604 167.769C375.829 168.014 377.054 167.034 377.299 165.809L379.259 153.804C379.504 152.579 378.524 151.354 377.299 151.109L370.684 150.129C369.459 149.884 368.234 150.864 367.989 152.089L366.029 164.094Z" fill="#E9D6B8"/>
<path d="M413.56 161.889C413.56 161.889 410.619 179.775 409.639 185.655C408.659 191.045 404.739 202.56 374.358 197.66C356.473 194.72 359.168 181.735 359.903 177.325C360.393 174.139 365.783 164.829 367.988 163.114L366.763 170.464C366.763 170.464 371.663 163.849 380.239 165.319C393.959 167.524 395.919 176.099 402.044 176.835C406.699 177.57 411.355 170.464 413.56 161.889Z" fill="#194866"/>
<path d="M384.159 177.815L374.848 176.345C373.623 176.1 372.643 174.875 372.888 173.65L373.133 172.425L387.099 174.63L386.854 175.855C386.609 177.325 385.384 178.06 384.159 177.815Z" fill="#E9D6B8"/>
</g>
</g>
<path fill-rule="evenodd" clip-rule="evenodd" d="M424.361 104.578C425.098 104.578 425.807 104.862 426.342 105.37C426.382 105.409 426.447 105.409 426.486 105.369L426.871 104.981C426.891 104.96 426.902 104.933 426.902 104.904C426.902 104.876 426.89 104.849 426.87 104.829C425.467 103.484 423.254 103.484 421.851 104.829C421.831 104.849 421.82 104.876 421.819 104.904C421.819 104.933 421.83 104.96 421.85 104.981L422.235 105.369C422.275 105.409 422.339 105.409 422.379 105.37C422.914 104.862 423.623 104.578 424.361 104.578ZM424.359 105.842C424.764 105.842 425.155 105.992 425.455 106.264C425.496 106.303 425.56 106.302 425.6 106.262L425.984 105.874C426.004 105.854 426.015 105.826 426.015 105.797C426.015 105.769 426.003 105.741 425.982 105.721C425.068 104.87 423.651 104.87 422.737 105.721C422.716 105.741 422.704 105.769 422.704 105.797C422.704 105.826 422.715 105.854 422.735 105.874L423.119 106.262C423.159 106.302 423.223 106.303 423.264 106.264C423.564 105.992 423.954 105.842 424.359 105.842ZM425.129 106.692C425.13 106.72 425.118 106.748 425.098 106.768L424.433 107.439C424.414 107.459 424.387 107.47 424.359 107.47C424.332 107.47 424.305 107.459 424.286 107.439L423.621 106.768C423.6 106.748 423.589 106.72 423.59 106.692C423.59 106.663 423.603 106.636 423.624 106.616C424.049 106.257 424.67 106.257 425.095 106.616C425.116 106.636 425.129 106.663 425.129 106.692Z" fill="black"/>
<path opacity="0.35" d="M428.561 104.454C428.561 104.113 428.838 103.836 429.179 103.836H434.978C435.32 103.836 435.597 104.113 435.597 104.454V106.704C435.597 107.046 435.32 107.322 434.978 107.322H429.179C428.838 107.322 428.561 107.046 428.561 106.704V104.454Z" stroke="black" stroke-width="0.285412"/>
<path opacity="0.4" d="M436.072 104.914V106.245C436.34 106.132 436.514 105.87 436.514 105.58C436.514 105.289 436.34 105.027 436.072 104.914Z" fill="black"/>
<path d="M429.084 104.739C429.084 104.529 429.254 104.359 429.465 104.359H434.694C434.904 104.359 435.074 104.529 435.074 104.739V106.419C435.074 106.629 434.904 106.799 434.694 106.799H429.465C429.254 106.799 429.084 106.629 429.084 106.419V104.739Z" fill="black"/>
<path fill-rule="evenodd" clip-rule="evenodd" d="M419.653 103.804H419.32C419.136 103.804 418.987 103.953 418.987 104.137V107.021C418.987 107.205 419.136 107.354 419.32 107.354H419.653C419.837 107.354 419.986 107.205 419.986 107.021V104.137C419.986 103.953 419.837 103.804 419.653 103.804ZM417.767 104.58H418.1C418.284 104.58 418.433 104.729 418.433 104.913V107.021C418.433 107.205 418.284 107.354 418.1 107.354H417.767C417.583 107.354 417.434 107.205 417.434 107.021V104.913C417.434 104.729 417.583 104.58 417.767 104.58ZM416.547 105.357H416.214C416.03 105.357 415.881 105.506 415.881 105.69V107.021C415.881 107.205 416.03 107.354 416.214 107.354H416.547C416.73 107.354 416.879 107.205 416.879 107.021V105.69C416.879 105.506 416.73 105.357 416.547 105.357ZM414.994 106.023H414.661C414.477 106.023 414.328 106.172 414.328 106.356V107.021C414.328 107.205 414.477 107.354 414.661 107.354H414.994C415.178 107.354 415.327 107.205 415.327 107.021V106.356C415.327 106.172 415.178 106.023 414.994 106.023Z" fill="black"/>
<path d="M317.814 104.435C317.183 104.435 316.734 104.866 316.734 105.457V105.461C316.734 106.013 317.125 106.42 317.683 106.42C318.082 106.42 318.336 106.216 318.442 105.987H318.483C318.483 106.009 318.481 106.031 318.481 106.053C318.458 106.609 318.263 107.061 317.802 107.061C317.546 107.061 317.366 106.928 317.29 106.724L317.284 106.704H316.772L316.776 106.726C316.869 107.171 317.268 107.488 317.802 107.488C318.533 107.488 318.974 106.907 318.974 105.928V105.924C318.974 104.877 318.434 104.435 317.814 104.435ZM317.812 106.021C317.481 106.021 317.242 105.779 317.242 105.443V105.439C317.242 105.114 317.497 104.858 317.818 104.858C318.14 104.858 318.392 105.118 318.392 105.451V105.455C318.392 105.783 318.14 106.021 317.812 106.021ZM319.806 105.531C319.992 105.531 320.127 105.39 320.127 105.213C320.127 105.034 319.992 104.895 319.806 104.895C319.623 104.895 319.486 105.034 319.486 105.213C319.486 105.39 319.623 105.531 319.806 105.531ZM319.806 107.026C319.992 107.026 320.127 106.887 320.127 106.708C320.127 106.529 319.992 106.39 319.806 106.39C319.623 106.39 319.486 106.529 319.486 106.708C319.486 106.887 319.623 107.026 319.806 107.026ZM322.049 107.415H322.546V106.857H322.937V106.428H322.546V104.508H321.811C321.416 105.108 321.003 105.777 320.626 106.432V106.857H322.049V107.415ZM321.11 106.44V106.41C321.392 105.916 321.728 105.378 322.027 104.923H322.057V106.44H321.11ZM324.06 107.415H324.579V104.508H324.062L323.302 105.042V105.531L324.025 105.02H324.06V107.415ZM326.161 107.415H326.705L326.947 106.664H328.023L328.266 107.415H328.81L327.779 104.508H327.193L326.161 107.415ZM327.469 105.048H327.503L327.894 106.263H327.078L327.469 105.048ZM329.227 107.415H329.697V105.348H329.731L330.537 107.415H330.892L331.698 105.348H331.734V107.415H332.201V104.508H331.605L330.732 106.744H330.698L329.824 104.508H329.227V107.415Z" fill="black"/>
<path d="M308.101 250.466C308.101 244.396 308.101 241.361 309.282 239.043C310.321 237.004 311.979 235.346 314.018 234.307C316.336 233.126 319.371 233.126 325.441 233.126H424.447C430.517 233.126 433.551 233.126 435.87 234.307C437.909 235.346 439.567 237.004 440.606 239.043C441.787 241.361 441.787 244.396 441.787 250.466V347.144C441.787 353.214 441.787 356.249 440.606 358.567C439.567 360.606 437.909 362.264 435.87 363.303C433.551 364.484 430.517 364.484 424.447 364.484H325.441C319.371 364.484 316.336 364.484 314.018 363.303C311.979 362.264 310.321 360.606 309.282 358.567C308.101 356.249 308.101 353.214 308.101 347.144V250.466Z" fill="white"/>
<path d="M346.758 242.819V242.501H345.699V242.787H346.434V242.85C346.434 243.292 346.117 243.591 345.65 243.591C345.125 243.591 344.799 243.182 344.799 242.523C344.799 241.873 345.13 241.456 345.648 241.456C346.036 241.456 346.298 241.643 346.41 241.996H346.742C346.648 241.478 346.228 241.156 345.648 241.156C344.933 241.156 344.464 241.697 344.464 242.523C344.464 243.359 344.926 243.891 345.648 243.891C346.316 243.891 346.758 243.464 346.758 242.819ZM347.28 243.83H347.591V241.878H347.28V243.83ZM347.436 241.482C347.555 241.482 347.653 241.384 347.653 241.264C347.653 241.145 347.555 241.047 347.436 241.047C347.316 241.047 347.219 241.145 347.219 241.264C347.219 241.384 347.316 241.482 347.436 241.482ZM349.756 241.878H349.422L348.888 243.486H348.859L348.325 241.878H347.992L348.715 243.83H349.033L349.756 241.878ZM350.855 242.119C351.165 242.119 351.371 242.347 351.378 242.693H350.303C350.327 242.347 350.544 242.119 350.855 242.119ZM351.369 243.325C351.288 243.497 351.118 243.589 350.866 243.589C350.535 243.589 350.319 243.345 350.303 242.959V242.944H351.706V242.825C351.706 242.218 351.386 241.844 350.859 241.844C350.323 241.844 349.979 242.242 349.979 242.856C349.979 243.473 350.317 243.864 350.859 243.864C351.286 243.864 351.587 243.66 351.681 243.325H351.369ZM353.196 243.83H353.507V242.675C353.507 242.333 353.708 242.124 354.019 242.124C354.331 242.124 354.479 242.291 354.479 242.642V243.83H354.791V242.566C354.791 242.103 354.546 241.844 354.108 241.844C353.809 241.844 353.619 241.97 353.521 242.186H353.492V241.878H353.196V243.83ZM356.14 243.864C356.696 243.864 357.04 243.48 357.04 242.854C357.04 242.226 356.696 241.844 356.14 241.844C355.584 241.844 355.24 242.226 355.24 242.854C355.24 243.48 355.584 243.864 356.14 243.864ZM356.14 243.583C355.771 243.583 355.562 243.316 355.562 242.854C355.562 242.39 355.771 242.124 356.14 242.124C356.509 242.124 356.717 242.39 356.717 242.854C356.717 243.316 356.509 243.583 356.14 243.583ZM357.506 243.83H357.817V242.675C357.817 242.333 358.018 242.124 358.329 242.124C358.641 242.124 358.789 242.291 358.789 242.642V243.83H359.101V242.566C359.101 242.103 358.856 241.844 358.418 241.844C358.119 241.844 357.929 241.97 357.832 242.186H357.803V241.878H357.506V243.83ZM361.169 241.878H360.836L360.302 243.486H360.273L359.739 241.878H359.405L360.128 243.83H360.446L361.169 241.878ZM362.268 242.119C362.578 242.119 362.784 242.347 362.792 242.693H361.716C361.74 242.347 361.957 242.119 362.268 242.119ZM362.783 243.325C362.701 243.497 362.531 243.589 362.279 243.589C361.948 243.589 361.733 243.345 361.716 242.959V242.944H363.119V242.825C363.119 242.218 362.799 241.844 362.272 241.844C361.736 241.844 361.392 242.242 361.392 242.856C361.392 243.473 361.731 243.864 362.272 243.864C362.699 243.864 363 243.66 363.094 243.325H362.783ZM363.585 243.83H363.897V242.62C363.897 242.345 364.112 242.146 364.409 242.146C364.471 242.146 364.583 242.157 364.608 242.164V241.853C364.568 241.847 364.503 241.844 364.452 241.844C364.194 241.844 363.969 241.978 363.911 242.168H363.882V241.878H363.585V243.83ZM365.945 243.864C366.439 243.864 366.763 243.464 366.763 242.854C366.763 242.24 366.441 241.844 365.945 241.844C365.677 241.844 365.44 241.976 365.333 242.186H365.304V241.103H364.993V243.83H365.29V243.518H365.318C365.442 243.736 365.673 243.864 365.945 243.864ZM365.872 242.124C366.229 242.124 366.441 242.398 366.441 242.854C366.441 243.31 366.229 243.583 365.872 243.583C365.518 243.583 365.297 243.305 365.297 242.854C365.297 242.403 365.518 242.124 365.872 242.124ZM367.83 243.591C367.604 243.591 367.436 243.475 367.436 243.276C367.436 243.08 367.566 242.977 367.863 242.957L368.388 242.923V243.102C368.388 243.381 368.151 243.591 367.83 243.591ZM367.772 243.864C368.033 243.864 368.247 243.75 368.373 243.542H368.402V243.83H368.699V242.494C368.699 242.088 368.433 241.844 367.957 241.844C367.541 241.844 367.233 242.05 367.191 242.363H367.506C367.55 242.209 367.712 242.121 367.946 242.121C368.237 242.121 368.388 242.253 368.388 242.494V242.671L367.825 242.705C367.37 242.733 367.113 242.934 367.113 243.283C367.113 243.64 367.394 243.864 367.772 243.864ZM369.27 243.83H369.582V241.103H369.27V243.83ZM371.317 243.83H371.629V242.139H372.076V241.878H371.629V241.67C371.629 241.456 371.723 241.348 371.947 241.348C372.003 241.348 372.056 241.349 372.094 241.357V241.103C372.029 241.091 371.96 241.085 371.884 241.085C371.513 241.085 371.317 241.272 371.317 241.661V241.878H370.993V242.139H371.317V243.83ZM373.203 242.119C373.512 242.119 373.719 242.347 373.726 242.693H372.65C372.674 242.347 372.891 242.119 373.203 242.119ZM373.717 243.325C373.635 243.497 373.465 243.589 373.213 243.589C372.882 243.589 372.667 243.345 372.65 242.959V242.944H374.053V242.825C374.053 242.218 373.733 241.844 373.206 241.844C372.67 241.844 372.326 242.242 372.326 242.856C372.326 243.473 372.665 243.864 373.206 243.864C373.633 243.864 373.934 243.66 374.028 243.325H373.717ZM375.298 242.119C375.607 242.119 375.814 242.347 375.821 242.693H374.746C374.769 242.347 374.987 242.119 375.298 242.119ZM375.812 243.325C375.731 243.497 375.56 243.589 375.309 243.589C374.977 243.589 374.762 243.345 374.746 242.959V242.944H376.149V242.825C376.149 242.218 375.828 241.844 375.302 241.844C374.766 241.844 374.422 242.242 374.422 242.856C374.422 243.473 374.76 243.864 375.302 243.864C375.729 243.864 376.029 243.66 376.123 243.325H375.812ZM377.337 243.864C377.607 243.864 377.839 243.736 377.962 243.518H377.991V243.83H378.288V241.103H377.976V242.186H377.949C377.839 241.972 377.609 241.844 377.337 241.844C376.841 241.844 376.517 242.242 376.517 242.854C376.517 243.468 376.837 243.864 377.337 243.864ZM377.409 242.124C377.763 242.124 377.983 242.407 377.983 242.854C377.983 243.305 377.764 243.583 377.409 243.583C377.053 243.583 376.839 243.31 376.839 242.854C376.839 242.399 377.055 242.124 377.409 242.124ZM379.84 243.864C380.334 243.864 380.658 243.464 380.658 242.854C380.658 242.24 380.336 241.844 379.84 241.844C379.572 241.844 379.335 241.976 379.228 242.186H379.199V241.103H378.887V243.83H379.184V243.518H379.213C379.336 243.736 379.568 243.864 379.84 243.864ZM379.767 242.124C380.124 242.124 380.336 242.398 380.336 242.854C380.336 243.31 380.124 243.583 379.767 243.583C379.412 243.583 379.192 243.305 379.192 242.854C379.192 242.403 379.412 242.124 379.767 242.124ZM381.725 243.591C381.499 243.591 381.33 243.475 381.33 243.276C381.33 243.08 381.461 242.977 381.758 242.957L382.283 242.923V243.102C382.283 243.381 382.045 243.591 381.725 243.591ZM381.667 243.864C381.928 243.864 382.141 243.75 382.268 243.542H382.297V243.83H382.594V242.494C382.594 242.088 382.328 241.844 381.852 241.844C381.435 241.844 381.128 242.05 381.086 242.363H381.401C381.444 242.209 381.607 242.121 381.841 242.121C382.132 242.121 382.283 242.253 382.283 242.494V242.671L381.72 242.705C381.265 242.733 381.008 242.934 381.008 243.283C381.008 243.64 381.289 243.864 381.667 243.864ZM384.762 242.476C384.707 242.128 384.418 241.844 383.943 241.844C383.397 241.844 383.049 242.238 383.049 242.847C383.049 243.468 383.399 243.864 383.945 243.864C384.414 243.864 384.706 243.6 384.762 243.241H384.447C384.389 243.462 384.206 243.583 383.943 243.583C383.596 243.583 383.371 243.297 383.371 242.847C383.371 242.405 383.592 242.124 383.943 242.124C384.224 242.124 384.396 242.282 384.447 242.476H384.762ZM385.557 242.731H385.528V241.103H385.217V243.83H385.528V243.089L385.715 242.915L386.446 243.83H386.843L385.946 242.714L386.786 241.878H386.404L385.557 242.731ZM388.343 241.373V241.878H388.028V242.139H388.343V243.323C388.343 243.696 388.504 243.844 388.906 243.844C388.968 243.844 389.027 243.837 389.089 243.826V243.564C389.031 243.569 389 243.571 388.944 243.571C388.741 243.571 388.654 243.473 388.654 243.243V242.139H389.089V241.878H388.654V241.373H388.343ZM390.31 243.864C390.866 243.864 391.209 243.48 391.209 242.854C391.209 242.226 390.866 241.844 390.31 241.844C389.754 241.844 389.41 242.226 389.41 242.854C389.41 243.48 389.754 243.864 390.31 243.864ZM390.31 243.583C389.94 243.583 389.732 243.316 389.732 242.854C389.732 242.39 389.94 242.124 390.31 242.124C390.679 242.124 390.887 242.39 390.887 242.854C390.887 243.316 390.679 243.583 390.31 243.583ZM392.829 241.373V241.878H392.514V242.139H392.829V243.323C392.829 243.696 392.991 243.844 393.392 243.844C393.454 243.844 393.514 243.837 393.575 243.826V243.564C393.517 243.569 393.487 243.571 393.43 243.571C393.228 243.571 393.141 243.473 393.141 243.243V242.139H393.575V241.878H393.141V241.373H392.829ZM394.041 243.83H394.353V242.675C394.353 242.345 394.545 242.124 394.894 242.124C395.189 242.124 395.345 242.296 395.345 242.642V243.83H395.656V242.566C395.656 242.108 395.395 241.844 394.983 241.844C394.684 241.844 394.479 241.97 394.382 242.186H394.353V241.103H394.041V243.83ZM396.98 242.119C397.29 242.119 397.496 242.347 397.503 242.693H396.428C396.452 242.347 396.669 242.119 396.98 242.119ZM397.494 243.325C397.413 243.497 397.243 243.589 396.991 243.589C396.66 243.589 396.444 243.345 396.428 242.959V242.944H397.831V242.825C397.831 242.218 397.511 241.844 396.984 241.844C396.448 241.844 396.104 242.242 396.104 242.856C396.104 243.473 396.443 243.864 396.984 243.864C397.411 243.864 397.712 243.66 397.806 243.325H397.494ZM399.339 243.83H399.65V242.675C399.65 242.345 399.842 242.124 400.191 242.124C400.486 242.124 400.642 242.296 400.642 242.642V243.83H400.954V242.566C400.954 242.108 400.693 241.844 400.28 241.844C399.981 241.844 399.777 241.97 399.679 242.186H399.65V241.103H399.339V243.83ZM402.301 243.864C402.857 243.864 403.201 243.48 403.201 242.854C403.201 242.226 402.857 241.844 402.301 241.844C401.745 241.844 401.401 242.226 401.401 242.854C401.401 243.48 401.745 243.864 402.301 243.864ZM402.301 243.583C401.932 243.583 401.724 243.316 401.724 242.854C401.724 242.39 401.932 242.124 402.301 242.124C402.671 242.124 402.879 242.39 402.879 242.854C402.879 243.316 402.671 243.583 402.301 243.583ZM403.622 242.412C403.622 242.695 403.788 242.852 404.154 242.941L404.489 243.022C404.697 243.073 404.798 243.163 404.798 243.297C404.798 243.477 404.61 243.602 404.348 243.602C404.098 243.602 403.942 243.497 403.89 243.332H403.569C403.604 243.656 403.902 243.864 404.337 243.864C404.78 243.864 405.119 243.623 405.119 243.274C405.119 242.993 404.941 242.834 404.574 242.745L404.273 242.673C404.043 242.617 403.935 242.533 403.935 242.399C403.935 242.226 404.116 242.108 404.348 242.108C404.583 242.108 404.735 242.211 404.777 242.367H405.084C405.043 242.046 404.759 241.844 404.349 241.844C403.935 241.844 403.622 242.088 403.622 242.412ZM405.697 241.373V241.878H405.382V242.139H405.697V243.323C405.697 243.696 405.858 243.844 406.26 243.844C406.322 243.844 406.381 243.837 406.443 243.826V243.564C406.385 243.569 406.354 243.571 406.298 243.571C406.095 243.571 406.008 243.473 406.008 243.243V242.139H406.443V241.878H406.008V241.373H405.697Z" fill="#747487"/>
<path d="M308.101 345.861H441.787V353.647C441.787 359.632 436.935 364.484 430.95 364.484H318.938C312.953 364.484 308.101 359.632 308.101 353.647V345.861Z" fill="white"/>
<path fill-rule="evenodd" clip-rule="evenodd" d="M308.101 289.826H441.787V289.992H308.101V289.826Z" fill="#BABACC"/>
<path d="M371.61 281.32C372.327 281.32 372.851 280.91 372.944 280.293V280.28H372.45L372.445 280.288C372.354 280.652 372.035 280.879 371.61 280.879C371.03 280.879 370.67 280.4 370.67 279.638V279.633C370.67 278.869 371.03 278.39 371.608 278.39C372.031 278.39 372.354 278.646 372.448 279.041V279.047H372.942L372.944 279.036C372.86 278.397 372.316 277.949 371.608 277.949C370.714 277.949 370.159 278.595 370.159 279.633V279.638C370.159 280.674 370.716 281.32 371.61 281.32ZM373.477 281.242H373.961V279.823C373.961 279.433 374.181 279.19 374.535 279.19C374.89 279.19 375.057 279.388 375.057 279.789V281.242H375.538V279.676C375.538 279.099 375.24 278.776 374.698 278.776C374.346 278.776 374.114 278.932 373.996 279.19H373.961V277.873H373.477V281.242ZM376.786 281.282C377.107 281.282 377.361 281.144 377.503 280.899H377.541V281.242H378.02V279.587C378.02 279.079 377.677 278.776 377.069 278.776C376.519 278.776 376.138 279.041 376.08 279.437L376.077 279.453H376.543L376.545 279.444C376.603 279.272 376.779 279.174 377.047 279.174C377.374 279.174 377.541 279.321 377.541 279.587V279.801L376.886 279.838C376.309 279.874 375.984 280.126 375.984 280.558V280.563C375.984 281.001 376.325 281.282 376.786 281.282ZM376.465 280.543V280.538C376.465 280.32 376.617 280.199 376.951 280.179L377.541 280.141V280.349C377.541 280.661 377.276 280.897 376.915 280.897C376.654 280.897 376.465 280.765 376.465 280.543ZM379.524 281.258C379.618 281.258 379.707 281.247 379.785 281.233V280.848C379.718 280.854 379.676 280.857 379.602 280.857C379.364 280.857 379.266 280.75 379.266 280.489V279.203H379.785V278.822H379.266V278.212H378.774V278.822H378.395V279.203H378.774V280.605C378.774 281.071 378.992 281.258 379.524 281.258Z" fill="#232333"/>
<path fill-rule="evenodd" clip-rule="evenodd" d="M308.101 271.037H441.787V271.203H308.101V271.037Z" fill="#BABACC"/>
<path fill-rule="evenodd" clip-rule="evenodd" d="M308.101 308.449H441.787V308.616H308.101V308.449Z" fill="#BABACC"/>
<path fill-rule="evenodd" clip-rule="evenodd" d="M308.101 327.072H441.787V327.238H308.101V327.072Z" fill="#BABACC"/>
<path fill-rule="evenodd" clip-rule="evenodd" d="M308.101 345.695H441.787V345.861H308.101V345.695Z" fill="#BABACC"/>
<path fill-rule="evenodd" clip-rule="evenodd" d="M308.101 345.695H441.787V345.861H308.101V345.695Z" fill="#BABACC"/>
<path d="M334.373 256.09C334.373 256.181 334.329 256.259 334.243 256.336C334.026 256.492 333.852 256.635 333.708 256.765C333.288 257.128 332.912 257.556 332.551 258.088C331.973 258.905 330.989 259.398 329.905 259.398H329.891C329.862 259.398 329.847 259.398 329.818 259.398C328.647 259.359 327.722 258.516 327.722 257.452V253.95C327.722 253.742 327.895 253.56 328.112 253.534C328.228 253.522 328.358 253.56 328.445 253.638C328.531 253.716 328.589 253.82 328.589 253.924V256.064C328.589 256.142 328.647 256.194 328.734 256.194C328.821 256.194 328.878 256.142 328.878 256.064V253.042C328.878 252.834 329.052 252.652 329.269 252.639C329.399 252.626 329.515 252.665 329.616 252.73C329.703 252.808 329.76 252.912 329.76 253.016V255.921C329.76 255.999 329.818 256.051 329.905 256.051C329.992 256.051 330.05 255.999 330.05 255.921V252.497C330.05 252.289 330.223 252.108 330.44 252.082C330.556 252.082 330.671 252.108 330.772 252.185C330.859 252.263 330.917 252.367 330.917 252.471V255.792C330.917 255.869 330.975 255.921 331.062 255.921C331.148 255.921 331.206 255.869 331.206 255.792V252.99C331.206 252.886 331.264 252.769 331.351 252.704C331.438 252.626 331.568 252.601 331.683 252.601C331.886 252.626 332.059 252.808 332.059 253.016V256.077C332.059 256.22 332.146 256.336 332.291 256.401C332.435 256.466 332.594 256.44 332.71 256.349C333.187 255.973 333.578 255.753 333.823 255.727C334.086 255.702 334.373 255.833 334.373 256.09Z" fill="#0E71EB"/>
<path d="M349.005 260.063C346.796 260.063 345.015 258.281 345.015 256.072C345.015 253.863 346.796 252.082 349.005 252.082C351.214 252.082 352.996 253.863 352.996 256.072C352.996 258.281 351.214 260.063 349.005 260.063Z" fill="#2ECC71"/>
<path d="M351.142 254.861C351.142 254.975 351.1 255.074 351.014 255.16L348.591 257.583C348.506 257.668 348.392 257.711 348.292 257.711C348.178 257.711 348.078 257.668 347.993 257.583L346.981 256.571C346.81 256.4 346.81 256.129 346.981 255.972C347.152 255.801 347.423 255.801 347.579 255.972L348.278 256.685L350.401 254.576C350.572 254.405 350.843 254.405 351 254.576C351.1 254.647 351.142 254.747 351.142 254.861Z" fill="white"/>
<path d="M367.628 260.063C365.419 260.063 363.638 258.281 363.638 256.072C363.638 253.863 365.419 252.082 367.628 252.082C369.837 252.082 371.619 253.863 371.619 256.072C371.619 258.281 369.837 260.063 367.628 260.063Z" fill="#E64C3C"/>
<path d="M369.139 256.984C369.31 257.155 369.31 257.426 369.139 257.583C369.054 257.669 368.939 257.711 368.84 257.711C368.74 257.711 368.626 257.669 368.54 257.583L367.628 256.671L366.716 257.583C366.545 257.754 366.274 257.754 366.118 257.583C365.947 257.412 365.947 257.141 366.118 256.984L367.03 256.072L366.118 255.16C365.947 254.989 365.947 254.718 366.118 254.562C366.289 254.39 366.559 254.39 366.716 254.562L367.628 255.474L368.54 254.562C368.711 254.39 368.982 254.39 369.139 254.562C369.225 254.647 369.267 254.747 369.267 254.861C369.267 254.975 369.225 255.075 369.139 255.16L368.227 256.072L369.139 256.984Z" fill="white"/>
<path d="M386.25 260.063C388.46 260.063 390.241 258.281 390.241 256.072C390.241 253.863 388.46 252.082 386.25 252.082C384.041 252.082 382.26 253.863 382.26 256.072C382.26 258.281 384.041 260.063 386.25 260.063Z" fill="#747487"/>
<path d="M385.453 254.875L384.256 256.072L385.453 257.269" stroke="white" stroke-width="0.684485" stroke-linecap="round" stroke-linejoin="round"/>
<path d="M387.848 254.875L386.65 256.072L387.848 257.269" stroke="white" stroke-width="0.684485" stroke-linecap="round" stroke-linejoin="round"/>
<path d="M404.874 260.063C402.665 260.063 400.884 258.281 400.884 256.072C400.884 253.863 402.665 252.082 404.874 252.082C407.084 252.082 408.865 253.863 408.865 256.072C408.865 258.281 407.084 260.063 404.874 260.063Z" fill="#0E71EB"/>
<path d="M403.277 254.875L404.475 256.072L403.277 257.269" stroke="white" stroke-width="0.684485" stroke-linecap="round" stroke-linejoin="round"/>
<path d="M405.673 254.875L406.87 256.072L405.673 257.269" stroke="white" stroke-width="0.684485" stroke-linecap="round" stroke-linejoin="round"/>
<rect x="419.507" y="252.082" width="7.98128" height="7.98129" rx="3.42242" fill="#BABACA"/>
<path fill-rule="evenodd" clip-rule="evenodd" d="M420.837 255.905C420.837 255.63 421.06 255.407 421.336 255.407C421.611 255.407 421.835 255.63 421.835 255.905C421.835 256.181 421.611 256.404 421.336 256.404C421.06 256.404 420.837 256.181 420.837 255.905ZM422.833 255.905C422.833 255.63 423.056 255.407 423.331 255.407C423.607 255.407 423.83 255.63 423.83 255.905C423.83 256.181 423.607 256.404 423.331 256.404C423.056 256.404 422.833 256.181 422.833 255.905ZM424.828 255.905C424.828 255.63 425.052 255.407 425.327 255.407C425.603 255.407 425.826 255.63 425.826 255.905C425.826 256.181 425.603 256.404 425.327 256.404C425.052 256.404 424.828 256.181 424.828 255.905Z" fill="white"/>
<rect x="357.945" y="276.741" width="35.3069" height="6.23064" rx="1.78115" fill="#EAEAEA"/>
<rect x="352.753" y="296.591" width="44.6528" height="6.23065" rx="1.78115" fill="#EAEAEA"/>
<rect x="350.677" y="315.248" width="48.8066" height="6.23065" rx="1.78115" fill="#EAEAEA"/>
<rect x="335.101" y="240.395" width="79.9597" height="4.15373" rx="0.890576" fill="#DADADA"/>
<rect x="351.715" y="333.904" width="48.8066" height="6.23065" rx="1.78115" fill="#EAEAEA"/>
<path d="M363.138 354.342C363.138 353.358 363.935 352.561 364.919 352.561H387.318C388.301 352.561 389.099 353.358 389.099 354.342V357.011C389.099 357.994 388.301 358.792 387.318 358.792H364.919C363.935 358.792 363.138 357.994 363.138 357.011V354.342Z" fill="#EAEAEA"/>
<path d="M351.445 374.346C351.445 373.544 352.096 372.893 352.898 372.893H397.931C398.733 372.893 399.383 373.544 399.383 374.346C399.383 375.148 398.733 375.799 397.931 375.799H352.898C352.096 375.799 351.445 375.148 351.445 374.346Z" fill="#EAEAEA"/>
<g opacity="0.2">
<rect x="320.562" y="261.164" width="17.6534" height="4.15378" rx="0.890576" fill="#EAEAEA"/>
<rect x="342.369" y="261.164" width="13.4997" height="4.15378" rx="0.890576" fill="#EAEAEA"/>
<rect x="361.061" y="261.164" width="13.4997" height="4.15378" rx="0.890576" fill="#EAEAEA"/>
<rect x="378.714" y="261.164" width="16.615" height="4.15378" rx="0.890576" fill="#EAEAEA"/>
<rect x="396.368" y="261.164" width="16.615" height="4.15378" rx="0.890576" fill="#EAEAEA"/>
<rect x="416.098" y="261.164" width="15.5766" height="4.15378" rx="0.890576" fill="#EAEAEA"/>
</g>
<mask id="path-63-outside-1" maskUnits="userSpaceOnUse" x="301.741" y="86.7243" width="147" height="301" fill="black">
<rect fill="white" x="301.741" y="86.7243" width="147" height="301"/>
<path fill-rule="evenodd" clip-rule="evenodd" d="M302.741 112.135C302.741 103.591 302.741 99.3184 304.404 96.0548C305.867 93.184 308.201 90.85 311.072 89.3873C314.335 87.7243 318.608 87.7243 327.152 87.7243H423.496C432.041 87.7243 436.313 87.7243 439.577 89.3873C442.448 90.85 444.782 93.184 446.244 96.0548C447.907 99.3184 447.907 103.591 447.907 112.135V362.542C447.907 371.086 447.907 375.359 446.244 378.622C444.782 381.493 442.448 383.827 439.577 385.29C436.313 386.953 432.041 386.953 423.496 386.953H327.152C318.608 386.953 314.335 386.953 311.072 385.29C308.201 383.827 305.867 381.493 304.404 378.622C302.741 375.359 302.741 371.086 302.741 362.542V112.135ZM308.613 105.852C308.613 98.6893 314.419 92.8832 321.581 92.8832H338.5V100.632C338.5 103.918 341.164 106.582 344.451 106.582H406.201C409.487 106.582 412.151 103.918 412.151 100.632V92.8832H429.069C436.232 92.8832 442.038 98.6893 442.038 105.852V368.825C442.038 375.987 436.232 381.793 429.069 381.793H321.581C314.419 381.793 308.613 375.987 308.613 368.825V105.852Z"/>
</mask>
<path fill-rule="evenodd" clip-rule="evenodd" d="M302.741 112.135C302.741 103.591 302.741 99.3184 304.404 96.0548C305.867 93.184 308.201 90.85 311.072 89.3873C314.335 87.7243 318.608 87.7243 327.152 87.7243H423.496C432.041 87.7243 436.313 87.7243 439.577 89.3873C442.448 90.85 444.782 93.184 446.244 96.0548C447.907 99.3184 447.907 103.591 447.907 112.135V362.542C447.907 371.086 447.907 375.359 446.244 378.622C444.782 381.493 442.448 383.827 439.577 385.29C436.313 386.953 432.041 386.953 423.496 386.953H327.152C318.608 386.953 314.335 386.953 311.072 385.29C308.201 383.827 305.867 381.493 304.404 378.622C302.741 375.359 302.741 371.086 302.741 362.542V112.135ZM308.613 105.852C308.613 98.6893 314.419 92.8832 321.581 92.8832H338.5V100.632C338.5 103.918 341.164 106.582 344.451 106.582H406.201C409.487 106.582 412.151 103.918 412.151 100.632V92.8832H429.069C436.232 92.8832 442.038 98.6893 442.038 105.852V368.825C442.038 375.987 436.232 381.793 429.069 381.793H321.581C314.419 381.793 308.613 375.987 308.613 368.825V105.852Z" fill="#2F4A60"/>
<path d="M304.404 96.0548L303.724 95.7084H303.724L304.404 96.0548ZM311.072 89.3873L311.418 90.0669L311.072 89.3873ZM439.577 89.3873L439.923 88.7076V88.7076L439.577 89.3873ZM446.244 96.0548L445.565 96.4011V96.4011L446.244 96.0548ZM446.244 378.622L445.565 378.276L446.244 378.622ZM439.577 385.29L439.231 384.61H439.231L439.577 385.29ZM311.072 385.29L311.418 384.61H311.418L311.072 385.29ZM304.404 378.622L305.084 378.276H305.084L304.404 378.622ZM338.5 92.8832H339.263V92.1204H338.5V92.8832ZM412.151 92.8832V92.1204H411.388V92.8832H412.151ZM303.724 95.7084C302.829 97.4657 302.4 99.4613 302.189 102.053C301.978 104.635 301.978 107.876 301.978 112.135H303.504C303.504 107.85 303.505 104.683 303.709 102.177C303.913 99.6798 304.316 97.9074 305.084 96.4011L303.724 95.7084ZM310.725 88.7076C307.711 90.2434 305.26 92.6941 303.724 95.7084L305.084 96.4011C306.473 93.6738 308.691 91.4565 311.418 90.0669L310.725 88.7076ZM327.152 86.9615C322.892 86.9615 319.652 86.9609 317.069 87.1719C314.478 87.3836 312.483 87.8122 310.725 88.7076L311.418 90.0669C312.924 89.2994 314.697 88.8965 317.194 88.6925C319.699 88.4878 322.867 88.4872 327.152 88.4872V86.9615ZM423.496 86.9615H327.152V88.4872H423.496V86.9615ZM439.923 88.7076C438.166 87.8122 436.17 87.3836 433.579 87.1719C430.997 86.9609 427.756 86.9615 423.496 86.9615V88.4872C427.781 88.4872 430.949 88.4878 433.455 88.6925C435.952 88.8965 437.724 89.2994 439.231 90.0669L439.923 88.7076ZM446.924 95.7084C445.388 92.6941 442.938 90.2434 439.923 88.7076L439.231 90.0669C441.958 91.4565 444.175 93.6738 445.565 96.4011L446.924 95.7084ZM448.67 112.135C448.67 107.876 448.671 104.635 448.46 102.053C448.248 99.4613 447.82 97.4657 446.924 95.7084L445.565 96.4011C446.332 97.9074 446.735 99.6798 446.939 102.177C447.144 104.683 447.144 107.85 447.144 112.135H448.67ZM448.67 362.542V112.135H447.144V362.542H448.67ZM446.924 378.969C447.82 377.211 448.248 375.216 448.46 372.624C448.671 370.042 448.67 366.801 448.67 362.542H447.144C447.144 366.827 447.144 369.994 446.939 372.5C446.735 374.997 446.332 376.77 445.565 378.276L446.924 378.969ZM439.923 385.969C442.938 384.434 445.388 381.983 446.924 378.969L445.565 378.276C444.175 381.003 441.958 383.22 439.231 384.61L439.923 385.969ZM423.496 387.715C427.756 387.715 430.997 387.716 433.579 387.505C436.17 387.293 438.166 386.865 439.923 385.969L439.231 384.61C437.724 385.378 435.952 385.78 433.455 385.984C430.949 386.189 427.781 386.19 423.496 386.19V387.715ZM327.152 387.715H423.496V386.19H327.152V387.715ZM310.725 385.969C312.483 386.865 314.478 387.293 317.069 387.505C319.652 387.716 322.892 387.715 327.152 387.715V386.19C322.867 386.19 319.7 386.189 317.194 385.984C314.697 385.78 312.924 385.378 311.418 384.61L310.725 385.969ZM303.724 378.969C305.26 381.983 307.711 384.434 310.725 385.969L311.418 384.61C308.691 383.22 306.473 381.003 305.084 378.276L303.724 378.969ZM301.978 362.542C301.978 366.801 301.978 370.042 302.189 372.624C302.4 375.216 302.829 377.211 303.724 378.969L305.084 378.276C304.316 376.77 303.913 374.997 303.709 372.5C303.505 369.994 303.504 366.827 303.504 362.542H301.978ZM301.978 112.135V362.542H303.504V112.135H301.978ZM321.581 92.1204C313.998 92.1204 307.85 98.268 307.85 105.852H309.376C309.376 99.1106 314.84 93.646 321.581 93.646V92.1204ZM338.5 92.1204H321.581V93.646H338.5V92.1204ZM339.263 100.632V92.8832H337.738V100.632H339.263ZM344.451 105.819C341.586 105.819 339.263 103.496 339.263 100.632H337.738C337.738 104.339 340.743 107.345 344.451 107.345V105.819ZM406.201 105.819H344.451V107.345H406.201V105.819ZM411.388 100.632C411.388 103.496 409.066 105.819 406.201 105.819V107.345C409.908 107.345 412.914 104.339 412.914 100.632H411.388ZM411.388 92.8832V100.632H412.914V92.8832H411.388ZM429.069 92.1204H412.151V93.646H429.069V92.1204ZM442.801 105.852C442.801 98.268 436.653 92.1204 429.069 92.1204V93.646C435.81 93.646 441.275 99.1106 441.275 105.852H442.801ZM442.801 368.825V105.852H441.275V368.825H442.801ZM429.069 382.556C436.653 382.556 442.801 376.408 442.801 368.825H441.275C441.275 375.566 435.81 381.03 429.069 381.03V382.556ZM321.581 382.556H429.069V381.03H321.581V382.556ZM307.85 368.825C307.85 376.408 313.998 382.556 321.581 382.556V381.03C314.84 381.03 309.376 375.566 309.376 368.825H307.85ZM307.85 105.852V368.825H309.376V105.852H307.85Z" fill="black" fill-opacity="0.03" mask="url(#path-63-outside-1)"/>
<g opacity="0.6">
<g opacity="0.75">
<g filter="url(#filter0_i)">
<path fill-rule="evenodd" clip-rule="evenodd" d="M393.828 99.8216C394.712 99.8216 395.429 99.1048 395.429 98.2205C395.429 97.3363 394.712 96.6194 393.828 96.6194C392.943 96.6194 392.227 97.3363 392.227 98.2205C392.227 99.1048 392.943 99.8216 393.828 99.8216Z" fill="#BFC0C5"/>
</g>
<path d="M393.828 99.8979C394.754 99.8979 395.505 99.1469 395.505 98.2205C395.505 97.2941 394.754 96.5431 393.828 96.5431C392.901 96.5431 392.15 97.2941 392.15 98.2205C392.15 99.1469 392.901 99.8979 393.828 99.8979Z" stroke="#7D7D7D" stroke-opacity="0.568331" stroke-width="0.152569"/>
</g>
<g filter="url(#filter1_i)">
<rect x="365.542" y="97.3318" width="17.79" height="1.779" rx="0.889501" fill="#BFC0C5"/>
</g>
<rect x="365.466" y="97.2555" width="17.9425" height="1.93157" rx="0.965786" stroke="#7D7D7D" stroke-opacity="0.568331" stroke-width="0.152569"/>
</g>
<path d="M238.828 408.111H265.396L251.438 294.362C251.102 291.984 249.932 289.802 248.138 288.205C246.344 286.608 244.042 285.699 241.641 285.64H125.715L142.705 408.111H238.828Z" fill="#B55B52"/>
<path opacity="0.1" d="M238.828 408.111H265.396L251.438 294.362C251.102 291.984 249.932 289.802 248.138 288.205C246.344 286.608 244.042 285.699 241.641 285.64H125.715L142.705 408.111H238.828Z" fill="white"/>
<path d="M154.577 408.111H128.009L114.038 294.362C113.867 293.269 113.938 292.152 114.246 291.089C114.554 290.026 115.092 289.044 115.821 288.212C116.551 287.381 117.454 286.719 118.467 286.274C119.48 285.83 120.578 285.613 121.684 285.64H130.756C133.155 285.702 135.455 286.612 137.246 288.209C139.037 289.806 140.205 291.986 140.541 294.362L154.577 408.111Z" fill="#B55B52"/>
<path opacity="0.2" d="M154.577 408.111H128.009L114.038 294.362C113.867 293.269 113.938 292.152 114.246 291.089C114.554 290.026 115.092 289.044 115.821 288.212C116.551 287.381 117.454 286.719 118.467 286.274C119.48 285.83 120.578 285.613 121.684 285.64H130.756C133.155 285.702 135.455 286.612 137.246 288.209C139.037 289.806 140.205 291.986 140.541 294.362L154.577 408.111Z" fill="black"/>
<path d="M170.232 423.481L165.424 368.467C165.33 367.27 164.824 366.143 163.992 365.278C163.16 364.413 162.054 363.864 160.862 363.723L158.879 363.464C157.286 363.263 155.809 362.521 154.696 361.363C153.583 360.205 152.9 358.701 152.762 357.101L151.881 347.07C151.798 346.098 151.918 345.12 152.233 344.198C152.548 343.275 153.05 342.427 153.709 341.709C154.368 340.99 155.169 340.416 156.061 340.023C156.953 339.629 157.917 339.425 158.892 339.423H114.492C113.517 339.425 112.553 339.629 111.661 340.023C110.769 340.416 109.968 340.99 109.309 341.709C108.65 342.427 108.147 343.275 107.833 344.198C107.518 345.12 107.398 346.098 107.48 347.07L108.362 357.101C108.5 358.701 109.183 360.205 110.296 361.363C111.409 362.521 112.885 363.263 114.479 363.464L116.462 363.723C117.653 363.864 118.76 364.413 119.592 365.278C120.424 366.143 120.93 367.27 121.023 368.467L125.857 423.481C126.03 425.422 126.924 427.228 128.364 428.541C129.804 429.854 131.685 430.578 133.633 430.57H178.034C176.081 430.585 174.194 429.863 172.748 428.55C171.303 427.236 170.404 425.427 170.232 423.481Z" fill="#B55B52"/>
<g opacity="0.3">
<path opacity="0.3" d="M170.232 423.481L165.424 368.467C165.33 367.27 164.824 366.143 163.992 365.278C163.16 364.413 162.054 363.864 160.862 363.723L158.879 363.464C157.286 363.263 155.809 362.521 154.696 361.363C153.583 360.205 152.9 358.701 152.762 357.101L151.881 347.07C151.798 346.098 151.918 345.12 152.233 344.198C152.548 343.275 153.05 342.427 153.709 341.709C154.368 340.99 155.169 340.416 156.061 340.023C156.953 339.629 157.917 339.425 158.892 339.423H114.492C113.517 339.425 112.553 339.629 111.661 340.023C110.769 340.416 109.968 340.99 109.309 341.709C108.65 342.427 108.147 343.275 107.833 344.198C107.518 345.12 107.398 346.098 107.48 347.07L108.362 357.101C108.5 358.701 109.183 360.205 110.296 361.363C111.409 362.521 112.885 363.263 114.479 363.464L116.462 363.723C117.653 363.864 118.76 364.413 119.592 365.278C120.424 366.143 120.93 367.27 121.023 368.467L125.857 423.481C126.03 425.422 126.924 427.228 128.364 428.541C129.804 429.854 131.685 430.578 133.633 430.57H178.034C176.081 430.585 174.194 429.863 172.748 428.55C171.303 427.236 170.404 425.427 170.232 423.481Z" fill="black"/>
</g>
<path d="M292.418 354.69C292.787 350.524 294.702 346.646 297.786 343.821C300.871 340.995 304.901 339.427 309.084 339.423H270.425C266.242 339.424 262.212 340.992 259.129 343.818C256.046 346.644 254.135 350.524 253.771 354.69L249.948 398.3H288.607L292.418 354.69Z" fill="#B55B52"/>
<path opacity="0.3" d="M292.418 354.69C292.787 350.524 294.702 346.646 297.786 343.821C300.871 340.995 304.901 339.427 309.084 339.423H270.425C266.242 339.424 262.212 340.992 259.129 343.818C256.046 346.644 254.135 350.524 253.771 354.69L249.948 398.3H288.607L292.418 354.69Z" fill="black"/>
<path d="M181.119 430.57H190.191V453.38C190.191 453.974 189.955 454.545 189.534 454.965C189.114 455.386 188.544 455.622 187.949 455.622H184.67C183.732 455.622 182.832 455.249 182.168 454.586C181.505 453.922 181.132 453.022 181.132 452.084V430.57H181.119Z" fill="#BC6B63"/>
<path d="M295.631 430.57H304.703V453.38C304.703 453.974 304.467 454.545 304.046 454.965C303.626 455.386 303.055 455.622 302.461 455.622H299.182C298.244 455.622 297.344 455.249 296.68 454.586C296.017 453.922 295.644 453.022 295.644 452.084V430.57H295.631Z" fill="#263238"/>
<path d="M135.837 430.57H144.909V453.38C144.909 453.974 144.673 454.545 144.252 454.965C143.832 455.386 143.261 455.622 142.667 455.622H139.388C138.45 455.622 137.55 455.249 136.886 454.586C136.223 453.922 135.85 453.022 135.85 452.084V430.57H135.837Z" fill="#BC6B63"/>
<path d="M250.389 430.57H259.461V453.38C259.461 453.974 259.224 454.545 258.804 454.965C258.383 455.386 257.813 455.622 257.219 455.622H253.94C253.001 455.622 252.101 455.249 251.438 454.586C250.774 453.922 250.402 453.022 250.402 452.084V430.57H250.389Z" fill="#BC6B63"/>
<path d="M204.123 372.147H188.156C186.292 372.147 184.504 372.887 183.185 374.204C181.866 375.521 181.123 377.307 181.119 379.171V391.263C181.119 392.186 181.301 393.101 181.655 393.954C182.009 394.807 182.527 395.582 183.181 396.234C183.835 396.887 184.611 397.404 185.464 397.756C186.318 398.108 187.233 398.289 188.156 398.287H204.123V372.147Z" fill="#B55B52"/>
<path opacity="0.3" d="M204.123 372.147H188.156C186.292 372.147 184.504 372.887 183.185 374.204C181.866 375.521 181.123 377.307 181.119 379.171V391.263C181.119 392.186 181.301 393.101 181.655 393.954C182.009 394.807 182.527 395.582 183.181 396.234C183.835 396.887 184.611 397.404 185.464 397.756C186.318 398.108 187.233 398.289 188.156 398.287H204.123V372.147Z" fill="black"/>
<path d="M281.584 372.147H204.667C200.787 372.147 197.643 375.292 197.643 379.171V391.276C197.643 395.155 200.787 398.3 204.667 398.3H281.584C285.463 398.3 288.608 395.155 288.608 391.276V379.171C288.608 375.292 285.463 372.147 281.584 372.147Z" fill="#B55B52"/>
<path d="M326.256 339.423H309.084C304.901 339.427 300.871 340.995 297.786 343.821C294.702 346.646 292.786 350.524 292.417 354.69L288.607 398.3H196.592L192.782 354.69C192.412 350.515 190.49 346.63 187.394 343.803C184.299 340.976 180.256 339.414 176.064 339.423H158.892C157.917 339.425 156.953 339.629 156.061 340.023C155.169 340.416 154.368 340.99 153.709 341.709C153.05 342.427 152.548 343.275 152.233 344.198C151.918 345.12 151.798 346.098 151.881 347.07L152.762 357.101C152.9 358.701 153.583 360.205 154.696 361.363C155.809 362.521 157.286 363.263 158.879 363.464L160.862 363.723C162.054 363.864 163.16 364.413 163.992 365.278C164.824 366.143 165.33 367.27 165.424 368.467L170.232 423.481C170.404 425.422 171.299 427.228 172.739 428.541C174.179 429.854 176.059 430.578 178.008 430.57H307.217C309.166 430.578 311.047 429.854 312.487 428.541C313.927 427.228 314.821 425.422 314.993 423.481L319.801 368.467C319.895 367.27 320.401 366.143 321.233 365.278C322.065 364.413 323.171 363.864 324.363 363.723L326.346 363.464C327.94 363.263 329.416 362.521 330.529 361.363C331.642 360.205 332.325 358.701 332.463 357.101L333.345 347.07C333.43 346.091 333.309 345.106 332.99 344.177C332.672 343.248 332.162 342.396 331.494 341.676C330.827 340.956 330.016 340.383 329.113 339.995C328.211 339.607 327.238 339.412 326.256 339.423Z" fill="#B55B52"/>
<path opacity="0.1" d="M326.256 339.423H309.084C304.901 339.427 300.871 340.995 297.786 343.821C294.702 346.646 292.786 350.524 292.417 354.69L288.607 398.3H196.592L192.782 354.69C192.412 350.515 190.49 346.63 187.394 343.803C184.299 340.976 180.256 339.414 176.064 339.423H158.892C157.917 339.425 156.953 339.629 156.061 340.023C155.169 340.416 154.368 340.99 153.709 341.709C153.05 342.427 152.548 343.275 152.233 344.198C151.918 345.12 151.798 346.098 151.881 347.07L152.762 357.101C152.9 358.701 153.583 360.205 154.696 361.363C155.809 362.521 157.286 363.263 158.879 363.464L160.862 363.723C162.054 363.864 163.16 364.413 163.992 365.278C164.824 366.143 165.33 367.27 165.424 368.467L170.232 423.481C170.404 425.422 171.299 427.228 172.739 428.541C174.179 429.854 176.059 430.578 178.008 430.57H307.217C309.166 430.578 311.047 429.854 312.487 428.541C313.927 427.228 314.821 425.422 314.993 423.481L319.801 368.467C319.895 367.27 320.401 366.143 321.233 365.278C322.065 364.413 323.171 363.864 324.363 363.723L326.346 363.464C327.94 363.263 329.416 362.521 330.529 361.363C331.642 360.205 332.325 358.701 332.463 357.101L333.345 347.07C333.43 346.091 333.309 345.106 332.99 344.177C332.672 343.248 332.162 342.396 331.494 341.676C330.827 340.956 330.016 340.383 329.113 339.995C328.211 339.607 327.238 339.412 326.256 339.423Z" fill="black"/>
<path d="M330.208 445.098L341.846 440.821L344.503 450.801L334.174 454.118L330.208 445.098Z" fill="#FAB27B"/>
<path d="M307.519 461.246C305.143 462.974 299.225 466.041 294.559 464.486C292.485 464.146 293.846 469.528 294.71 472.91H301.838L326.959 467.726C327.823 467.078 327.887 464.227 325.814 463.19C318.556 464.745 310.975 462.974 307.519 461.246Z" fill="#E5E5E5"/>
<path d="M343.808 453.47C341.432 455.198 335.514 458.265 330.848 456.71C328.774 456.37 329.984 463.049 330.848 466.43L363.248 459.95C364.112 459.302 364.176 456.451 362.103 455.414C354.845 456.969 347.264 455.198 343.808 453.47Z" fill="#E5E5E5"/>
<path opacity="0.1" d="M341.846 440.821L330.208 445.098L331.88 448.895L342.973 445.046L341.846 440.821Z" fill="black"/>
<path d="M200.169 202.891C200.169 202.891 199.327 187.339 221.903 186.924C244.479 186.51 241.913 204.317 240.138 209.838C238.362 215.358 246.76 222.694 246.76 222.694C246.76 222.694 241.472 222.797 239.736 219.985C237.999 217.173 245.075 227.761 243.52 234.954C241.965 242.147 239.192 249.21 243.041 255.003C243.041 255.003 236.12 251.646 236.392 245.037C236.392 245.037 236.911 250.493 231.454 249.249C225.998 248.004 210.472 242.769 200.169 245.698C195.076 247.162 193.197 244.505 192.847 241.019C192.497 237.533 191.279 232.206 191.551 239.399C191.591 240.563 191.708 241.724 191.901 242.872C191.901 242.872 182.829 236.392 189.309 228.616C191.24 226.245 196.385 223.212 196.385 218.65C196.385 214.088 193.56 208.179 200.169 202.891Z" fill="#263238"/>
<path d="M202.049 204.148C202.049 204.148 197.409 200.26 200.468 192.873C200.468 192.873 192.588 203.033 203.28 206.092L202.049 204.148Z" fill="#263238"/>
<path d="M292.379 292.586C292.379 292.586 260.355 315.136 252.203 307.451C244.051 299.766 237.947 279.548 237.947 279.548L251.814 272.809L259.396 291.666C259.759 292.559 260.458 293.274 261.342 293.659C262.225 294.044 263.225 294.068 264.126 293.727L288.309 285.251C288.435 282.321 289.214 279.456 290.59 276.866C291.951 274.533 294.906 273.328 296.733 271.345C301.528 266.161 300.479 273.768 300.479 273.768L301.775 283.035C301.877 283.822 301.751 284.623 301.412 285.342L299.701 288.88C299.459 289.399 299.11 289.862 298.676 290.237C298.243 290.612 297.736 290.891 297.187 291.057L292.379 292.586Z" fill="#FAB27B"/>
<path d="M236.198 278.512C236.198 278.512 229.161 260.666 235.083 252.087C241.006 243.507 253.784 269.077 253.784 269.077L254.873 269.634L256.662 272.952C256.662 272.952 243.792 277.825 237.611 283.178L235.667 279.069L236.198 278.512Z" fill="#263238"/>
<g opacity="0.2">
<path opacity="0.2" d="M236.198 278.512C236.198 278.512 229.161 260.666 235.083 252.087C241.006 243.507 253.784 269.077 253.784 269.077L254.873 269.634L256.662 272.952C256.662 272.952 243.792 277.825 237.611 283.178L235.667 279.069L236.198 278.512Z" fill="white"/>
</g>
<path d="M227.838 340.616C227.838 340.616 303.005 330.857 313.515 346.552C324.026 362.246 345.902 450.879 345.902 450.879L329.936 457.514C329.936 457.514 302.111 399.648 294.4 369.776L275.789 368.998L224.753 372.821C224.753 372.821 204.108 349.195 227.838 340.616Z" fill="#BDD3FF"/>
<path d="M178.915 266.666C179.2 274.274 185.279 288.297 187.676 301.788C189.576 312.382 190.517 323.126 190.488 333.889C190.488 333.889 231.597 344.348 250.402 333.773C248.597 324.286 247.454 314.686 246.98 305.041C245.983 283.942 246.41 258.061 241.719 252.825C233.554 243.753 215.54 242.924 198.187 244.129C180.833 245.334 178.643 259.253 178.915 266.666Z" fill="#263238"/>
<g opacity="0.1">
<path opacity="0.1" d="M178.915 266.666C179.2 274.274 185.279 288.297 187.676 301.788C189.576 312.382 190.517 323.126 190.488 333.889C190.488 333.889 231.597 344.348 250.402 333.773C248.597 324.286 247.454 314.686 246.98 305.041C245.983 283.942 246.41 258.061 241.719 252.825C233.554 243.753 215.54 242.924 198.187 244.129C180.833 245.334 178.643 259.253 178.915 266.666Z" fill="white"/>
</g>
<path d="M173.924 271.617C173.924 271.617 166.693 293.17 169.013 304.937C171.332 316.705 214.579 317.69 214.579 317.69C214.579 317.69 220.683 319.569 223.936 318.986C226.707 318.811 229.488 319.069 232.179 319.75C232.736 319.871 233.316 319.841 233.858 319.663C234.4 319.485 234.885 319.167 235.263 318.74L237.233 316.549C237.6 316.141 237.858 315.647 237.983 315.112C238.108 314.577 238.095 314.019 237.946 313.491C237.104 310.497 234.991 304.846 231.142 305.028C225.958 305.274 215.59 310.082 215.59 310.082L188.064 300.336C187.563 300.215 187.092 299.996 186.677 299.691C186.262 299.386 185.912 299.002 185.646 298.561C185.381 298.119 185.206 297.63 185.132 297.12C185.057 296.611 185.085 296.092 185.212 295.593L190.293 274.352L173.924 271.617Z" fill="#FAB27B"/>
<path d="M170.764 270.84C170.764 270.84 176.92 249.352 188.48 245.62C200.04 241.887 193.664 274.598 193.664 274.598L194.273 275.894L193.573 280.236C193.573 280.236 178.216 275.609 168.703 276.166L169.818 270.982L170.764 270.84Z" fill="#263238"/>
<g opacity="0.2">
<path opacity="0.2" d="M170.764 270.84C170.764 270.84 176.92 249.352 188.48 245.62C200.04 241.887 193.664 274.598 193.664 274.598L194.273 275.894L193.573 280.236C193.573 280.236 178.216 275.609 168.703 276.166L169.818 270.982L170.764 270.84Z" fill="white"/>
</g>
<path d="M229.368 245.658L228.59 245.412C221.709 243.079 222.331 238.18 223.925 233.385L212.831 222.071C213.531 228.551 214.27 243.468 208.813 243.572L211.133 245.542L215.021 250.168L224.715 259.966L226.115 259.694L228.435 257.776L230.301 252.825L229.368 245.658Z" fill="#FAB27B"/>
<path d="M210.2 243.105C210.2 243.105 220.568 251.141 224.883 259.292C226.513 256.743 227.492 253.833 227.734 250.817C227.812 247.953 225.337 245.49 225.337 243.442L230.21 245.503C230.21 245.503 238.193 257.828 234.668 264.761C234.668 264.761 232.219 258.58 226.14 261.055C225.727 261.277 225.253 261.363 224.788 261.3C224.322 261.237 223.889 261.029 223.548 260.705C223.25 260.356 222.836 260.126 222.382 260.057C220.736 259.785 217.043 259.85 213.893 264.826C213.893 264.826 211.677 250.57 205.819 243.624L210.2 243.105Z" fill="white"/>
<path opacity="0.2" d="M217.38 226.737L223.977 233.437C223.578 234.55 223.274 235.694 223.07 236.859C220.478 236.237 216.59 233.476 216.59 230.638C216.625 229.301 216.892 227.981 217.38 226.737Z" fill="black"/>
<path d="M207.18 212.092C209.862 222.344 210.77 226.737 217.055 231.027C226.516 237.507 238.517 231.96 238.97 221.112C239.359 211.354 234.914 196.242 223.95 194.104C221.533 193.621 219.033 193.764 216.687 194.519C214.341 195.274 212.227 196.617 210.547 198.42C208.866 200.223 207.675 202.425 207.085 204.818C206.496 207.211 206.528 209.715 207.18 212.092Z" fill="#FAB27B"/>
<path d="M216.576 197.539C216.576 197.539 219.466 200.584 228.02 202.8L225.57 199.34C225.57 199.34 234.979 203.98 240.979 202.8C240.979 202.8 232.102 184.812 213.492 192.251C213.492 192.251 193.793 210.395 204.601 231.131C204.601 231.131 210.433 234.5 211.651 228.292C211.651 228.292 214.243 232.465 211.651 235.019C213.211 233.632 214.329 231.819 214.868 229.803C215.407 227.788 215.343 225.658 214.684 223.679C212.442 216.603 213.66 213.57 216.576 207.816C217.439 206.241 217.892 204.473 217.892 202.677C217.892 200.881 217.439 199.114 216.576 197.539Z" fill="#263238"/>
<path d="M293.402 451.98L297.057 462.724L307.308 459.497L305.649 447.69L293.402 451.98Z" fill="#FAB27B"/>
<path opacity="0.1" d="M305.649 447.69L293.402 451.98L295.048 456.827L306.362 452.744L305.649 447.69Z" fill="black"/>
<path d="M192.083 334.097C192.083 334.097 188.519 373.119 207.505 374.195C226.491 375.271 267.393 364.993 267.393 364.993C267.393 364.993 269.233 397.393 279.16 421.913C289.087 446.433 293.416 465.134 293.416 465.134L310.134 459.458C310.134 459.458 300.596 358.423 288.349 343.817C273.328 325.88 203.786 336.469 203.786 336.469L192.083 334.097Z" fill="#BDD3FF"/>
<path d="M207.634 219.48C208.592 221.291 210.227 222.651 212.183 223.264C214.774 224.042 216.07 221.735 215.461 219.247C214.852 217.017 212.766 213.92 210.135 214.218C209.217 214.353 208.391 214.846 207.837 215.589C207.283 216.333 207.047 217.266 207.18 218.184C207.242 218.642 207.397 219.083 207.634 219.48Z" fill="#FAB27B"/>
<path d="M289.657 260.705L298.418 262.273C298.59 262.303 298.754 262.37 298.898 262.469C299.042 262.568 299.163 262.697 299.253 262.847C299.342 262.997 299.399 263.165 299.418 263.339C299.437 263.512 299.419 263.688 299.364 263.854L293.83 283.955C293.738 284.314 293.517 284.627 293.208 284.833C292.899 285.038 292.526 285.123 292.159 285.069L283.385 283.514C283.214 283.482 283.052 283.414 282.909 283.315C282.767 283.215 282.647 283.086 282.559 282.936C282.47 282.786 282.415 282.619 282.397 282.446C282.378 282.273 282.397 282.098 282.452 281.933L287.972 261.819C288.07 261.461 288.295 261.149 288.605 260.944C288.915 260.739 289.289 260.654 289.657 260.705Z" fill="#C4C4C4"/>
<path opacity="0.5" d="M289.657 260.705L298.418 262.273C298.59 262.303 298.754 262.37 298.898 262.469C299.042 262.568 299.163 262.697 299.253 262.847C299.342 262.997 299.399 263.165 299.418 263.339C299.437 263.512 299.419 263.688 299.364 263.854L293.83 283.955C293.738 284.314 293.517 284.627 293.208 284.833C292.899 285.038 292.526 285.123 292.159 285.069L283.385 283.514C283.214 283.482 283.052 283.414 282.909 283.315C282.767 283.215 282.647 283.086 282.559 282.936C282.47 282.786 282.415 282.619 282.397 282.446C282.378 282.273 282.397 282.098 282.452 281.933L287.972 261.819C288.07 261.461 288.295 261.149 288.605 260.944C288.915 260.739 289.289 260.654 289.657 260.705Z" fill="white"/>
<path d="M283.385 283.514L292.159 285.069C292.428 285.11 292.703 285.069 292.949 284.953L284.681 283.475C284.514 283.435 284.358 283.361 284.22 283.259C284.082 283.157 283.966 283.029 283.878 282.882C283.79 282.735 283.732 282.572 283.707 282.403C283.683 282.233 283.692 282.06 283.735 281.894L289.268 261.794C289.331 261.572 289.443 261.367 289.596 261.195C289.748 261.022 289.938 260.886 290.15 260.796L289.657 260.705C289.289 260.654 288.915 260.739 288.605 260.944C288.295 261.149 288.07 261.461 287.972 261.819L282.452 281.933C282.397 282.098 282.378 282.273 282.397 282.446C282.415 282.619 282.47 282.786 282.559 282.936C282.647 283.086 282.767 283.215 282.909 283.315C283.052 283.414 283.214 283.482 283.385 283.514Z" fill="#C6C6C6"/>
<path d="M291.744 262.61C291.725 262.818 291.633 263.012 291.483 263.157C291.333 263.303 291.135 263.389 290.927 263.401C290.829 263.405 290.732 263.388 290.642 263.351C290.551 263.314 290.47 263.258 290.403 263.187C290.337 263.115 290.287 263.03 290.256 262.937C290.226 262.844 290.216 262.746 290.227 262.649C290.246 262.441 290.338 262.247 290.488 262.101C290.638 261.956 290.835 261.87 291.044 261.858C291.141 261.854 291.239 261.871 291.329 261.908C291.42 261.945 291.501 262.001 291.567 262.072C291.634 262.144 291.684 262.229 291.715 262.322C291.745 262.415 291.755 262.513 291.744 262.61Z" fill="#263238"/>
<path d="M212.235 219.778C212.494 220.568 213.284 221.074 212.494 221.281C212.301 221.36 212.094 221.397 211.885 221.392C211.677 221.387 211.472 221.339 211.283 221.251C211.094 221.163 210.925 221.037 210.787 220.881C210.649 220.725 210.545 220.542 210.48 220.344C210.416 220.146 210.393 219.937 210.413 219.729C210.434 219.522 210.496 219.321 210.598 219.139C210.699 218.957 210.837 218.798 211.003 218.671C211.168 218.545 211.358 218.454 211.561 218.404C212.351 218.145 211.975 218.987 212.235 219.778Z" fill="white"/>
<path d="M210.563 219.972C210.563 219.972 210.096 219.972 211.768 225.156L212.442 224.936C212.442 224.936 211.146 221.242 212.04 220.84C211.868 220.6 211.648 220.399 211.394 220.25C211.139 220.1 210.856 220.005 210.563 219.972Z" fill="white"/>
<path d="M233.787 333.695H275.401L294.802 298.807H272.058L258.32 323.094L252.683 332.982L235.42 332.438L233.787 333.695Z" fill="#E2E2E2"/>
<path d="M271.436 298.807L252.372 331.855H212.054V332.697C212.057 332.961 212.163 333.213 212.35 333.399C212.536 333.585 212.788 333.692 213.052 333.695H253.668L273.108 298.807H271.436Z" fill="#C6C6C6"/>
<path d="M259.922 117.517H332.093C337.898 117.517 342.663 122.25 342.663 128.016V166.828C342.663 172.594 337.898 177.241 332.093 177.327H324.815L327.674 188.687C319.357 187.912 311.646 183.781 306.448 177.327H259.922C254.117 177.327 249.352 172.594 249.352 166.828V128.102C249.439 122.25 254.117 117.517 259.922 117.517Z" fill="#2D8CFF"/>
<path d="M329.93 130.594H262.178V137.006H329.93V130.594Z" fill="white"/>
<path d="M314.42 143.851H262.176V150.262H314.42V143.851Z" fill="white"/>
<path d="M321.264 157.194H262.176V163.605H321.264V157.194Z" fill="white"/>
<defs>
<filter id="filter0_i" x="391.769" y="96.1617" width="3.81247" height="3.81248" filterUnits="userSpaceOnUse" color-interpolation-filters="sRGB">
<feFlood flood-opacity="0" result="BackgroundImageFix"/>
<feBlend mode="normal" in="SourceGraphic" in2="BackgroundImageFix" result="shape"/>
<feColorMatrix in="SourceAlpha" type="matrix" values="0 0 0 0 0 0 0 0 0 0 0 0 0 0 0 0 0 0 127 0" result="hardAlpha"/>
<feOffset dx="-0.305138" dy="-0.305138"/>
<feGaussianBlur stdDeviation="0.381422"/>
<feComposite in2="hardAlpha" operator="arithmetic" k2="-1" k3="1"/>
<feColorMatrix type="matrix" values="0 0 0 0 0 0 0 0 0 0 0 0 0 0 0 0 0 0 0.344061 0"/>
<feBlend mode="normal" in2="shape" result="effect1_innerShadow"/>
</filter>
<filter id="filter1_i" x="365.39" y="97.1792" width="18.4002" height="2.38928" filterUnits="userSpaceOnUse" color-interpolation-filters="sRGB">
<feFlood flood-opacity="0" result="BackgroundImageFix"/>
<feBlend mode="normal" in="SourceGraphic" in2="BackgroundImageFix" result="shape"/>
<feColorMatrix in="SourceAlpha" type="matrix" values="0 0 0 0 0 0 0 0 0 0 0 0 0 0 0 0 0 0 127 0" result="hardAlpha"/>
<feOffset dx="0.305138" dy="0.305138"/>
<feGaussianBlur stdDeviation="0.305138"/>
<feComposite in2="hardAlpha" operator="arithmetic" k2="-1" k3="1"/>
<feColorMatrix type="matrix" values="0 0 0 0 0 0 0 0 0 0 0 0 0 0 0 0 0 0 0.344061 0"/>
<feBlend mode="normal" in2="shape" result="effect1_innerShadow"/>
</filter>
<linearGradient id="paint0_linear" x1="320.4" y1="52.1794" x2="366.75" y2="329.843" gradientUnits="userSpaceOnUse">
<stop stop-color="white" stop-opacity="0.33"/>
<stop offset="1" stop-color="white" stop-opacity="0"/>
</linearGradient>
</defs>
</svg>
